<mxfile host="app.diagrams.net" agent="Mozilla/5.0 (X11; Linux x86_64; rv:132.0) Gecko/20100101 Firefox/132.0" version="26.0.16">
  <diagram name="Page-1" id="c05NexoOGAEhC4HGr8M-">
    <mxGraphModel dx="1647" dy="955" grid="1" gridSize="10" guides="1" tooltips="1" connect="1" arrows="1" fold="1" page="1" pageScale="1" pageWidth="850" pageHeight="1100" math="0" shadow="0">
      <root>
        <mxCell id="0" />
        <mxCell id="1" parent="0" />
        <mxCell id="Vz_33hhIn91_WFscXHp0-3" value="" style="ellipse;whiteSpace=wrap;html=1;strokeColor=#000000;" parent="1" vertex="1">
          <mxGeometry x="367.5" y="308.5" width="150" height="150" as="geometry" />
        </mxCell>
        <mxCell id="Vz_33hhIn91_WFscXHp0-5" value="" style="ellipse;whiteSpace=wrap;html=1;aspect=fixed;strokeColor=#000000;" parent="1" vertex="1">
          <mxGeometry x="220" y="308.5" width="150" height="150" as="geometry" />
        </mxCell>
        <mxCell id="Vz_33hhIn91_WFscXHp0-1" value="" style="ellipse;whiteSpace=wrap;html=1;aspect=fixed;strokeColor=#000000;" parent="1" vertex="1">
          <mxGeometry x="290" y="207.5" width="150" height="150" as="geometry" />
        </mxCell>
        <mxCell id="Vz_33hhIn91_WFscXHp0-4" value="&lt;div&gt;&lt;font style=&quot;font-size: 22px;&quot;&gt;Die richtigen&amp;nbsp;&lt;/font&gt;&lt;/div&gt;&lt;div&gt;&lt;font style=&quot;font-size: 22px;&quot;&gt;Dinge tun&lt;/font&gt;&lt;/div&gt;" style="text;html=1;align=center;verticalAlign=middle;whiteSpace=wrap;rounded=0;" parent="1" vertex="1">
          <mxGeometry x="340" y="341" width="205" height="85" as="geometry" />
        </mxCell>
        <mxCell id="Vz_33hhIn91_WFscXHp0-7" value="&lt;div&gt;&lt;font style=&quot;font-size: 24px;&quot;&gt;Besser&amp;nbsp;&lt;/font&gt;&lt;/div&gt;&lt;div&gt;&lt;font style=&quot;font-size: 24px;&quot;&gt;werden&lt;/font&gt;&lt;/div&gt;" style="text;html=1;align=center;verticalAlign=middle;whiteSpace=wrap;rounded=0;" parent="1" vertex="1">
          <mxGeometry x="192.5" y="341" width="205" height="85" as="geometry" />
        </mxCell>
        <mxCell id="Vz_33hhIn91_WFscXHp0-2" value="&lt;div&gt;&lt;font style=&quot;font-size: 24px;&quot;&gt;Die Dinge&amp;nbsp;&lt;/font&gt;&lt;/div&gt;&lt;div&gt;&lt;font style=&quot;font-size: 24px;&quot;&gt;richtig tun&lt;/font&gt;&lt;/div&gt;" style="text;html=1;align=center;verticalAlign=middle;whiteSpace=wrap;rounded=0;" parent="1" vertex="1">
          <mxGeometry x="262.5" y="240" width="205" height="85" as="geometry" />
        </mxCell>
        <mxCell id="Vz_33hhIn91_WFscXHp0-10" value="&lt;font style=&quot;font-size: 22px;&quot;&gt;Scrum Master&lt;/font&gt;" style="text;html=1;align=center;verticalAlign=middle;whiteSpace=wrap;rounded=0;" parent="1" vertex="1">
          <mxGeometry x="70" y="422" width="150" height="50" as="geometry" />
        </mxCell>
        <mxCell id="Vz_33hhIn91_WFscXHp0-12" value="&lt;font style=&quot;font-size: 22px;&quot;&gt;Product Owner&lt;/font&gt;" style="text;html=1;align=center;verticalAlign=middle;whiteSpace=wrap;rounded=0;" parent="1" vertex="1">
          <mxGeometry x="530" y="418" width="150" height="50" as="geometry" />
        </mxCell>
        <mxCell id="Vz_33hhIn91_WFscXHp0-23" value="&lt;font style=&quot;font-size: 22px;&quot;&gt;Developer Team&lt;/font&gt;" style="text;html=1;align=center;verticalAlign=middle;whiteSpace=wrap;rounded=0;" parent="1" vertex="1">
          <mxGeometry x="445" y="230" width="150" height="50" as="geometry" />
        </mxCell>
        <mxCell id="9kofIlFbRkQfjmpeaeeo-1" value="" style="shape=image;verticalLabelPosition=bottom;labelBackgroundColor=default;verticalAlign=top;aspect=fixed;imageAspect=0;image=data:image/png,iVBORw0KGgoAAAANSUhEUgAAAgAAAAIACAYAAAD0eNT6AAAABHNCSVQICAgIfAhkiAAAIABJREFUeF7t3Qe0bVV97/GLFKnSQUCqVAURKSpEioiiYsGQ2GJQEzRFkxf7i8YSX2KMZsQk8uLwGUtMjMYaRQURBKWIgqKAiCD30kW60svl/X54jx7OPfucvfZeZf7n/7vG+I977t6rzP9nzr3X3HO1VZYwIYBANIEtVeAdFTspNlGsq1hnzH/X0Hy3K25T3DrGv57nKsXFiksUtyiYEECgAoFVKsiBFBCoUWD2Tn5mZ+8d/iMV3tkPNV2nDbsjMNMhmP0vnYOhaoXtIjCBAB2ACdBYBIGWBXbV+g5cEXvo36F38pOmd70WdIfgHMU3V8S1k66M5RBAoFsBOgDd+rJ2BOYKPEQv7Kl4kmJmp7/p3Jkq+v9FymWmM+B/L68oN1JBILQAHYDQ1UfhAwisrjLuo5jZ2R+gv9cPUO6uiniZVjy7Q/CTrjbEehFAAAEEEOhbwDv9Zys+pfDJdvcTIw2ukM17FXv1XUlsDwEEEEAAgTYEPJrmYf0PKG5QsNNvbvAjub1ZsX0bFcI6EEAAAQQQ6FLg0Vr53yqWKdjpt2dwujz/ROHLHJkQQAABBBAoQuARKsXrFecq2Ol3a3CPjI9TvFCxdhG1TyEQQAABBNIJ7KuMP69YrmDH37+B7zPwbsXm6VoeCSOAAAIIDCJwiLZ6ooKdfhkGd6gujlVsO0hrYKMIIIAAAlUL+KS+ZynOVLDjL9PAhwc+pvCNlJgQQAABBBCYSmBVLe3jzT9UsOOPYeBDMp9R7D1VzbMwAggggEBKAT8k5xiFb2XLjj+uwfGqP990iQkBBBBAAIFFBY7SHL5FLTv+egxOUn3utmjNMwMCCCCAQEoBP2XPvxjZ8ddpcLfq9u8UXD6Y8uNN0ggggMDKAmvqpXco7lSw86/fwM8feO7KzYBXEEAAAQQyCTxdyfp59uz48xn4hkLcZjjTp51cEUAAAQlsrfisgh1/boPb1Qb+SvFQPhUIIIAAAnUL+Ml8b1DcqmDnj8FMG/BjiA+ru+mTHQIIIJBXYE+lfr6CHT8Go9rAJ9Q+1s/7ESFzBBBAoD6BVygl3zJ21Bc/r2Mz0wZ8Tgg3EarvO4CMEEAgmcC6yte/6tjBY9CkDfiKkD9N9lkhXQQQQKAagccok4sUTb74mRev2W3g02o/HBKo5iuBRBBAIIPAHypJn+HNDh2DadsAhwQyfGOQIwIIhBdYRxl8nB0/HZ+W2wCHBMJ/NZAAAgjULLC7kruw5S/+aX89snxdIxAcEqj5G4TcEEAgpMDRKjVD/nXtbEvtPPmQwGNDfkooNAIIIFCZwFuUT6k7C8pVZ93cojZ3SGWfI9JBAAEEwgisopL+s4KdLAZDtAGfF/C8MJ8WCooAAghUIuBb+v6XYogvfraJ+0wbuFdt8JhKPlOkkVxg1eT5k34MAd/c538Uz4lRXEpZscBDlNuzFPcovlVxnqSWQIAOQIJKDp7iJir/1xQHBs+D4tclcKjS2VBxQl1pkU0mAToAmWo7Xq7bqMjfUPgOf0wIlCbwBBVoR8WXFMtLKxzlQWAxAZ9UxYRAiQKPVqH862qrEgtHmRCYJfBV/X2UwpelMiEQRoAOQJiqSlXQ/ZXtcQoPsTIhEEHgTBXyCMWNEQpLGRGwAB0A2kFpAk9Ugb6uWLu0glEeBBYROFfvH6zwPQOYEChewGe0MiFQioCH/b+sYOdfSo1QjiYCvlugr1ZZs8lCzIvAUAJ0AIaSZ7tzBXzCn4/5M+w/V4b/RxI4SIX1/So4wTpSrSUtK400acUXlrYv9fPZ/tsXVi6Kg8AkArtqoS0VvjqACYFiBegAFFs1aQrmx/n6Ov8902RMohkEHqck11CcnCFZcowpQAcgZr3VUmrf3tfHTLnJTy01Sh6zBZ6k/9ysOAsWBEoUoANQYq3kKJOvQPm44rk50iXLpAJPU94XK85Lmj9pFyzASYAFV07lRfsn5ffCynMkPQTc0f2owh0BJgSKEqADUFR1pCnMm5Xpq9NkS6LZBXyo67OKx2eHIP+yBLgRUFn1kaE0L1GS/54hUXJEYI7ADfr/PoplyCBQggAdgBJqIU8ZfKOf7yi40U+eOifTBwucrf8eoLgbGASGFuAkwKFrIM/2fbnfiQpfH82EQFYBt3/f7MoPEGJCYFABOgCD8qfa+IeU7VNSZUyyCMwvsJ9evkDxo/nf5lUE+hHgEEA/ztm38nIB/Ft2BPJHYJbAL/T33opLUEFgKAE6AEPJ59nu7krVx/3XypMymSIwloCfHuinX9451tzMhEDLAhwCaBmU1T1IYF39z8f9t8AFAQRWEni4XtlUcdxK7/ACAj0I0AHoATnxJj6s3J+cOH9SR2AxAV8WyJ0CF1Pi/U4EOATQCSsrlcAxig8igQACiwrcqjn2Vfx40TmZAYEWBegAtIjJqn4t8Bj95QegrIkJAgiMJXC+5vLVAXeMNTczIdCCAIcAWkBkFQ8SWE3/O0GxFS4IIDC2wGaa0zfI8meHCYFeBHgWQC/MqTby58p2j1QZkywC7Qj4+RgePWNCoBcBDgH0wpxmI/7V7+OYPvufCQEEmgucpkUOVNzffFGWQKCZAIcAmnkx98ICvtnPXgvPwrsIILCAwDZ6b6niBwvMw1sItCLACEArjKxEAk9VcPySpoDA9ALXaRU7K26eflWsAYHRAowAjLbhnfEFHqpZfTOTjcdfhDkRQGCEgB+ctb7iyyPe52UEWhHgJMBWGNOv5I0S2Cm9AgAItCfwSq3KzwpgQqAzAQ4BdEabZsU7KFM/2Yxr/tNUOYn2JOBnaPhZAct72h6bSSbAIYBkFd5Buv+hde7WwXpZJQLZBXxVzTWKc7JDkH83AowAdOOaZa1HKtHPZUmWPBEYQOBGbXMXxfUDbJtNVi7ACEDlFdxheqtr3T7xb4MOt8GqEcgu4Mdo+74aX8kOQf7tC3ASYPumWdb4YiW6XZZkyROBAQX+QNv2o4OZEGhVgBGAVjnTrMwdx/9SbJImYxJFYDgBP1/DdwY8cbgisOUaBTgHoMZa7T6no7SJT3e/GbaAAAIrBPzIYN8l8CZEEGhLgBGAtiRzrcdn/m+RK2WyRWBQgTW09dsVpw5aCjZelQAjAFVVZy/JHK6tfLWXLbERBBCYLeArAjwKcBssCLQhwAhAG4q51vFhpbttrpTJFoEiBHxFwA2KM4soDYUIL8AIQPgq7DWB39LWvtXrFtkYAgjMFrha//HdN++CBYFpBRgBmFYw1/IfULrc8z9XnZNtWQLrqThXKLg7YFn1ErI0jACErLZBCr2Xtvq9QbbMRhFAYLbApfqPHxd8HywITCPAjYCm0cu17P/OlS7ZIlCsgA8BPL/Y0lGwMAKMAISpqkEL6ruQXangkNGg1cDGEfi1wBn66wA8EJhGgBGAafTyLOtfG+z889Q3mZYvsL+KuH35xaSEJQvQASi5dsop24vKKQolQQCBFQJ8LmkKUwlwCGAqvhQL76gsL06RKUkiEEvgQhX3UbGKTGlLEmAEoKTaKLMs/Moos14oFQK7icBX5zAhMJEAHYCJ2FItRAcgVXWTbDABP5abCYGJBDgEMBFbmoX2VqZnp8mWRBGIJ+A7A26tWB6v6JR4aAFGAIaugbK3z6//suuH0iGwpQgOgQGBSQToAEyilmMZt40X5EiVLBEILcBhgNDVN1zhOQQwnH3pW36yCnhS6YWkfAggsOQWGfhmXXdigUATAUYAmmjlmpfh/1z1TbZxBdZX0Y+IW3xKPpQAHYCh5MverkeGnlN2ESkdAgjMEjgSDQSaCtABaCqWY/5HK81NcqRKlghUIXBQFVmQRK8CdAB65Q6zsQPDlJSCIoCABbZS7AAFAk0E6AA00cozL78m8tQ1mdYjwOe2nrrsJRM6AL0wh9sIIwDhqowCI7CEDgCNoJEAHYBGXClm3llZ+pIiJgQQiCVAxz1WfQ1eWjoAg1dBcQXgV0RxVUKBEBhLYHvN5dsCMyEwlgAdgLGYUs3Er4hU1U2ylQnw+a2sQrtMhw5Al7ox180IQMx6o9QIWIDPL+1gbAE6AGNTpZiRIcQU1UySFQvQAai4cttOjQ5A26Kx18fwYez6o/QIcBIvbWBsAToAY1OlmJEOQIpqJsnKBZ5UeX6k15IAHYCWICtZzR6V5EEaCGQW2D1z8uQ+vgAdgPGtMsy5Y4YkyRGBygX4HFdewW2lRwegLcn469lYKWwYPw0yQCC9AB2A9E1gPAA6AOM5ZZiLL40MtUyOGQT4LGeo5RZypAPQAmIlq9ipkjxIA4HsAhsJgNG87K1gjPzpAIyBlGQWOgBJKpo0UwgwCpCimqdLkg7AdH41Lc0XRk21SS7ZBfg8Z28BY+RPB2AMpCSzMAKQpKJJM4UAHYAU1TxdknQApvOraWm+MGqqTXLJLsDnOXsLGCN/OgBjICWYhUsAE1QyKaYSeGSqbEl2IgE6ABOxVbcQvxaqq1ISSi7AZzp5AxgnfToA4yjVPw/H/+uvYzLMJbC50l03V8pk21SADkBTsTrn9yEAJgQQqEtgk7rSIZu2BegAtC0ac338UohZb5QagYUE+FwvpMN7S+gA0AgssA4MCCBQnQAdgOqqtN2E6AC06xl1bXxRRK05yo3AaAE+16NteEcCdABoBhbgi4J2gEB9AuvVlxIZtSlAB6BNzbjr4hBA3Lqj5AiMEqBjP0qG1x8QoANAQ7AAXxS0AwTqE+BzXV+dtpoRHYBWOcOujBGAsFVHwREYKUAHYCQNb1iADgDtwAJ8UdAOEKhPgM91fXXaakZ0AFrlDLsyRgDCVh0FR2CkAB2AkTS8YQE6ALQDC/BFQTtAoD4BPtf11WmrGdEBaJUz7MoYAQhbdRQcgZECXAY4koY3LEAHgHZggTVgQACB6gT4XFdXpe0mRAegXc+oa7s9asEpNwIIjBS4beQ7vIGABOgA0AwscCsMCCBQnQCf6+qqtN2E6AC06xl1bfxSiFpzlBuB0QJ0AEbb8I4E6ADQDCzAFwXtAIH6BPhc11enrWZEB6BVzrArYwQgbNVRcARGCvxy5Du8gYAE6ADQDCzALwXaAQL1CfC5rq9OW82IDkCrnGFXxghA2Kqj4AiMFKADMJKGNyxAB4B2YAG+KGgHCNQnwOe6vjptNSM6AK1yhl0ZIwBhq46CIzBSgA7ASBresAAdANqBBfiioB0gUJ8An+v66rTVjOgAtMoZdmWMAIStOgqOwEgBrgIYScMbFqADQDuwAL8UaAcI1CfA57q+Om01IzoArXKGXdkVYUtOwRFAYD6Be/XitfO9wWsIzAjQAaAtWOASGBBAoCqBZcrGnQAmBEYK0AEYSZPqjUuV7fJUGZMsAnUL0Kmvu35byY4OQCuM4VdypzK4MnwWJIAAAjMCdABoC4sK0AFYlCjNDHxhpKlqEk0g8NMEOZLilAJ0AKYErGjxiyvKhVQQyC5Ahz57CxgjfzoAYyAlmYUvjCQVTZopBPg8p6jm6ZKkAzCdX01LMwJQU22SS2YBn9C7NDMAuY8nQAdgPKcMc/GLIUMtk2MGAd/X464MiZLjdAJ0AKbzq2lpnzR0f00JkQsCSQU4ATBpxTdNmw5AU7F65+dSwHrrlsxyCTCal6u+J86WDsDEdFUuyHkAVVYrSSUToAOQrMInTZcOwKRydS733TrTIisEUgnwOU5V3ZMnSwdgcrsalzy1xqTICYFEAncr128nypdUpxCgAzAFXoWLnq6c7qswL1JCIIvAd5Soz+dhQmBRAToAixKlmuEXyvbcVBmTLAJ1CTCKV1d9dpoNHYBOeUOunC+QkNVGoRF4QIDPLw1hbAE6AGNTpZmRL5A0VU2ilQncq3zOqCwn0ulQgA5Ah7hBV/0tlZsbAgWtPIqdWuBsZX9bagGSbyRAB6ARV4qZb1KW56XIlCQRqEvgm3WlQzZdC9AB6Fo45vo5DBCz3ih1bgE+t7nrv3H2dAAak6VYgC+SFNVMkhUJ+PLd0yrKh1R6EKAD0ANywE0wlBiw0ihyagFfvuvLeJkQGFuADsDYVKlmvE7Zch5Aqion2eACJwcvP8UfQIAOwADoQTb5ySDlpJgIILBkCZ9XWkFjgVUaL8ECWQS2V6KXZkmWPBEILHChyv6owOWn6AMJMAIwEHyAzS5VGc8MUE6KiEB2gf/MDkD+kwnQAZjMLctSfLFkqWnyjCzwiciFp+zDCXAIYDj7CFveVIW8WrFahMJSRgQSCvjWvwckzJuUWxBgBKAFxIpX4asBvl5xfqSGQHQBRumi1+CA5acDMCB+kE3zBROkoihmOgE//Oe/02VNwq0J0AFojbLaFX1Bmd1ebXYkhkBcgRNU9OvjFp+SDy1AB2DoGih/+7eqiF8sv5iUEIF0AozOpavydhOmA9CuZ61r4yzjWmuWvKIKuGP+P1ELT7nLEKADUEY9lF6K41VAhhpLryXKl0ngc0qWQ3OZaryDXFftYJ2ssj6B5UppTcUh9aVGRgiEE7hfJT5acW24klPgogS4D0BR1VF0YTZQ6S5XrFd0KSkcAvULHKcUn1V/mmTYtQAjAF0L17P+O5WKOwHcdKSeOiWTmAIvVbGvjFl0Sl2SACMAJdVG+WXZXEVcpvDhACYEEOhf4BRtkkNx/btXuUVGAKqs1s6Suk1r3lKxb2dbYMUIILCQwCv0Jk/pXEiI98YWYARgbCpmXCGwrf69RMHzAWgSCPQr8F1tbr9+N8nWahbgMsCaa7eb3C7TarkvQDe2rBWBhQTetdCbvIdAUwFGAJqKMb8FdlNcoKD90B4Q6EfgR9rM7gpfAsiEQCsCjAC0wphuJRcq48+ny5qEERhO4O+0aXb+w/lXuWV+wVVZrb0ktbe2cnYvW2IjCOQWWKr0d1b46X9MCLQmwAhAa5TpVnSOMuYhQemqnYQHEHintsnOfwD42jfJCEDtNdxtfttp9T42uVa3m2HtCKQVOFOZ++ZbDP+nbQLdJc59ALqzzbDmm1ck+eQMyZIjAj0L3KftPUfxs563y+aSCHAIIElFd5jme7TuizpcP6tGIKvAsUr83KzJk3f3AhwC6N44wxYOVZJfz5AoOSLQk4B/9e+quKWn7bGZhAIcAkhY6R2k7LOU/WXl65SZEEBgeoE/0ip85z8mBDoTYASgM9p0K95CGftQAI8LTlf1JNyywKla38Etr5PVIbCSACMAK5HwwoQCt2q5OxSHT7g8iyGAwJIl9wjhWYrrwECgawFOAuxaONf6/0Xp/iBXymSLQKsC79PafGktEwKdC3AIoHPidBvYXxmfpqBtpat6Ep5S4Eot7+dseDSNCYHOBTgE0Dlxug1coYx9PsA+6TInYQSmEzhai/9wulWwNALjC/ArbXwr5hxfYG3NepaCqwLGN2PO3AK+5v9VuQnIvm8BOgB9i+fZnocyfRnTOnlSJlMEJhLwczV86OzuiZZmIQQmFOAQwIRwLLaowPWaw8c0j1x0TmZAIK+Ab6f9FMUNeQnIfCgBOgBDyefYrq8I2FaxV450yRKBxgIv1BLfbrwUCyDQggCHAFpAZBULCnA+wII8vJlY4B+V+2sS50/qAwvQARi4ApJsnvMBklQ0aY4t4F/9Byp84x8mBAYR4BDAIOzpNsr5AOmqnIQXELhR7/m4/00LzMNbCHQuQAegc2I2sEKA8wFoCggsWXK/EH5XcTYYCAwtwK2Ah66BXNv3dc7n50qZbBF4kMB79L8vY4JACQKcA1BCLeQqw85K9wzFxrnSJlsElpwggyMU92KBQAkCdABKqIV8ZdhPKZ+s4CZB+eo+a8bfUeJPVtyWFYC8yxPgEEB5dZKhRP4yfJ6CM6Az1DY5XiSCZyrY+dMWihLgJMCiqiNVYX6qbH+icEeAkahUVZ8q2auU7SGKa1JlTbIhBOgAhKimagt5gTLzLVCfUW2GJJZZwJf5Haq4ODMCuZcrQAeg3LrJUjI/MMiHog7KkjB5phC4Q1k+XeEH/TAhUKQAHYAiqyVdoU5Rxpsr9k2XOQnXKHCfkjpK8fUakyOnegToANRTl9Ez+aoSeJTi0dETofzpBY6RwKfSKwCAAAIINBBYQ/OeqPDd0ggMIraBNzVo78yKAAIIIDBLYF39fboi4pc/Zc5db+/mk4wAAgggMJ2AHyHs26WyQ8UgShvgl/90n3mWRgABBH4tsJr++nc6AXSCCm8Dvq3vy/ncIhBRgJMAI9ZajjIvV5pfUPiQwP45UibLYAJ3qry/o/hksHJTXAQeEKADQEMoXeBrKqCvqT6s9IJSvlQCNytb38DKJ60yIRBSgA5AyGpLV2ifFHiZwk9S4/kV6aq/uIR9W9+nKHwTKyYEwgpwD/awVZey4M9S1r6+eq2U2ZN0CQK+re/TFEtLKAxlQGAaAToA0+ix7BACv6WNfkmxwRAbZ5upBb6n7H1735+nViD5agQYTq2mKtMkcpoyPVBxdZqMSbQEgZNViIMV7PxLqA3K0IoAHYBWGFlJzwLnaXv7KE7pebtsLp+A70PwD4rDFb/Mlz4ZI4AAAmUK+CTWdyr88JUoN4yhnHHqyo+q9nknTAgggAAChQo8VeXy0Cw7VwzaagNnqD1tU2h7p1gIIIAAArMEttTfpyra2gGwnpyWvgHVexWr8+lCAAEEEIgj4EMCf6Pwlzg7cAyatgGG/ON81ikpAgggMK+AT9i6jk4AnaAGbYAh/3k/SryIAAIIxBPYSkX+VoMdQNNfi8xfxwgDQ/7xPtuUGAEEEFhUwE8U/EvF7Qp22BjMbQM/VbvwXf2YEEAAAQQqFdhOeX1RMXcHwP9zmvgpfu9QrFlpeyctBBBAAIE5Ar6me6mCHX9eg+NV/zvyyUAAAQQQyCfgBwn5SoG7FHQE8hhcofo+Kl9zJ2MEEEAAgbkCu+iFryvoBNRtcI/q2Nf1rzu3AfB/BBBAAIHcAi9Q+n6wEB2B+gy+qXrdPXfzJnsEEEAAgYUEHqY3363ww17oCMQ3uFj1+BIFjztfqNXzHgIIIIDArwU21F9vU/iOcHQE4hn8QPXmER3fEZIJAQQQQACBxgLraInXKq5S0BEo38B38TtCwS/+xk2dBRBAAAEE5hN4qF58pcI3jKEjUJ7BiaqXQ+arOF5DAAEEEECgDQEPKb9YcZ6CjsCwBr517+cV+7ZRsawDAQQQQACBcQQ8xPwcxdcU9yroDPRncIu8P6R41DgVxTwIIIAAAgh0JfBwrfh/Kb6roCPQjYFv1uRf+76BD7ft7aols14EEEAAgYkFfFOhv1ZcoqAzMJ2Bh/hPURyj8FUZTAgggAACCIQQeIJK+S+KnyvoDIxv4Ev43qDYOkQtU0gEKhDgspkKKpEUihTwo4gPUxypOEixc5GlHK5QvkXv2YqTFZ9UnD9cUdgyAjkF6ADkrHey7l9gc23ywFnhW9Q+pP9iDLZFH88/S+Hb856q8LX7tw9WGjaMAALcOIM2gMBAAj6+fYBiplOwt/72qEEtk3fu31Z4Z+/wzv/OWpIjDwRqEGAEoIZaJIcaBHz3wScq9lD4efU7rfh3G/1b8q1tPZS/VOGbJfkkSIeH9n11hN9jQgCBQgXoABRaMRQLgRUCa+jf7RWzOwUznYNt9XofnYM7tJ1LFd65z97R+/+XK+5TMCGAQDABOgDBKoziIjBLYHX9vZHCowd+3v3cf+d7zR0KD8/fprh1jH89z40KX9HAhAACFQnQAaioMgdIZRNt079ON1bM3vnM3RH5/76Ry3WKKxVXKDxs7GPEvqMeEwIZBfz9+ziFrxB5hMKXQPoGUz50MtM5G9VR850R/Rn6mYLOmRCYmgvQAWhulmkJPwzHO3jHDnPCr603JYYfu+s7vX1GcZKCzsCUoCxevIC/c/dX+O6Gv62Y9r4HPjyzTOFDNHPDHQR3IJgQQACBRQV8wtkLFe9XfF/hY7v+ddFHuDPwTgV3fxMCU3UCaymj1yg8AtbH58nbWK64UPEhxcsUPneECQEEEHjg5LG9FK9W+EYsHpbv64tpoe14aNO31d2AOkKgAgEf+vpzxTWFfL58h0qPur1O4atOfE4IEwIIJBDwkL6fZvcJxS8UC+2Ih37vZpXv7YqHJagXUqxPwCdovkpxlWLoz9JC2/chhC8qfk/BZ62+dkhGyQX8RfR0xccU3qku9GVQ4ntXq8zPT16HpB9L4GAV90cBP2u+UdMXFC9STHt+T6wao7QIVCTg4f2nKP6fwsfWS9yxNy3TCcrD18IzIVCqwGYq2McVTdt2ifN7ZOBzihcofDkpEwIIFC7gE+jepOjzRKM+v7z8pfRWhQ9lMCFQioCf6fDHipsUfX4e+trWL5XX+xS+8ocJAQQKE/AvY5+572uH+/pSGHI7FynPQwurA4qTU8DX8X8nyefOl+l+WuFHXjMhgMDAAgdp+z5m1+flekPu+Odu+yPK3XfCY0KgbwFf1vf3Cu8U57bLDP8/XXn7PgaZnmjZdxtjewisJOAbifi43DmKDF80i+XoO6H9zkpKvIBAdwKHaNV+DsJibTPD+342hK924HLC7toba0bgAQE/PjbLcGPTL0+PhGxFO0GgQwHfm8In1jZtmxnmv1guR3Zoz6oRSCuwnTL/FF88i37x+jLHVyo8SsKEQJsCz9XKfElqhp35NDmeIiPfYIwJAQSmFPC1uO9S+PrcaT6U2ZY9RV7c9nTKxsfiDwj44Tw+8S3bZ2iafH1O0ocVW9CGEECguYBPrHmF4lrFNB/EzMv6kkFfErlac36WQOABAd8/f+ZRyJk/S5Pm7quS3qLwCZNMCCAwhoCvtT1NMemHjuUebOeHGvlSLSYExhXwZ/BEBZ+ldgx82e6+4+IzHwJZBfyLo/R79Ef8UvSlWu9W8Esk6ydrvLw98vYXCj9CN2I7L7nM98j0rxS+SykTAgjMEthEf/u2myV/gGsom89UPpiWh8A8AnvotbP4DHb+HXSmjLml9zwNkJdyCjxDaZfyqNAadvKL5eBnpH9+uboaAAAaw0lEQVRQsX7O5kbWcwR8/bofP323YrG2w/vtGPncgGNoiQhkFvBzwv8vXzqDfen6Ma2+tIspr8D+Sj3iU/tq6Yj4McQe/WRCIJXApsrWQ2G1fJAj5+FLvHypF1MeAT/d7p8VWW+hXdLn1XcS3DVP0yPT7AJu7JcqSvoQZi+LL/V6efaGmST/w5XnZXz+ivr+8efv4CTtjzQTC/ge4lxXXG7n52TVz+6J22fNqT9CyX1Ckb2zW2r+d6lufr/mBkhuuQWOVvqcaFT+F7AvGTxWsXHu5lpN9r70860KLu0r/7Pnzsk7qml5JILACgGfZVxqz5tyzV83Hql5tYI7Ccb9GP+uis5w//ztu+TP/cdVbzxdMO7njpKvEFhF//L0sHhfQLO/HC9QHT5P4bpkiiFwkIr5TUXJOznKtnD9+E6MvlKKCYGwAu/nS6iaL2FfLuZjlIwIlPtxfKaKdjqfuWo+c19WXTISUO7njZItIPBevoiq+SKa/Wttqer1jxX8Olmg8ff4lm/f66F+P/OBX9X1GXxW9Uqnu8cPFJuaXuD/8GVU/Zex7974l4qtpm8urGECgQ21zJ8o/KAZdvx1G/yn6tgdPSYEihfw4y/5Qspj4JvJHK94voJRgW4/nn6QjK/j/5TiTj5nqb5nPqT65jycbj9frH1KgdfxpZTqS2luR+8m1b9v77zflO2IxR8ssIv++y6Fb98815z/5zHxOVVMCBQp8EK+nPhyntUGfPXA6xVbFNlayy+UH9b0CgW3zM6zgx+nM/em8psuJcwmsK8Svl0xTgNmnlxOvrHQcYqjFJzRvPA3g4/zHqbwMV8+T7k+J+N+L/qQ27MXbka8O64Ax1TGlRo935Z667sK/8uEwEICvrmQb0f7UcU5C82Y7L2dlO/RCl9muXWy3Em3uYAfJ/xExfnNF2WJ2QJ0AKZrDz7pyzcc8QgAEwJNBHxfAV/n7BMIT1P4NtFZJv/S92fGJ/Q9XfH4LImTZ2sCS7Umn2tzfWtrTLgiOgDTVbp/zfnYPxMC0wjcpoW/oXBnwOFHpNY2+VyIpym80/cw/0a1JUg+vQv4x9dTFPf0vuVKNkgHYPKK9DXgfzP54iyJwEiBS/TOCYozFGcrLlb4GGmkaRsVdh/FExRPVewZqfCUNYyAb7Xuk0WZJhCgAzABmhbxr5ivKPCbzI+lmgncotl9zoDPNXGHwLGs2So6ndu/7r2znx2bdbpFVo7AbwReqT8/CEhzAXZgzc021SLnKTZvvihLINCagI99+jyCy+aJy/Wab5TT1uSrF3xynn/VbzsndtX/OQG2LWnWM4mArxjZW/HjSRbOvAwdgOa1/yUtckTzxVgCgV4Ffq6t+cY5Pr/A4S/JuX/fodd8IuvainVm/Tvz97p67eErgluxCoKpWAE/C8KHmzKdTDt1ZdABaEboe48f22wR5kYAAQQQ6EHgPdrGG3rYTjWboAMwflU+SrP62Ota4y/CnAgggAACPQn4RFlfYXJST9sLvxk6AONV4UM121kKzmQez4u5EEAAgSEEfNjrMQrfdItpEQGO6y0CtOJtP4iEnf94VsyFAAIIDCXgx3P70kCmMQT8eE2mhQUO0Nu+xITRkoWdeBcBBBAoQWA3FcL3zvDVWkwLCLBTWwBHb62m+J5ij4Vn410EEEAAgYIErlVZ/Bhp30ODaYQAhwBGwKx4+c/0Lzv/hY14FwEEEChNwPdp+dvSClVaeRgBGF0jPpbkG0v4WmgmBBBAAIFYAstVXN8bwHfQZJpHgBGAeVBWvPQ+/cvOf7QP7yCAAAIlC3j/9gEF57qNqCVg5ofxU8sYPprfhlcRQACBKAJ+ToVvm/2dKAXus5wcAlhZ29f8n6/YceW3eAUBBBBAIJjAL1ReP7PimmDl7ry4HAJYmfj1eomd/8ouvIIAAghEFHiYCu3bBDPNEWAE4MEgG+i/yxTr01IQQAABBKoR8AmBvkPgBdVk1EIijAA8GPE1+i87/xYaFqtAAAEEChLwvu5tBZWniKIwAvCbathQfy5TeLiICQEEEECgLgE/LMijAD7Hi0kCjAD8phm8Vn+y8+djgQACCNQp4B+8b68ztcmyYgTgV24b6Z9livUmY2QpBBBAAIEAAh4FeKzihwHK2nkRGQH4FfHr9A87/86bGxtAAAEEBhVgFGAWPyMAS5ZsIo+lCu76N+jnko0jgAACvQh4FOBxinN72VrBG2EEYMkS//pn519wI6VoCCCAQIsCjAKswMw+ArCpHPzrf50WGxerQgABBBAoX2BvFdGPe087ZR8B8F3/2Pmnbf4kjgACiQXenjj3B1LPPAKwmfL3r/+1szcC8kcAAQSSCuyrvM9Omnvq+wC8QZXOzj9ryydvBBBAIPl9AbKOAGyulu9f/2vxCUAAAQQQSC3weGWf8nHBWc8BeCM7/9QfeJJHAAEEZgTenpUi4wiAr/u/XMGv/6ytnrwRQACBBwvso/+ekw0l4wjAi1XJ7PyztXTyRQABBEYL/OHot+p9J+MIgO/+tGe9VUpmCCCAAAINBW7W/Fso7my4XOjZs40A7KXaYucfuslSeAQQQKB1gQ20xiNbX2vhK8zWAXhZ4fVB8RBAAAEEhhF4+TCbHW6rmQ4BrCHmqxUbD8fNlhFAAAEEChVYrnJtr/BJ4immTCMAz1aNsvNP0axJEgEEEGgs4P3h0Y2XCrxApg4Aw/+BGypFRwABBHoQeKm2kWZkPEuiW6pSPayzag8NiE0ggAACCMQVOERFPyVu8ccveZYRgN8XCTv/8dsFcyKAAAJZBdKMFmcZAfixWvIuWVszeSOAAAIIjC1wu+Z8uOKXYy8RdMYMIwD7q27Y+QdtoBQbAQQQ6FnAT4l9fs/bHGRzGToAaYZzBmlBbBQBBBCoTyDFfqP2QwDuyf1MsV597ZOMEEAAAQQ6FNhV676ow/UPvuraRwB+W8Ls/AdvZhQAAQQQCCdQ/ShA7SMAJ6vJ+ZIOJgQQQAABBJoIXKOZt1bc12ShSPPW3AHYSBVxnaL2UY5I7Y2yIoAAApEEfBL5mZEK3KSsNe8cDxNEzfk1qWfmRQABBBBoLnB480XiLFHzDrLqiovTxCgpAgggEFag6v1IzYcA/OS/LcI2OwqOAAIIIDC0gJ8QuJnihqEL0sX2ax0B2FNY7Py7aDGsEwEEEMgj4H3kU2tNt9YOQNXDNrU2RvJCAAEEChR4WoFlaqVIdABaYWQlCCCAAAKVCrgDUOXh8hqT8o1/fLxm9UobI2khgAACCPQrsJc2d26/m+x+azWOADxZbOz8u287bAEBBBDIIlDlYeUaOwBVVlSWTxl5IoAAAgUKVLlfqfEQwFI1nu0KbEAUCQEEEEAgpsA9KvbGil/GLP78pa5tBGAXpbnd/KnyKgIIIIAAAhMJ+LDyoRMtWfBCtXUAqhymKbj9UDQEEEAgi0B1+xc6AFmaLnkigAACCEwjUF0HoKZzANZUzd6oWGuaGmZZBBBAAAEERgjsptd/POK9cC/XNALwJOmz8w/XBCkwAgggEEbAT5mtZqqpA/CEamqFRBBAAAEEShSoaj9TUwdgvxJbC2VCAAEEEKhGoKr9TE3nAPxMTWzzapoZiSCAAAIIlCiwkQp1U4kFa1qmWkYAtlHi7Pyb1j7zI4AAAgg0Fdi36QKlzl9LB6CqYZlSGwvlQgABBBBYUs3+hg4ArRkBBBBAAIHxBegAjG/Vy5zVDMn0osVGEEAAAQQmFahmf1PDSYAexbhZsd6ktclyCCCAAAIINBDweWdXNJi/yFlrOATgOzOx8y+yeVEoBBBAoEqBKg4D1NABqGY4psqPCUkhgAAC9QlUsd+poQNQRU+svs8HGSGAAALVClSx36EDUG37JDEEEEAAgY4E9tZ6w+8/oyfwUFXCYzqqYFaLAAIIIIDAfAIP04u7zPdGpNeidwAeK+zVI4FTVgQQQACBKgTCHwaI3gEIXwFVfAxIAgEEEMgnEH7/E70DUMWZmPk+N2SMAAIIhBcIv/+J3gHwiRhMCCCAAAII9C2wpza4Wt8bbXN7kTsAqwpixzYxWBcCCCCAAAJjCqyh+bYfc94iZ4vcAdhBoq4AJgQQQAABBIYQ2HWIjba1zcgdgNDwbVUg60EAAQQQGEwg9H4ocgcg/DWYgzVZNowAAggg0IZA6P1Q5A5A6J5XGy2PdSCAAAIIDCoQej9EB2DQtsPGEUAAAQQCC9ABGKjyQg+9DGTGZhFAAAEE2hPYWKtyhJyijgAYfJOQ4hQaAQQQQKAmgbCjAFE7APz6r+njQy4IIIBAXIGw+6OoHYCwPa64bZySI4AAAgjMIxB2f0QHYJ7a5CUEEEAAAQTGFKADMCZUW7OFHXJpC4D1IIAAAggUIRB2f8QIQBHth0IggAACCAQV2EHlXj1i2SN2AAxtcCYEEEAAAQSGFvATAUM+mC5iB+CRwg79CMahWyvbRwABBBBoVSDkYYCIHYCwJ1y02txYGQIIIIBAKQIh90sROwAM/5fS5CkHAggggIAFQu6XInYAtqC9IYAAAgggUJDAlgWVZeyiROwAhIQeu0aYEQEEEEAgmkDIH6Z0AKI1M8qLAAIIIFCaQMgfphE7ACF7WqW1VsqDAAIIINCawGZa06qtra2nFUXsAITsafVUn2wGAQQQQKB/Ae9LN+9/s9NtMVoHYF2lu950KbM0AggggAACrQuE+3EarQPA8H/rbZYVIoAAAgi0IBBu/xStAxCuh9VCo2IVCCCAAALlC4TbP0XrAITrYZXfZikhAggggEALAuH2T9E6AOF6WC00KlaBAAIIIFC+QLj9U7QOQLgeVvltlhIigAACCLQgQAegBcSFVhEOeKFkeA8BBBBAoBqBcD9Qo40A0AGo5rNCIggggEBVAuH2T9E6AOF6WFU1b5JBAAEEEBglEO5ugHQARlUlryOAAAIIIDC+gPen7gSEmSJ1AHyf5YeFkaWgCCCAAALZBDaMlHCkDoBvA8yEAAIIIIBAqQKhblUfqQPAr/9SmzzlQgABBBCwQKj9VKQOQKieFZ8FBBBAAIF0AqH2U5E6AKF6VumaPQkjgAACCITaT0XqAITqWfE5QAABBBBIJxBqP0UHIF37JGEEEEAAgY4E6AB0BBtqaKUjA1aLAAIIIFCuQKj9FCMA5TYkSoYAAgggEEuAEYCO6isUbEcGrBYBBBBAoFwBRgA6qptQsB0ZsFoEEEAAgXIFQv1Q5RBAuQ2JkiGAAAIIxBII9UM1UgcgFGysNktpEUAAAQRaEGAEoAXE+VYRCna+BHgNAQQQQKBqgVD7qUgjAKFgq27iJIcAAgggMJ9AqP1UpA7AGvNp8xoCCCCAAAKFCITaT0XqAKxWSAVTDAQQQAABBOYTCLWfogMwXxXyGgIIIIAAAs0FVm++yHBLROoAhIIdrkrZMgIIIIDAQAKMAHQEHwq2IwNWiwACCCBQrkCo/VSkEYBQsOW2T0qGAAIIINCRwKodrbeT1dIB6ISVlSKAAAIIJBUI82OVDkDSFkraCCCAAAKdCNAB6ICVkwA7QGWVCCCAAAKtCoTZVzEC0Gq9szIEEEAAgeQCjAB00ADCoHaQO6tEAAEEEIghEGZfxQhAjAZFKRFAAAEEYgjQAeignsKgdpA7q0QAAQQQiCEQZl/FCECMBkUpEUAAAQRiCNAB6KCewpxZ2UHurBIBBBBAIIZAmH1VpBGAe2PUPaVEAAEEEEgsEGZfFakDcFviBkXqCCCAAAIxBG6PUcwlS+gARKkpyokAAgggEEGADkAHtRQGtYPcWSUCCCCAQAyBO2IUkxGAKPVEORFAAAEEyhfw8f97yi/mr0rIIYAoNUU5EUAAAQRKFwg1Uh2pAxAKtvRWSvkQQAABBFoXCLWfitQB4CqA1tsqK0QAAQQQaFGADkCLmLNXRQegI1hWiwACCCDQigAdgFYYV14JHYCVTXgFAQQQQKAcAToAHdXFVR2tl9UigAACCCDQhsCVbaykr3VEOgdgaV8obAcBBBBAAIEJBELtpyJ1AJZNUBksggACCCCAQF8Cl/a1oTa2E6kDEKpn1UblsA4EEEAAgVACofZTkToAV6sZ3B2qKVBYBBBAAIFMAowAdFTby7XeyztaN6tFAAEEEEBgGoH7tfCyaVbQ97KRRgBsE2p4pe/KZHsIIIAAAoMJeJT6rsG2PsGG6QBMgMYiCCCAAAIIzBEI9wM1WgdgGU0OAQQQQACBAgVCHf+3X7QOwPkFVjpFQgABBBBAINz+KVoH4EzaGAIIIIAAAgUKhNs/rVIg4mJF+olm2GmxmXgfAQQQQACBngTu0XYeprizp+21sploIwBOOlwvq5WaYiUIIIAAAqUKfF8FC7XzNyQdgFKbE+VCAAEEEIgiEPKHKR2AKM2LciKAAAIIlCoQsgMQ8RyAVdUCblasW2pLoFwIIIAAAqkEtlW2l0fLOOIIwH1CPisaNOVFAAEEEKhS4CplFW7n75qI2AFwuUMOt1TZ9EkKAQQQyC0Qdn8UtQNwXO72RvYIIIAAAoUIhN0fRTwHYKbOL9Mf2xTSACgGAggggEA+AT+ifnOFz0sLN0UdATD0p8NpU2AEEEAAgZoETlQyIXf+roTIHYD/rqkVkQsCCCCAQDiB0PuhyIcA3FKWKXz5BRMCCCCAAAJ9Cnj4fzPFLX1utM1tRR4BsAOHAdpsDawLAQQQQGBcga9pxrA7fycZvQMQevhl3FbGfAgggAACxQmE3/9EPwTgFrFUsV1xTYMCIYAAAgjUKhB++N8VE30EwDl8tNYWRl4IIIAAAkUKfE6lCj38b9UaRgA2UR6+DeNaRTYTCoUAAgggUJvAPkronOhJ1TACcL0q4SPRK4LyI4AAAgiEEPiGShl+52/pGkYAnMcjFT9R1NChCfEJoJAIIIBAUoFnKO+v1pB7LTvMn6oyPltDhZADAggggECxAuerZMcXW7qGBaulA+C039Mwd2ZHAAEEEECgicA/aOb7myxQ8ry1HAKYMT5FfxxUMjhlQwABBBAIKXC1Sr29wpcAVjHVNALgCmEUoIpmSRIIIIBAcQL/pBJVs/O3bm0jAM7pVMWBxTUdCoQAAgggEFXgShV8V8VtUROYr9y1jQA4x1cr7psvWV5DAAEEEEBgAoHXaZmqdv42WHUCiNIXuVYF9M2BHl96QSkfAggggEDxAqeohK8vvpQTFLDGQwBm2EDh+wJsOoEJiyCAAAIIIGCBexV7KXz5X3VTjYcAXEk3K95UXW2REAIIIIBAnwLHamNV7vyNWOsIwExuZ+oPDgX0+XFhWwgggEAdAj9XGjsrwj/0Z1R11DoC4Hx9s4ZXKZaPSp7XEUAAAQQQGCHgUeRqd/7OucaTAGfXpW/c4PMBnjiignkZAQQQQACBuQIn6YXXzn2xtv/XfAhgpq5W1x+nKfarrfLIBwEEEECgdYFrtEaf+Ocryqqeaj4EMFNx9+iP5yt8YiATAggggAACowR8D5kXKarf+RsgQwfAeS5TvNR/MCGAAAIIIDBC4G16/ZQR71X3cu3nAMyusIv0n/UVnA9QXTMmIQQQQGBqAT/m94+mXkugFWQ4B2B2dfh8gG8puDQwUCOlqAgggEDHAr7Xv4/7X9/xdopafZZDADPoM+cD3FRULVAYBBBAAIGhBHy3vxcoUu38jZ2tA+CcL1McqbjD/2FCAAEEEEgr4PvFHKM4PaNAxg6A69mPDD5K4REBJgQQQACBnAJ/prQ/mjP1nCMAM3X9Ff3xYgWPDs7a+skbAQQyC7xZyb8/M0CmqwDmq+cf6UWf/PFsRbYTIufz4DUEEEAgg8C7laQv+Us9Ze8AuPK/r/BNgg5P3RJIHgEEEMgh8K9K8y9ypLpwlnQAfuVzlv7xQ4MOWZiLdxFAAAEEAgv8h8ruk/6YJEAH4DfN4Jv6k04AHwsEEECgToGPKa0/WPE9X2eGDbOiA/BgMHcCLlYcoVitoSWzI4AAAgiUKfBWFes1Ch4PP6t+OPFt/sZ6gF7+gmKT+d/mVQQQQACBAAJ3qYwvV3wiQFl7LyIdgNHkj9RbX1bsMnoW3kEAAQQQKFTgBpXruQo/Dp5pHoGsNwKah2Kll36qV/zgoFNWeocXEEAAAQRKFvCh3Cco2PkvUEucA7AAjt66U+Gho0co/KAIJgQQQACBsgV8p9fDFFeVXczhS8cIwOJ14NsF+xiS7xro+wUwIYAAAgiUJ+Dv6rcoDlXcWF7xyisR5wA0qxOPBHx0RQNrtiRzI4AAAgh0JXCBVvwShW/sxjSmAIcAxoRaMdsv9O/HFX6c8MEKLhVs5sfcCCCAQJsCfprfPyr8OF/f1p2pgQAjAA2w5sy6m/7vu0o9bvJVsCQCCCCAwIQCl2m5lypOmXD59IsxAjB5E7hei35kxeKP17+MBkxuyZIIIIDAuAK+mc+/KY5UXDTuQsy3sgAjACubTPLKNlronYrfU3Bi5SSCLIMAAggsLnC8Znmj4oeLz8ociwnQAVhMqNn7e2r2v1c8tdlizI0AAgggsIDA9/TeGxQnLTAPbzUU4NdqQ7BFZv+B3n+awh2AcxeZl7cRQAABBBYWWKa3PbK6j4Kd/8JWjd9lBKAx2dgL2Nb3DvBDKHYaeylmRAABBBD4mQjeozhW4fv5M3UgQAegA9Q5q7SxRwVepXi6glGX7s3ZAgIIxBQ4Q8V+v+IzCt/Yh6lDAToAHeLOs+od9NqfKl6m2HCe93kJAQQQyCYwc8t17/i5kU+PtU8HoEfsWZtaW3/78IBHBR4zTBHYKgIIIDCowDJt/V8VvqTPT+5j6lmADkDP4PNszlcO+JGVjsfO8z4vIYAAArUI+CmrX1gRHu73Nf1MAwnQARgIfsRmt9Prz1G4M/AkBTdqGgHFywggEEbAl/DN7PTPC1PqBAWlA1BuJW+soh2heKbCz7XeutyiUjIEEEDg1wK+S+p3Fb5pj3f8l2NTpgAdgDLrZb5Sba4X91PsOyvcSWBCAAEEhhK4VRs+R+Ed/kwsHaowbLeZAB2AZl6lze2rCtwh8LkD286KLfQ3lxuWVluUB4G4Aj9X0S+bFefrb+/wL1RwHD9ovdIBCFpxixR7db3vQwazOwX+/3oKX4Gw1op//ffs8OtrKpgQQKA+gbuV0u0r4o5Zf8+85n9vU/ixuh62n9nh+2/Pz1SZwP8HnBwV0jOGZBIAAAAASUVORK5CYII=;" vertex="1" parent="1">
          <mxGeometry x="100" y="340" width="82" height="82" as="geometry" />
        </mxCell>
        <mxCell id="9kofIlFbRkQfjmpeaeeo-2" value="" style="shape=image;verticalLabelPosition=bottom;labelBackgroundColor=default;verticalAlign=top;aspect=fixed;imageAspect=0;image=data:image/png,iVBORw0KGgoAAAANSUhEUgAAAgAAAAIACAYAAAD0eNT6AAAABHNCSVQICAgIfAhkiAAAIABJREFUeF7t3Qe0bVV97/GLFKnSQUCqVAURKSpEioiiYsGQ2GJQEzRFkxf7i8YSX2KMZsQk8uLwGUtMjMYaRQURBKWIgqKAiCD30kW60svl/X54jx7OPfucvfZeZf7n/7vG+I977t6rzP9nzr3X3HO1VZYwIYBANIEtVeAdFTspNlGsq1hnzH/X0Hy3K25T3DrGv57nKsXFiksUtyiYEECgAoFVKsiBFBCoUWD2Tn5mZ+8d/iMV3tkPNV2nDbsjMNMhmP0vnYOhaoXtIjCBAB2ACdBYBIGWBXbV+g5cEXvo36F38pOmd70WdIfgHMU3V8S1k66M5RBAoFsBOgDd+rJ2BOYKPEQv7Kl4kmJmp7/p3Jkq+v9FymWmM+B/L68oN1JBILQAHYDQ1UfhAwisrjLuo5jZ2R+gv9cPUO6uiniZVjy7Q/CTrjbEehFAAAEEEOhbwDv9Zys+pfDJdvcTIw2ukM17FXv1XUlsDwEEEEAAgTYEPJrmYf0PKG5QsNNvbvAjub1ZsX0bFcI6EEAAAQQQ6FLg0Vr53yqWKdjpt2dwujz/ROHLHJkQQAABBBAoQuARKsXrFecq2Ol3a3CPjI9TvFCxdhG1TyEQQAABBNIJ7KuMP69YrmDH37+B7zPwbsXm6VoeCSOAAAIIDCJwiLZ6ooKdfhkGd6gujlVsO0hrYKMIIIAAAlUL+KS+ZynOVLDjL9PAhwc+pvCNlJgQQAABBBCYSmBVLe3jzT9UsOOPYeBDMp9R7D1VzbMwAggggEBKAT8k5xiFb2XLjj+uwfGqP990iQkBBBBAAIFFBY7SHL5FLTv+egxOUn3utmjNMwMCCCCAQEoBP2XPvxjZ8ddpcLfq9u8UXD6Y8uNN0ggggMDKAmvqpXco7lSw86/fwM8feO7KzYBXEEAAAQQyCTxdyfp59uz48xn4hkLcZjjTp51cEUAAAQlsrfisgh1/boPb1Qb+SvFQPhUIIIAAAnUL+Ml8b1DcqmDnj8FMG/BjiA+ru+mTHQIIIJBXYE+lfr6CHT8Go9rAJ9Q+1s/7ESFzBBBAoD6BVygl3zJ21Bc/r2Mz0wZ8Tgg3EarvO4CMEEAgmcC6yte/6tjBY9CkDfiKkD9N9lkhXQQQQKAagccok4sUTb74mRev2W3g02o/HBKo5iuBRBBAIIPAHypJn+HNDh2DadsAhwQyfGOQIwIIhBdYRxl8nB0/HZ+W2wCHBMJ/NZAAAgjULLC7kruw5S/+aX89snxdIxAcEqj5G4TcEEAgpMDRKjVD/nXtbEvtPPmQwGNDfkooNAIIIFCZwFuUT6k7C8pVZ93cojZ3SGWfI9JBAAEEwgisopL+s4KdLAZDtAGfF/C8MJ8WCooAAghUIuBb+v6XYogvfraJ+0wbuFdt8JhKPlOkkVxg1eT5k34MAd/c538Uz4lRXEpZscBDlNuzFPcovlVxnqSWQIAOQIJKDp7iJir/1xQHBs+D4tclcKjS2VBxQl1pkU0mAToAmWo7Xq7bqMjfUPgOf0wIlCbwBBVoR8WXFMtLKxzlQWAxAZ9UxYRAiQKPVqH862qrEgtHmRCYJfBV/X2UwpelMiEQRoAOQJiqSlXQ/ZXtcQoPsTIhEEHgTBXyCMWNEQpLGRGwAB0A2kFpAk9Ugb6uWLu0glEeBBYROFfvH6zwPQOYEChewGe0MiFQioCH/b+sYOdfSo1QjiYCvlugr1ZZs8lCzIvAUAJ0AIaSZ7tzBXzCn4/5M+w/V4b/RxI4SIX1/So4wTpSrSUtK400acUXlrYv9fPZ/tsXVi6Kg8AkArtqoS0VvjqACYFiBegAFFs1aQrmx/n6Ov8902RMohkEHqck11CcnCFZcowpQAcgZr3VUmrf3tfHTLnJTy01Sh6zBZ6k/9ysOAsWBEoUoANQYq3kKJOvQPm44rk50iXLpAJPU94XK85Lmj9pFyzASYAFV07lRfsn5ffCynMkPQTc0f2owh0BJgSKEqADUFR1pCnMm5Xpq9NkS6LZBXyo67OKx2eHIP+yBLgRUFn1kaE0L1GS/54hUXJEYI7ADfr/PoplyCBQggAdgBJqIU8ZfKOf7yi40U+eOifTBwucrf8eoLgbGASGFuAkwKFrIM/2fbnfiQpfH82EQFYBt3/f7MoPEGJCYFABOgCD8qfa+IeU7VNSZUyyCMwvsJ9evkDxo/nf5lUE+hHgEEA/ztm38nIB/Ft2BPJHYJbAL/T33opLUEFgKAE6AEPJ59nu7krVx/3XypMymSIwloCfHuinX9451tzMhEDLAhwCaBmU1T1IYF39z8f9t8AFAQRWEni4XtlUcdxK7/ACAj0I0AHoATnxJj6s3J+cOH9SR2AxAV8WyJ0CF1Pi/U4EOATQCSsrlcAxig8igQACiwrcqjn2Vfx40TmZAYEWBegAtIjJqn4t8Bj95QegrIkJAgiMJXC+5vLVAXeMNTczIdCCAIcAWkBkFQ8SWE3/O0GxFS4IIDC2wGaa0zfI8meHCYFeBHgWQC/MqTby58p2j1QZkywC7Qj4+RgePWNCoBcBDgH0wpxmI/7V7+OYPvufCQEEmgucpkUOVNzffFGWQKCZAIcAmnkx98ICvtnPXgvPwrsIILCAwDZ6b6niBwvMw1sItCLACEArjKxEAk9VcPySpoDA9ALXaRU7K26eflWsAYHRAowAjLbhnfEFHqpZfTOTjcdfhDkRQGCEgB+ctb7iyyPe52UEWhHgJMBWGNOv5I0S2Cm9AgAItCfwSq3KzwpgQqAzAQ4BdEabZsU7KFM/2Yxr/tNUOYn2JOBnaPhZAct72h6bSSbAIYBkFd5Buv+hde7WwXpZJQLZBXxVzTWKc7JDkH83AowAdOOaZa1HKtHPZUmWPBEYQOBGbXMXxfUDbJtNVi7ACEDlFdxheqtr3T7xb4MOt8GqEcgu4Mdo+74aX8kOQf7tC3ASYPumWdb4YiW6XZZkyROBAQX+QNv2o4OZEGhVgBGAVjnTrMwdx/9SbJImYxJFYDgBP1/DdwY8cbgisOUaBTgHoMZa7T6no7SJT3e/GbaAAAIrBPzIYN8l8CZEEGhLgBGAtiRzrcdn/m+RK2WyRWBQgTW09dsVpw5aCjZelQAjAFVVZy/JHK6tfLWXLbERBBCYLeArAjwKcBssCLQhwAhAG4q51vFhpbttrpTJFoEiBHxFwA2KM4soDYUIL8AIQPgq7DWB39LWvtXrFtkYAgjMFrha//HdN++CBYFpBRgBmFYw1/IfULrc8z9XnZNtWQLrqThXKLg7YFn1ErI0jACErLZBCr2Xtvq9QbbMRhFAYLbApfqPHxd8HywITCPAjYCm0cu17P/OlS7ZIlCsgA8BPL/Y0lGwMAKMAISpqkEL6ruQXangkNGg1cDGEfi1wBn66wA8EJhGgBGAafTyLOtfG+z889Q3mZYvsL+KuH35xaSEJQvQASi5dsop24vKKQolQQCBFQJ8LmkKUwlwCGAqvhQL76gsL06RKUkiEEvgQhX3UbGKTGlLEmAEoKTaKLMs/Moos14oFQK7icBX5zAhMJEAHYCJ2FItRAcgVXWTbDABP5abCYGJBDgEMBFbmoX2VqZnp8mWRBGIJ+A7A26tWB6v6JR4aAFGAIaugbK3z6//suuH0iGwpQgOgQGBSQToAEyilmMZt40X5EiVLBEILcBhgNDVN1zhOQQwnH3pW36yCnhS6YWkfAggsOQWGfhmXXdigUATAUYAmmjlmpfh/1z1TbZxBdZX0Y+IW3xKPpQAHYCh5MverkeGnlN2ESkdAgjMEjgSDQSaCtABaCqWY/5HK81NcqRKlghUIXBQFVmQRK8CdAB65Q6zsQPDlJSCIoCABbZS7AAFAk0E6AA00cozL78m8tQ1mdYjwOe2nrrsJRM6AL0wh9sIIwDhqowCI7CEDgCNoJEAHYBGXClm3llZ+pIiJgQQiCVAxz1WfQ1eWjoAg1dBcQXgV0RxVUKBEBhLYHvN5dsCMyEwlgAdgLGYUs3Er4hU1U2ylQnw+a2sQrtMhw5Al7ox180IQMx6o9QIWIDPL+1gbAE6AGNTpZiRIcQU1UySFQvQAai4cttOjQ5A26Kx18fwYez6o/QIcBIvbWBsAToAY1OlmJEOQIpqJsnKBZ5UeX6k15IAHYCWICtZzR6V5EEaCGQW2D1z8uQ+vgAdgPGtMsy5Y4YkyRGBygX4HFdewW2lRwegLcn469lYKWwYPw0yQCC9AB2A9E1gPAA6AOM5ZZiLL40MtUyOGQT4LGeo5RZypAPQAmIlq9ipkjxIA4HsAhsJgNG87K1gjPzpAIyBlGQWOgBJKpo0UwgwCpCimqdLkg7AdH41Lc0XRk21SS7ZBfg8Z28BY+RPB2AMpCSzMAKQpKJJM4UAHYAU1TxdknQApvOraWm+MGqqTXLJLsDnOXsLGCN/OgBjICWYhUsAE1QyKaYSeGSqbEl2IgE6ABOxVbcQvxaqq1ISSi7AZzp5AxgnfToA4yjVPw/H/+uvYzLMJbC50l03V8pk21SADkBTsTrn9yEAJgQQqEtgk7rSIZu2BegAtC0ac338UohZb5QagYUE+FwvpMN7S+gA0AgssA4MCCBQnQAdgOqqtN2E6AC06xl1bXxRRK05yo3AaAE+16NteEcCdABoBhbgi4J2gEB9AuvVlxIZtSlAB6BNzbjr4hBA3Lqj5AiMEqBjP0qG1x8QoANAQ7AAXxS0AwTqE+BzXV+dtpoRHYBWOcOujBGAsFVHwREYKUAHYCQNb1iADgDtwAJ8UdAOEKhPgM91fXXaakZ0AFrlDLsyRgDCVh0FR2CkAB2AkTS8YQE6ALQDC/BFQTtAoD4BPtf11WmrGdEBaJUz7MoYAQhbdRQcgZECXAY4koY3LEAHgHZggTVgQACB6gT4XFdXpe0mRAegXc+oa7s9asEpNwIIjBS4beQ7vIGABOgA0AwscCsMCCBQnQCf6+qqtN2E6AC06xl1bfxSiFpzlBuB0QJ0AEbb8I4E6ADQDCzAFwXtAIH6BPhc11enrWZEB6BVzrArYwQgbNVRcARGCvxy5Du8gYAE6ADQDCzALwXaAQL1CfC5rq9OW82IDkCrnGFXxghA2Kqj4AiMFKADMJKGNyxAB4B2YAG+KGgHCNQnwOe6vjptNSM6AK1yhl0ZIwBhq46CIzBSgA7ASBresAAdANqBBfiioB0gUJ8An+v66rTVjOgAtMoZdmWMAIStOgqOwEgBrgIYScMbFqADQDuwAL8UaAcI1CfA57q+Om01IzoArXKGXdkVYUtOwRFAYD6Be/XitfO9wWsIzAjQAaAtWOASGBBAoCqBZcrGnQAmBEYK0AEYSZPqjUuV7fJUGZMsAnUL0Kmvu35byY4OQCuM4VdypzK4MnwWJIAAAjMCdABoC4sK0AFYlCjNDHxhpKlqEk0g8NMEOZLilAJ0AKYErGjxiyvKhVQQyC5Ahz57CxgjfzoAYyAlmYUvjCQVTZopBPg8p6jm6ZKkAzCdX01LMwJQU22SS2YBn9C7NDMAuY8nQAdgPKcMc/GLIUMtk2MGAd/X464MiZLjdAJ0AKbzq2lpnzR0f00JkQsCSQU4ATBpxTdNmw5AU7F65+dSwHrrlsxyCTCal6u+J86WDsDEdFUuyHkAVVYrSSUToAOQrMInTZcOwKRydS733TrTIisEUgnwOU5V3ZMnSwdgcrsalzy1xqTICYFEAncr128nypdUpxCgAzAFXoWLnq6c7qswL1JCIIvAd5Soz+dhQmBRAToAixKlmuEXyvbcVBmTLAJ1CTCKV1d9dpoNHYBOeUOunC+QkNVGoRF4QIDPLw1hbAE6AGNTpZmRL5A0VU2ilQncq3zOqCwn0ulQgA5Ah7hBV/0tlZsbAgWtPIqdWuBsZX9bagGSbyRAB6ARV4qZb1KW56XIlCQRqEvgm3WlQzZdC9AB6Fo45vo5DBCz3ih1bgE+t7nrv3H2dAAak6VYgC+SFNVMkhUJ+PLd0yrKh1R6EKAD0ANywE0wlBiw0ihyagFfvuvLeJkQGFuADsDYVKlmvE7Zch5Aqion2eACJwcvP8UfQIAOwADoQTb5ySDlpJgIILBkCZ9XWkFjgVUaL8ECWQS2V6KXZkmWPBEILHChyv6owOWn6AMJMAIwEHyAzS5VGc8MUE6KiEB2gf/MDkD+kwnQAZjMLctSfLFkqWnyjCzwiciFp+zDCXAIYDj7CFveVIW8WrFahMJSRgQSCvjWvwckzJuUWxBgBKAFxIpX4asBvl5xfqSGQHQBRumi1+CA5acDMCB+kE3zBROkoihmOgE//Oe/02VNwq0J0AFojbLaFX1Bmd1ebXYkhkBcgRNU9OvjFp+SDy1AB2DoGih/+7eqiF8sv5iUEIF0AozOpavydhOmA9CuZ61r4yzjWmuWvKIKuGP+P1ELT7nLEKADUEY9lF6K41VAhhpLryXKl0ngc0qWQ3OZaryDXFftYJ2ssj6B5UppTcUh9aVGRgiEE7hfJT5acW24klPgogS4D0BR1VF0YTZQ6S5XrFd0KSkcAvULHKcUn1V/mmTYtQAjAF0L17P+O5WKOwHcdKSeOiWTmAIvVbGvjFl0Sl2SACMAJdVG+WXZXEVcpvDhACYEEOhf4BRtkkNx/btXuUVGAKqs1s6Suk1r3lKxb2dbYMUIILCQwCv0Jk/pXEiI98YWYARgbCpmXCGwrf69RMHzAWgSCPQr8F1tbr9+N8nWahbgMsCaa7eb3C7TarkvQDe2rBWBhQTetdCbvIdAUwFGAJqKMb8FdlNcoKD90B4Q6EfgR9rM7gpfAsiEQCsCjAC0wphuJRcq48+ny5qEERhO4O+0aXb+w/lXuWV+wVVZrb0ktbe2cnYvW2IjCOQWWKr0d1b46X9MCLQmwAhAa5TpVnSOMuYhQemqnYQHEHintsnOfwD42jfJCEDtNdxtfttp9T42uVa3m2HtCKQVOFOZ++ZbDP+nbQLdJc59ALqzzbDmm1ck+eQMyZIjAj0L3KftPUfxs563y+aSCHAIIElFd5jme7TuizpcP6tGIKvAsUr83KzJk3f3AhwC6N44wxYOVZJfz5AoOSLQk4B/9e+quKWn7bGZhAIcAkhY6R2k7LOU/WXl65SZEEBgeoE/0ip85z8mBDoTYASgM9p0K95CGftQAI8LTlf1JNyywKla38Etr5PVIbCSACMAK5HwwoQCt2q5OxSHT7g8iyGAwJIl9wjhWYrrwECgawFOAuxaONf6/0Xp/iBXymSLQKsC79PafGktEwKdC3AIoHPidBvYXxmfpqBtpat6Ep5S4Eot7+dseDSNCYHOBTgE0Dlxug1coYx9PsA+6TInYQSmEzhai/9wulWwNALjC/ArbXwr5hxfYG3NepaCqwLGN2PO3AK+5v9VuQnIvm8BOgB9i+fZnocyfRnTOnlSJlMEJhLwczV86OzuiZZmIQQmFOAQwIRwLLaowPWaw8c0j1x0TmZAIK+Ab6f9FMUNeQnIfCgBOgBDyefYrq8I2FaxV450yRKBxgIv1BLfbrwUCyDQggCHAFpAZBULCnA+wII8vJlY4B+V+2sS50/qAwvQARi4ApJsnvMBklQ0aY4t4F/9Byp84x8mBAYR4BDAIOzpNsr5AOmqnIQXELhR7/m4/00LzMNbCHQuQAegc2I2sEKA8wFoCggsWXK/EH5XcTYYCAwtwK2Ah66BXNv3dc7n50qZbBF4kMB79L8vY4JACQKcA1BCLeQqw85K9wzFxrnSJlsElpwggyMU92KBQAkCdABKqIV8ZdhPKZ+s4CZB+eo+a8bfUeJPVtyWFYC8yxPgEEB5dZKhRP4yfJ6CM6Az1DY5XiSCZyrY+dMWihLgJMCiqiNVYX6qbH+icEeAkahUVZ8q2auU7SGKa1JlTbIhBOgAhKimagt5gTLzLVCfUW2GJJZZwJf5Haq4ODMCuZcrQAeg3LrJUjI/MMiHog7KkjB5phC4Q1k+XeEH/TAhUKQAHYAiqyVdoU5Rxpsr9k2XOQnXKHCfkjpK8fUakyOnegToANRTl9Ez+aoSeJTi0dETofzpBY6RwKfSKwCAAAIINBBYQ/OeqPDd0ggMIraBNzVo78yKAAIIIDBLYF39fboi4pc/Zc5db+/mk4wAAgggMJ2AHyHs26WyQ8UgShvgl/90n3mWRgABBH4tsJr++nc6AXSCCm8Dvq3vy/ncIhBRgJMAI9ZajjIvV5pfUPiQwP45UibLYAJ3qry/o/hksHJTXAQeEKADQEMoXeBrKqCvqT6s9IJSvlQCNytb38DKJ60yIRBSgA5AyGpLV2ifFHiZwk9S4/kV6aq/uIR9W9+nKHwTKyYEwgpwD/awVZey4M9S1r6+eq2U2ZN0CQK+re/TFEtLKAxlQGAaAToA0+ix7BACv6WNfkmxwRAbZ5upBb6n7H1735+nViD5agQYTq2mKtMkcpoyPVBxdZqMSbQEgZNViIMV7PxLqA3K0IoAHYBWGFlJzwLnaXv7KE7pebtsLp+A70PwD4rDFb/Mlz4ZI4AAAmUK+CTWdyr88JUoN4yhnHHqyo+q9nknTAgggAAChQo8VeXy0Cw7VwzaagNnqD1tU2h7p1gIIIAAArMEttTfpyra2gGwnpyWvgHVexWr8+lCAAEEEIgj4EMCf6Pwlzg7cAyatgGG/ON81ikpAgggMK+AT9i6jk4AnaAGbYAh/3k/SryIAAIIxBPYSkX+VoMdQNNfi8xfxwgDQ/7xPtuUGAEEEFhUwE8U/EvF7Qp22BjMbQM/VbvwXf2YEEAAAQQqFdhOeX1RMXcHwP9zmvgpfu9QrFlpeyctBBBAAIE5Ar6me6mCHX9eg+NV/zvyyUAAAQQQyCfgBwn5SoG7FHQE8hhcofo+Kl9zJ2MEEEAAgbkCu+iFryvoBNRtcI/q2Nf1rzu3AfB/BBBAAIHcAi9Q+n6wEB2B+gy+qXrdPXfzJnsEEEAAgYUEHqY3363ww17oCMQ3uFj1+BIFjztfqNXzHgIIIIDArwU21F9vU/iOcHQE4hn8QPXmER3fEZIJAQQQQACBxgLraInXKq5S0BEo38B38TtCwS/+xk2dBRBAAAEE5hN4qF58pcI3jKEjUJ7BiaqXQ+arOF5DAAEEEECgDQEPKb9YcZ6CjsCwBr517+cV+7ZRsawDAQQQQACBcQQ8xPwcxdcU9yroDPRncIu8P6R41DgVxTwIIIAAAgh0JfBwrfh/Kb6roCPQjYFv1uRf+76BD7ft7aols14EEEAAgYkFfFOhv1ZcoqAzMJ2Bh/hPURyj8FUZTAgggAACCIQQeIJK+S+KnyvoDIxv4Ev43qDYOkQtU0gEKhDgspkKKpEUihTwo4gPUxypOEixc5GlHK5QvkXv2YqTFZ9UnD9cUdgyAjkF6ADkrHey7l9gc23ywFnhW9Q+pP9iDLZFH88/S+Hb856q8LX7tw9WGjaMAALcOIM2gMBAAj6+fYBiplOwt/72qEEtk3fu31Z4Z+/wzv/OWpIjDwRqEGAEoIZaJIcaBHz3wScq9lD4efU7rfh3G/1b8q1tPZS/VOGbJfkkSIeH9n11hN9jQgCBQgXoABRaMRQLgRUCa+jf7RWzOwUznYNt9XofnYM7tJ1LFd65z97R+/+XK+5TMCGAQDABOgDBKoziIjBLYHX9vZHCowd+3v3cf+d7zR0KD8/fprh1jH89z40KX9HAhAACFQnQAaioMgdIZRNt079ON1bM3vnM3RH5/76Ry3WKKxVXKDxs7GPEvqMeEwIZBfz9+ziFrxB5hMKXQPoGUz50MtM5G9VR850R/Rn6mYLOmRCYmgvQAWhulmkJPwzHO3jHDnPCr603JYYfu+s7vX1GcZKCzsCUoCxevIC/c/dX+O6Gv62Y9r4HPjyzTOFDNHPDHQR3IJgQQACBRQV8wtkLFe9XfF/hY7v+ddFHuDPwTgV3fxMCU3UCaymj1yg8AtbH58nbWK64UPEhxcsUPneECQEEEHjg5LG9FK9W+EYsHpbv64tpoe14aNO31d2AOkKgAgEf+vpzxTWFfL58h0qPur1O4atOfE4IEwIIJBDwkL6fZvcJxS8UC+2Ih37vZpXv7YqHJagXUqxPwCdovkpxlWLoz9JC2/chhC8qfk/BZ62+dkhGyQX8RfR0xccU3qku9GVQ4ntXq8zPT16HpB9L4GAV90cBP2u+UdMXFC9STHt+T6wao7QIVCTg4f2nKP6fwsfWS9yxNy3TCcrD18IzIVCqwGYq2McVTdt2ifN7ZOBzihcofDkpEwIIFC7gE+jepOjzRKM+v7z8pfRWhQ9lMCFQioCf6fDHipsUfX4e+trWL5XX+xS+8ocJAQQKE/AvY5+572uH+/pSGHI7FynPQwurA4qTU8DX8X8nyefOl+l+WuFHXjMhgMDAAgdp+z5m1+flekPu+Odu+yPK3XfCY0KgbwFf1vf3Cu8U57bLDP8/XXn7PgaZnmjZdxtjewisJOAbifi43DmKDF80i+XoO6H9zkpKvIBAdwKHaNV+DsJibTPD+342hK924HLC7toba0bgAQE/PjbLcGPTL0+PhGxFO0GgQwHfm8In1jZtmxnmv1guR3Zoz6oRSCuwnTL/FF88i37x+jLHVyo8SsKEQJsCz9XKfElqhp35NDmeIiPfYIwJAQSmFPC1uO9S+PrcaT6U2ZY9RV7c9nTKxsfiDwj44Tw+8S3bZ2iafH1O0ocVW9CGEECguYBPrHmF4lrFNB/EzMv6kkFfErlac36WQOABAd8/f+ZRyJk/S5Pm7quS3qLwCZNMCCAwhoCvtT1NMemHjuUebOeHGvlSLSYExhXwZ/BEBZ+ldgx82e6+4+IzHwJZBfyLo/R79Ef8UvSlWu9W8Esk6ydrvLw98vYXCj9CN2I7L7nM98j0rxS+SykTAgjMEthEf/u2myV/gGsom89UPpiWh8A8AnvotbP4DHb+HXSmjLml9zwNkJdyCjxDaZfyqNAadvKL5eBnpH9+uboaAAAaw0lEQVRQsX7O5kbWcwR8/bofP323YrG2w/vtGPncgGNoiQhkFvBzwv8vXzqDfen6Ma2+tIspr8D+Sj3iU/tq6Yj4McQe/WRCIJXApsrWQ2G1fJAj5+FLvHypF1MeAT/d7p8VWW+hXdLn1XcS3DVP0yPT7AJu7JcqSvoQZi+LL/V6efaGmST/w5XnZXz+ivr+8efv4CTtjzQTC/ge4lxXXG7n52TVz+6J22fNqT9CyX1Ckb2zW2r+d6lufr/mBkhuuQWOVvqcaFT+F7AvGTxWsXHu5lpN9r70860KLu0r/7Pnzsk7qml5JILACgGfZVxqz5tyzV83Hql5tYI7Ccb9GP+uis5w//ztu+TP/cdVbzxdMO7njpKvEFhF//L0sHhfQLO/HC9QHT5P4bpkiiFwkIr5TUXJOznKtnD9+E6MvlKKCYGwAu/nS6iaL2FfLuZjlIwIlPtxfKaKdjqfuWo+c19WXTISUO7njZItIPBevoiq+SKa/Wttqer1jxX8Olmg8ff4lm/f66F+P/OBX9X1GXxW9Uqnu8cPFJuaXuD/8GVU/Zex7974l4qtpm8urGECgQ21zJ8o/KAZdvx1G/yn6tgdPSYEihfw4y/5Qspj4JvJHK94voJRgW4/nn6QjK/j/5TiTj5nqb5nPqT65jycbj9frH1KgdfxpZTqS2luR+8m1b9v77zflO2IxR8ssIv++y6Fb98815z/5zHxOVVMCBQp8EK+nPhyntUGfPXA6xVbFNlayy+UH9b0CgW3zM6zgx+nM/em8psuJcwmsK8Svl0xTgNmnlxOvrHQcYqjFJzRvPA3g4/zHqbwMV8+T7k+J+N+L/qQ27MXbka8O64Ax1TGlRo935Z667sK/8uEwEICvrmQb0f7UcU5C82Y7L2dlO/RCl9muXWy3Em3uYAfJ/xExfnNF2WJ2QJ0AKZrDz7pyzcc8QgAEwJNBHxfAV/n7BMIT1P4NtFZJv/S92fGJ/Q9XfH4LImTZ2sCS7Umn2tzfWtrTLgiOgDTVbp/zfnYPxMC0wjcpoW/oXBnwOFHpNY2+VyIpym80/cw/0a1JUg+vQv4x9dTFPf0vuVKNkgHYPKK9DXgfzP54iyJwEiBS/TOCYozFGcrLlb4GGmkaRsVdh/FExRPVewZqfCUNYyAb7Xuk0WZJhCgAzABmhbxr5ivKPCbzI+lmgncotl9zoDPNXGHwLGs2So6ndu/7r2znx2bdbpFVo7AbwReqT8/CEhzAXZgzc021SLnKTZvvihLINCagI99+jyCy+aJy/Wab5TT1uSrF3xynn/VbzsndtX/OQG2LWnWM4mArxjZW/HjSRbOvAwdgOa1/yUtckTzxVgCgV4Ffq6t+cY5Pr/A4S/JuX/fodd8IuvainVm/Tvz97p67eErgluxCoKpWAE/C8KHmzKdTDt1ZdABaEboe48f22wR5kYAAQQQ6EHgPdrGG3rYTjWboAMwflU+SrP62Ota4y/CnAgggAACPQn4RFlfYXJST9sLvxk6AONV4UM121kKzmQez4u5EEAAgSEEfNjrMQrfdItpEQGO6y0CtOJtP4iEnf94VsyFAAIIDCXgx3P70kCmMQT8eE2mhQUO0Nu+xITRkoWdeBcBBBAoQWA3FcL3zvDVWkwLCLBTWwBHb62m+J5ij4Vn410EEEAAgYIErlVZ/Bhp30ODaYQAhwBGwKx4+c/0Lzv/hY14FwEEEChNwPdp+dvSClVaeRgBGF0jPpbkG0v4WmgmBBBAAIFYAstVXN8bwHfQZJpHgBGAeVBWvPQ+/cvOf7QP7yCAAAIlC3j/9gEF57qNqCVg5ofxU8sYPprfhlcRQACBKAJ+ToVvm/2dKAXus5wcAlhZ29f8n6/YceW3eAUBBBBAIJjAL1ReP7PimmDl7ry4HAJYmfj1eomd/8ouvIIAAghEFHiYCu3bBDPNEWAE4MEgG+i/yxTr01IQQAABBKoR8AmBvkPgBdVk1EIijAA8GPE1+i87/xYaFqtAAAEEChLwvu5tBZWniKIwAvCbathQfy5TeLiICQEEEECgLgE/LMijAD7Hi0kCjAD8phm8Vn+y8+djgQACCNQp4B+8b68ztcmyYgTgV24b6Z9livUmY2QpBBBAAIEAAh4FeKzihwHK2nkRGQH4FfHr9A87/86bGxtAAAEEBhVgFGAWPyMAS5ZsIo+lCu76N+jnko0jgAACvQh4FOBxinN72VrBG2EEYMkS//pn519wI6VoCCCAQIsCjAKswMw+ArCpHPzrf50WGxerQgABBBAoX2BvFdGPe087ZR8B8F3/2Pmnbf4kjgACiQXenjj3B1LPPAKwmfL3r/+1szcC8kcAAQSSCuyrvM9Omnvq+wC8QZXOzj9ryydvBBBAIPl9AbKOAGyulu9f/2vxCUAAAQQQSC3weGWf8nHBWc8BeCM7/9QfeJJHAAEEZgTenpUi4wiAr/u/XMGv/6ytnrwRQACBBwvso/+ekw0l4wjAi1XJ7PyztXTyRQABBEYL/OHot+p9J+MIgO/+tGe9VUpmCCCAAAINBW7W/Fso7my4XOjZs40A7KXaYucfuslSeAQQQKB1gQ20xiNbX2vhK8zWAXhZ4fVB8RBAAAEEhhF4+TCbHW6rmQ4BrCHmqxUbD8fNlhFAAAEEChVYrnJtr/BJ4immTCMAz1aNsvNP0axJEgEEEGgs4P3h0Y2XCrxApg4Aw/+BGypFRwABBHoQeKm2kWZkPEuiW6pSPayzag8NiE0ggAACCMQVOERFPyVu8ccveZYRgN8XCTv/8dsFcyKAAAJZBdKMFmcZAfixWvIuWVszeSOAAAIIjC1wu+Z8uOKXYy8RdMYMIwD7q27Y+QdtoBQbAQQQ6FnAT4l9fs/bHGRzGToAaYZzBmlBbBQBBBCoTyDFfqP2QwDuyf1MsV597ZOMEEAAAQQ6FNhV676ow/UPvuraRwB+W8Ls/AdvZhQAAQQQCCdQ/ShA7SMAJ6vJ+ZIOJgQQQAABBJoIXKOZt1bc12ShSPPW3AHYSBVxnaL2UY5I7Y2yIoAAApEEfBL5mZEK3KSsNe8cDxNEzfk1qWfmRQABBBBoLnB480XiLFHzDrLqiovTxCgpAgggEFag6v1IzYcA/OS/LcI2OwqOAAIIIDC0gJ8QuJnihqEL0sX2ax0B2FNY7Py7aDGsEwEEEMgj4H3kU2tNt9YOQNXDNrU2RvJCAAEEChR4WoFlaqVIdABaYWQlCCCAAAKVCrgDUOXh8hqT8o1/fLxm9UobI2khgAACCPQrsJc2d26/m+x+azWOADxZbOz8u287bAEBBBDIIlDlYeUaOwBVVlSWTxl5IoAAAgUKVLlfqfEQwFI1nu0KbEAUCQEEEEAgpsA9KvbGil/GLP78pa5tBGAXpbnd/KnyKgIIIIAAAhMJ+LDyoRMtWfBCtXUAqhymKbj9UDQEEEAgi0B1+xc6AFmaLnkigAACCEwjUF0HoKZzANZUzd6oWGuaGmZZBBBAAAEERgjsptd/POK9cC/XNALwJOmz8w/XBCkwAgggEEbAT5mtZqqpA/CEamqFRBBAAAEEShSoaj9TUwdgvxJbC2VCAAEEEKhGoKr9TE3nAPxMTWzzapoZiSCAAAIIlCiwkQp1U4kFa1qmWkYAtlHi7Pyb1j7zI4AAAgg0Fdi36QKlzl9LB6CqYZlSGwvlQgABBBBYUs3+hg4ArRkBBBBAAIHxBegAjG/Vy5zVDMn0osVGEEAAAQQmFahmf1PDSYAexbhZsd6ktclyCCCAAAIINBDweWdXNJi/yFlrOATgOzOx8y+yeVEoBBBAoEqBKg4D1NABqGY4psqPCUkhgAAC9QlUsd+poQNQRU+svs8HGSGAAALVClSx36EDUG37JDEEEEAAgY4E9tZ6w+8/oyfwUFXCYzqqYFaLAAIIIIDAfAIP04u7zPdGpNeidwAeK+zVI4FTVgQQQACBKgTCHwaI3gEIXwFVfAxIAgEEEMgnEH7/E70DUMWZmPk+N2SMAAIIhBcIv/+J3gHwiRhMCCCAAAII9C2wpza4Wt8bbXN7kTsAqwpixzYxWBcCCCCAAAJjCqyh+bYfc94iZ4vcAdhBoq4AJgQQQAABBIYQ2HWIjba1zcgdgNDwbVUg60EAAQQQGEwg9H4ocgcg/DWYgzVZNowAAggg0IZA6P1Q5A5A6J5XGy2PdSCAAAIIDCoQej9EB2DQtsPGEUAAAQQCC9ABGKjyQg+9DGTGZhFAAAEE2hPYWKtyhJyijgAYfJOQ4hQaAQQQQKAmgbCjAFE7APz6r+njQy4IIIBAXIGw+6OoHYCwPa64bZySI4AAAgjMIxB2f0QHYJ7a5CUEEEAAAQTGFKADMCZUW7OFHXJpC4D1IIAAAggUIRB2f8QIQBHth0IggAACCAQV2EHlXj1i2SN2AAxtcCYEEEAAAQSGFvATAUM+mC5iB+CRwg79CMahWyvbRwABBBBoVSDkYYCIHYCwJ1y02txYGQIIIIBAKQIh90sROwAM/5fS5CkHAggggIAFQu6XInYAtqC9IYAAAgggUJDAlgWVZeyiROwAhIQeu0aYEQEEEEAgmkDIH6Z0AKI1M8qLAAIIIFCaQMgfphE7ACF7WqW1VsqDAAIIINCawGZa06qtra2nFUXsAITsafVUn2wGAQQQQKB/Ae9LN+9/s9NtMVoHYF2lu950KbM0AggggAACrQuE+3EarQPA8H/rbZYVIoAAAgi0IBBu/xStAxCuh9VCo2IVCCCAAALlC4TbP0XrAITrYZXfZikhAggggEALAuH2T9E6AOF6WC00KlaBAAIIIFC+QLj9U7QOQLgeVvltlhIigAACCLQgQAegBcSFVhEOeKFkeA8BBBBAoBqBcD9Qo40A0AGo5rNCIggggEBVAuH2T9E6AOF6WFU1b5JBAAEEEBglEO5ugHQARlUlryOAAAIIIDC+gPen7gSEmSJ1AHyf5YeFkaWgCCCAAALZBDaMlHCkDoBvA8yEAAIIIIBAqQKhblUfqQPAr/9SmzzlQgABBBCwQKj9VKQOQKieFZ8FBBBAAIF0AqH2U5E6AKF6VumaPQkjgAACCITaT0XqAITqWfE5QAABBBBIJxBqP0UHIF37JGEEEEAAgY4E6AB0BBtqaKUjA1aLAAIIIFCuQKj9FCMA5TYkSoYAAgggEEuAEYCO6isUbEcGrBYBBBBAoFwBRgA6qptQsB0ZsFoEEEAAgXIFQv1Q5RBAuQ2JkiGAAAIIxBII9UM1UgcgFGysNktpEUAAAQRaEGAEoAXE+VYRCna+BHgNAQQQQKBqgVD7qUgjAKFgq27iJIcAAgggMJ9AqP1UpA7AGvNp8xoCCCCAAAKFCITaT0XqAKxWSAVTDAQQQAABBOYTCLWfogMwXxXyGgIIIIAAAs0FVm++yHBLROoAhIIdrkrZMgIIIIDAQAKMAHQEHwq2IwNWiwACCCBQrkCo/VSkEYBQsOW2T0qGAAIIINCRwKodrbeT1dIB6ISVlSKAAAIIJBUI82OVDkDSFkraCCCAAAKdCNAB6ICVkwA7QGWVCCCAAAKtCoTZVzEC0Gq9szIEEEAAgeQCjAB00ADCoHaQO6tEAAEEEIghEGZfxQhAjAZFKRFAAAEEYgjQAeignsKgdpA7q0QAAQQQiCEQZl/FCECMBkUpEUAAAQRiCNAB6KCewpxZ2UHurBIBBBBAIIZAmH1VpBGAe2PUPaVEAAEEEEgsEGZfFakDcFviBkXqCCCAAAIxBG6PUcwlS+gARKkpyokAAgggEEGADkAHtRQGtYPcWSUCCCCAQAyBO2IUkxGAKPVEORFAAAEEyhfw8f97yi/mr0rIIYAoNUU5EUAAAQRKFwg1Uh2pAxAKtvRWSvkQQAABBFoXCLWfitQB4CqA1tsqK0QAAQQQaFGADkCLmLNXRQegI1hWiwACCCDQigAdgFYYV14JHYCVTXgFAQQQQKAcAToAHdXFVR2tl9UigAACCCDQhsCVbaykr3VEOgdgaV8obAcBBBBAAIEJBELtpyJ1AJZNUBksggACCCCAQF8Cl/a1oTa2E6kDEKpn1UblsA4EEEAAgVACofZTkToAV6sZ3B2qKVBYBBBAAIFMAowAdFTby7XeyztaN6tFAAEEEEBgGoH7tfCyaVbQ97KRRgBsE2p4pe/KZHsIIIAAAoMJeJT6rsG2PsGG6QBMgMYiCCCAAAIIzBEI9wM1WgdgGU0OAQQQQACBAgVCHf+3X7QOwPkFVjpFQgABBBBAINz+KVoH4EzaGAIIIIAAAgUKhNs/rVIg4mJF+olm2GmxmXgfAQQQQACBngTu0XYeprizp+21sploIwBOOlwvq5WaYiUIIIAAAqUKfF8FC7XzNyQdgFKbE+VCAAEEEIgiEPKHKR2AKM2LciKAAAIIlCoQsgMQ8RyAVdUCblasW2pLoFwIIIAAAqkEtlW2l0fLOOIIwH1CPisaNOVFAAEEEKhS4CplFW7n75qI2AFwuUMOt1TZ9EkKAQQQyC0Qdn8UtQNwXO72RvYIIIAAAoUIhN0fRTwHYKbOL9Mf2xTSACgGAggggEA+AT+ifnOFz0sLN0UdATD0p8NpU2AEEEAAgZoETlQyIXf+roTIHYD/rqkVkQsCCCCAQDiB0PuhyIcA3FKWKXz5BRMCCCCAAAJ9Cnj4fzPFLX1utM1tRR4BsAOHAdpsDawLAQQQQGBcga9pxrA7fycZvQMQevhl3FbGfAgggAACxQmE3/9EPwTgFrFUsV1xTYMCIYAAAgjUKhB++N8VE30EwDl8tNYWRl4IIIAAAkUKfE6lCj38b9UaRgA2UR6+DeNaRTYTCoUAAgggUJvAPkronOhJ1TACcL0q4SPRK4LyI4AAAgiEEPiGShl+52/pGkYAnMcjFT9R1NChCfEJoJAIIIBAUoFnKO+v1pB7LTvMn6oyPltDhZADAggggECxAuerZMcXW7qGBaulA+C039Mwd2ZHAAEEEECgicA/aOb7myxQ8ry1HAKYMT5FfxxUMjhlQwABBBAIKXC1Sr29wpcAVjHVNALgCmEUoIpmSRIIIIBAcQL/pBJVs/O3bm0jAM7pVMWBxTUdCoQAAgggEFXgShV8V8VtUROYr9y1jQA4x1cr7psvWV5DAAEEEEBgAoHXaZmqdv42WHUCiNIXuVYF9M2BHl96QSkfAggggEDxAqeohK8vvpQTFLDGQwBm2EDh+wJsOoEJiyCAAAIIIGCBexV7KXz5X3VTjYcAXEk3K95UXW2REAIIIIBAnwLHamNV7vyNWOsIwExuZ+oPDgX0+XFhWwgggEAdAj9XGjsrwj/0Z1R11DoC4Hx9s4ZXKZaPSp7XEUAAAQQQGCHgUeRqd/7OucaTAGfXpW/c4PMBnjiignkZAQQQQACBuQIn6YXXzn2xtv/XfAhgpq5W1x+nKfarrfLIBwEEEECgdYFrtEaf+Ocryqqeaj4EMFNx9+iP5yt8YiATAggggAACowR8D5kXKarf+RsgQwfAeS5TvNR/MCGAAAIIIDBC4G16/ZQR71X3cu3nAMyusIv0n/UVnA9QXTMmIQQQQGBqAT/m94+mXkugFWQ4B2B2dfh8gG8puDQwUCOlqAgggEDHAr7Xv4/7X9/xdopafZZDADPoM+cD3FRULVAYBBBAAIGhBHy3vxcoUu38jZ2tA+CcL1McqbjD/2FCAAEEEEgr4PvFHKM4PaNAxg6A69mPDD5K4REBJgQQQACBnAJ/prQ/mjP1nCMAM3X9Ff3xYgWPDs7a+skbAQQyC7xZyb8/M0CmqwDmq+cf6UWf/PFsRbYTIufz4DUEEEAgg8C7laQv+Us9Ze8AuPK/r/BNgg5P3RJIHgEEEMgh8K9K8y9ypLpwlnQAfuVzlv7xQ4MOWZiLdxFAAAEEAgv8h8ruk/6YJEAH4DfN4Jv6k04AHwsEEECgToGPKa0/WPE9X2eGDbOiA/BgMHcCLlYcoVitoSWzI4AAAgiUKfBWFes1Ch4PP6t+OPFt/sZ6gF7+gmKT+d/mVQQQQACBAAJ3qYwvV3wiQFl7LyIdgNHkj9RbX1bsMnoW3kEAAQQQKFTgBpXruQo/Dp5pHoGsNwKah2Kll36qV/zgoFNWeocXEEAAAQRKFvCh3Cco2PkvUEucA7AAjt66U+Gho0co/KAIJgQQQACBsgV8p9fDFFeVXczhS8cIwOJ14NsF+xiS7xro+wUwIYAAAgiUJ+Dv6rcoDlXcWF7xyisR5wA0qxOPBHx0RQNrtiRzI4AAAgh0JXCBVvwShW/sxjSmAIcAxoRaMdsv9O/HFX6c8MEKLhVs5sfcCCCAQJsCfprfPyr8OF/f1p2pgQAjAA2w5sy6m/7vu0o9bvJVsCQCCCCAwIQCl2m5lypOmXD59IsxAjB5E7hei35kxeKP17+MBkxuyZIIIIDAuAK+mc+/KY5UXDTuQsy3sgAjACubTPLKNlronYrfU3Bi5SSCLIMAAggsLnC8Znmj4oeLz8ociwnQAVhMqNn7e2r2v1c8tdlizI0AAgggsIDA9/TeGxQnLTAPbzUU4NdqQ7BFZv+B3n+awh2AcxeZl7cRQAABBBYWWKa3PbK6j4Kd/8JWjd9lBKAx2dgL2Nb3DvBDKHYaeylmRAABBBD4mQjeozhW4fv5M3UgQAegA9Q5q7SxRwVepXi6glGX7s3ZAgIIxBQ4Q8V+v+IzCt/Yh6lDAToAHeLOs+od9NqfKl6m2HCe93kJAQQQyCYwc8t17/i5kU+PtU8HoEfsWZtaW3/78IBHBR4zTBHYKgIIIDCowDJt/V8VvqTPT+5j6lmADkDP4PNszlcO+JGVjsfO8z4vIYAAArUI+CmrX1gRHu73Nf1MAwnQARgIfsRmt9Prz1G4M/AkBTdqGgHFywggEEbAl/DN7PTPC1PqBAWlA1BuJW+soh2heKbCz7XeutyiUjIEEEDg1wK+S+p3Fb5pj3f8l2NTpgAdgDLrZb5Sba4X91PsOyvcSWBCAAEEhhK4VRs+R+Ed/kwsHaowbLeZAB2AZl6lze2rCtwh8LkD286KLfQ3lxuWVluUB4G4Aj9X0S+bFefrb+/wL1RwHD9ovdIBCFpxixR7db3vQwazOwX+/3oKX4Gw1op//ffs8OtrKpgQQKA+gbuV0u0r4o5Zf8+85n9vU/ixuh62n9nh+2/Pz1SZwP8HnBwV0jOGZBIAAAAASUVORK5CYII=;" vertex="1" parent="1">
          <mxGeometry x="445" y="160" width="62" height="62" as="geometry" />
        </mxCell>
        <mxCell id="9kofIlFbRkQfjmpeaeeo-3" value="" style="shape=image;verticalLabelPosition=bottom;labelBackgroundColor=default;verticalAlign=top;aspect=fixed;imageAspect=0;image=data:image/png,iVBORw0KGgoAAAANSUhEUgAAAgAAAAIACAYAAAD0eNT6AAAABHNCSVQICAgIfAhkiAAAIABJREFUeF7t3Qe0bVV97/GLFKnSQUCqVAURKSpEioiiYsGQ2GJQEzRFkxf7i8YSX2KMZsQk8uLwGUtMjMYaRQURBKWIgqKAiCD30kW60svl/X54jx7OPfucvfZeZf7n/7vG+I977t6rzP9nzr3X3HO1VZYwIYBANIEtVeAdFTspNlGsq1hnzH/X0Hy3K25T3DrGv57nKsXFiksUtyiYEECgAoFVKsiBFBCoUWD2Tn5mZ+8d/iMV3tkPNV2nDbsjMNMhmP0vnYOhaoXtIjCBAB2ACdBYBIGWBXbV+g5cEXvo36F38pOmd70WdIfgHMU3V8S1k66M5RBAoFsBOgDd+rJ2BOYKPEQv7Kl4kmJmp7/p3Jkq+v9FymWmM+B/L68oN1JBILQAHYDQ1UfhAwisrjLuo5jZ2R+gv9cPUO6uiniZVjy7Q/CTrjbEehFAAAEEEOhbwDv9Zys+pfDJdvcTIw2ukM17FXv1XUlsDwEEEEAAgTYEPJrmYf0PKG5QsNNvbvAjub1ZsX0bFcI6EEAAAQQQ6FLg0Vr53yqWKdjpt2dwujz/ROHLHJkQQAABBBAoQuARKsXrFecq2Ol3a3CPjI9TvFCxdhG1TyEQQAABBNIJ7KuMP69YrmDH37+B7zPwbsXm6VoeCSOAAAIIDCJwiLZ6ooKdfhkGd6gujlVsO0hrYKMIIIAAAlUL+KS+ZynOVLDjL9PAhwc+pvCNlJgQQAABBBCYSmBVLe3jzT9UsOOPYeBDMp9R7D1VzbMwAggggEBKAT8k5xiFb2XLjj+uwfGqP990iQkBBBBAAIFFBY7SHL5FLTv+egxOUn3utmjNMwMCCCCAQEoBP2XPvxjZ8ddpcLfq9u8UXD6Y8uNN0ggggMDKAmvqpXco7lSw86/fwM8feO7KzYBXEEAAAQQyCTxdyfp59uz48xn4hkLcZjjTp51cEUAAAQlsrfisgh1/boPb1Qb+SvFQPhUIIIAAAnUL+Ml8b1DcqmDnj8FMG/BjiA+ru+mTHQIIIJBXYE+lfr6CHT8Go9rAJ9Q+1s/7ESFzBBBAoD6BVygl3zJ21Bc/r2Mz0wZ8Tgg3EarvO4CMEEAgmcC6yte/6tjBY9CkDfiKkD9N9lkhXQQQQKAagccok4sUTb74mRev2W3g02o/HBKo5iuBRBBAIIPAHypJn+HNDh2DadsAhwQyfGOQIwIIhBdYRxl8nB0/HZ+W2wCHBMJ/NZAAAgjULLC7kruw5S/+aX89snxdIxAcEqj5G4TcEEAgpMDRKjVD/nXtbEvtPPmQwGNDfkooNAIIIFCZwFuUT6k7C8pVZ93cojZ3SGWfI9JBAAEEwgisopL+s4KdLAZDtAGfF/C8MJ8WCooAAghUIuBb+v6XYogvfraJ+0wbuFdt8JhKPlOkkVxg1eT5k34MAd/c538Uz4lRXEpZscBDlNuzFPcovlVxnqSWQIAOQIJKDp7iJir/1xQHBs+D4tclcKjS2VBxQl1pkU0mAToAmWo7Xq7bqMjfUPgOf0wIlCbwBBVoR8WXFMtLKxzlQWAxAZ9UxYRAiQKPVqH862qrEgtHmRCYJfBV/X2UwpelMiEQRoAOQJiqSlXQ/ZXtcQoPsTIhEEHgTBXyCMWNEQpLGRGwAB0A2kFpAk9Ugb6uWLu0glEeBBYROFfvH6zwPQOYEChewGe0MiFQioCH/b+sYOdfSo1QjiYCvlugr1ZZs8lCzIvAUAJ0AIaSZ7tzBXzCn4/5M+w/V4b/RxI4SIX1/So4wTpSrSUtK400acUXlrYv9fPZ/tsXVi6Kg8AkArtqoS0VvjqACYFiBegAFFs1aQrmx/n6Ov8902RMohkEHqck11CcnCFZcowpQAcgZr3VUmrf3tfHTLnJTy01Sh6zBZ6k/9ysOAsWBEoUoANQYq3kKJOvQPm44rk50iXLpAJPU94XK85Lmj9pFyzASYAFV07lRfsn5ffCynMkPQTc0f2owh0BJgSKEqADUFR1pCnMm5Xpq9NkS6LZBXyo67OKx2eHIP+yBLgRUFn1kaE0L1GS/54hUXJEYI7ADfr/PoplyCBQggAdgBJqIU8ZfKOf7yi40U+eOifTBwucrf8eoLgbGASGFuAkwKFrIM/2fbnfiQpfH82EQFYBt3/f7MoPEGJCYFABOgCD8qfa+IeU7VNSZUyyCMwvsJ9evkDxo/nf5lUE+hHgEEA/ztm38nIB/Ft2BPJHYJbAL/T33opLUEFgKAE6AEPJ59nu7krVx/3XypMymSIwloCfHuinX9451tzMhEDLAhwCaBmU1T1IYF39z8f9t8AFAQRWEni4XtlUcdxK7/ACAj0I0AHoATnxJj6s3J+cOH9SR2AxAV8WyJ0CF1Pi/U4EOATQCSsrlcAxig8igQACiwrcqjn2Vfx40TmZAYEWBegAtIjJqn4t8Bj95QegrIkJAgiMJXC+5vLVAXeMNTczIdCCAIcAWkBkFQ8SWE3/O0GxFS4IIDC2wGaa0zfI8meHCYFeBHgWQC/MqTby58p2j1QZkywC7Qj4+RgePWNCoBcBDgH0wpxmI/7V7+OYPvufCQEEmgucpkUOVNzffFGWQKCZAIcAmnkx98ICvtnPXgvPwrsIILCAwDZ6b6niBwvMw1sItCLACEArjKxEAk9VcPySpoDA9ALXaRU7K26eflWsAYHRAowAjLbhnfEFHqpZfTOTjcdfhDkRQGCEgB+ctb7iyyPe52UEWhHgJMBWGNOv5I0S2Cm9AgAItCfwSq3KzwpgQqAzAQ4BdEabZsU7KFM/2Yxr/tNUOYn2JOBnaPhZAct72h6bSSbAIYBkFd5Buv+hde7WwXpZJQLZBXxVzTWKc7JDkH83AowAdOOaZa1HKtHPZUmWPBEYQOBGbXMXxfUDbJtNVi7ACEDlFdxheqtr3T7xb4MOt8GqEcgu4Mdo+74aX8kOQf7tC3ASYPumWdb4YiW6XZZkyROBAQX+QNv2o4OZEGhVgBGAVjnTrMwdx/9SbJImYxJFYDgBP1/DdwY8cbgisOUaBTgHoMZa7T6no7SJT3e/GbaAAAIrBPzIYN8l8CZEEGhLgBGAtiRzrcdn/m+RK2WyRWBQgTW09dsVpw5aCjZelQAjAFVVZy/JHK6tfLWXLbERBBCYLeArAjwKcBssCLQhwAhAG4q51vFhpbttrpTJFoEiBHxFwA2KM4soDYUIL8AIQPgq7DWB39LWvtXrFtkYAgjMFrha//HdN++CBYFpBRgBmFYw1/IfULrc8z9XnZNtWQLrqThXKLg7YFn1ErI0jACErLZBCr2Xtvq9QbbMRhFAYLbApfqPHxd8HywITCPAjYCm0cu17P/OlS7ZIlCsgA8BPL/Y0lGwMAKMAISpqkEL6ruQXangkNGg1cDGEfi1wBn66wA8EJhGgBGAafTyLOtfG+z889Q3mZYvsL+KuH35xaSEJQvQASi5dsop24vKKQolQQCBFQJ8LmkKUwlwCGAqvhQL76gsL06RKUkiEEvgQhX3UbGKTGlLEmAEoKTaKLMs/Moos14oFQK7icBX5zAhMJEAHYCJ2FItRAcgVXWTbDABP5abCYGJBDgEMBFbmoX2VqZnp8mWRBGIJ+A7A26tWB6v6JR4aAFGAIaugbK3z6//suuH0iGwpQgOgQGBSQToAEyilmMZt40X5EiVLBEILcBhgNDVN1zhOQQwnH3pW36yCnhS6YWkfAggsOQWGfhmXXdigUATAUYAmmjlmpfh/1z1TbZxBdZX0Y+IW3xKPpQAHYCh5MverkeGnlN2ESkdAgjMEjgSDQSaCtABaCqWY/5HK81NcqRKlghUIXBQFVmQRK8CdAB65Q6zsQPDlJSCIoCABbZS7AAFAk0E6AA00cozL78m8tQ1mdYjwOe2nrrsJRM6AL0wh9sIIwDhqowCI7CEDgCNoJEAHYBGXClm3llZ+pIiJgQQiCVAxz1WfQ1eWjoAg1dBcQXgV0RxVUKBEBhLYHvN5dsCMyEwlgAdgLGYUs3Er4hU1U2ylQnw+a2sQrtMhw5Al7ox180IQMx6o9QIWIDPL+1gbAE6AGNTpZiRIcQU1UySFQvQAai4cttOjQ5A26Kx18fwYez6o/QIcBIvbWBsAToAY1OlmJEOQIpqJsnKBZ5UeX6k15IAHYCWICtZzR6V5EEaCGQW2D1z8uQ+vgAdgPGtMsy5Y4YkyRGBygX4HFdewW2lRwegLcn469lYKWwYPw0yQCC9AB2A9E1gPAA6AOM5ZZiLL40MtUyOGQT4LGeo5RZypAPQAmIlq9ipkjxIA4HsAhsJgNG87K1gjPzpAIyBlGQWOgBJKpo0UwgwCpCimqdLkg7AdH41Lc0XRk21SS7ZBfg8Z28BY+RPB2AMpCSzMAKQpKJJM4UAHYAU1TxdknQApvOraWm+MGqqTXLJLsDnOXsLGCN/OgBjICWYhUsAE1QyKaYSeGSqbEl2IgE6ABOxVbcQvxaqq1ISSi7AZzp5AxgnfToA4yjVPw/H/+uvYzLMJbC50l03V8pk21SADkBTsTrn9yEAJgQQqEtgk7rSIZu2BegAtC0ac338UohZb5QagYUE+FwvpMN7S+gA0AgssA4MCCBQnQAdgOqqtN2E6AC06xl1bXxRRK05yo3AaAE+16NteEcCdABoBhbgi4J2gEB9AuvVlxIZtSlAB6BNzbjr4hBA3Lqj5AiMEqBjP0qG1x8QoANAQ7AAXxS0AwTqE+BzXV+dtpoRHYBWOcOujBGAsFVHwREYKUAHYCQNb1iADgDtwAJ8UdAOEKhPgM91fXXaakZ0AFrlDLsyRgDCVh0FR2CkAB2AkTS8YQE6ALQDC/BFQTtAoD4BPtf11WmrGdEBaJUz7MoYAQhbdRQcgZECXAY4koY3LEAHgHZggTVgQACB6gT4XFdXpe0mRAegXc+oa7s9asEpNwIIjBS4beQ7vIGABOgA0AwscCsMCCBQnQCf6+qqtN2E6AC06xl1bfxSiFpzlBuB0QJ0AEbb8I4E6ADQDCzAFwXtAIH6BPhc11enrWZEB6BVzrArYwQgbNVRcARGCvxy5Du8gYAE6ADQDCzALwXaAQL1CfC5rq9OW82IDkCrnGFXxghA2Kqj4AiMFKADMJKGNyxAB4B2YAG+KGgHCNQnwOe6vjptNSM6AK1yhl0ZIwBhq46CIzBSgA7ASBresAAdANqBBfiioB0gUJ8An+v66rTVjOgAtMoZdmWMAIStOgqOwEgBrgIYScMbFqADQDuwAL8UaAcI1CfA57q+Om01IzoArXKGXdkVYUtOwRFAYD6Be/XitfO9wWsIzAjQAaAtWOASGBBAoCqBZcrGnQAmBEYK0AEYSZPqjUuV7fJUGZMsAnUL0Kmvu35byY4OQCuM4VdypzK4MnwWJIAAAjMCdABoC4sK0AFYlCjNDHxhpKlqEk0g8NMEOZLilAJ0AKYErGjxiyvKhVQQyC5Ahz57CxgjfzoAYyAlmYUvjCQVTZopBPg8p6jm6ZKkAzCdX01LMwJQU22SS2YBn9C7NDMAuY8nQAdgPKcMc/GLIUMtk2MGAd/X464MiZLjdAJ0AKbzq2lpnzR0f00JkQsCSQU4ATBpxTdNmw5AU7F65+dSwHrrlsxyCTCal6u+J86WDsDEdFUuyHkAVVYrSSUToAOQrMInTZcOwKRydS733TrTIisEUgnwOU5V3ZMnSwdgcrsalzy1xqTICYFEAncr128nypdUpxCgAzAFXoWLnq6c7qswL1JCIIvAd5Soz+dhQmBRAToAixKlmuEXyvbcVBmTLAJ1CTCKV1d9dpoNHYBOeUOunC+QkNVGoRF4QIDPLw1hbAE6AGNTpZmRL5A0VU2ilQncq3zOqCwn0ulQgA5Ah7hBV/0tlZsbAgWtPIqdWuBsZX9bagGSbyRAB6ARV4qZb1KW56XIlCQRqEvgm3WlQzZdC9AB6Fo45vo5DBCz3ih1bgE+t7nrv3H2dAAak6VYgC+SFNVMkhUJ+PLd0yrKh1R6EKAD0ANywE0wlBiw0ihyagFfvuvLeJkQGFuADsDYVKlmvE7Zch5Aqion2eACJwcvP8UfQIAOwADoQTb5ySDlpJgIILBkCZ9XWkFjgVUaL8ECWQS2V6KXZkmWPBEILHChyv6owOWn6AMJMAIwEHyAzS5VGc8MUE6KiEB2gf/MDkD+kwnQAZjMLctSfLFkqWnyjCzwiciFp+zDCXAIYDj7CFveVIW8WrFahMJSRgQSCvjWvwckzJuUWxBgBKAFxIpX4asBvl5xfqSGQHQBRumi1+CA5acDMCB+kE3zBROkoihmOgE//Oe/02VNwq0J0AFojbLaFX1Bmd1ebXYkhkBcgRNU9OvjFp+SDy1AB2DoGih/+7eqiF8sv5iUEIF0AozOpavydhOmA9CuZ61r4yzjWmuWvKIKuGP+P1ELT7nLEKADUEY9lF6K41VAhhpLryXKl0ngc0qWQ3OZaryDXFftYJ2ssj6B5UppTcUh9aVGRgiEE7hfJT5acW24klPgogS4D0BR1VF0YTZQ6S5XrFd0KSkcAvULHKcUn1V/mmTYtQAjAF0L17P+O5WKOwHcdKSeOiWTmAIvVbGvjFl0Sl2SACMAJdVG+WXZXEVcpvDhACYEEOhf4BRtkkNx/btXuUVGAKqs1s6Suk1r3lKxb2dbYMUIILCQwCv0Jk/pXEiI98YWYARgbCpmXCGwrf69RMHzAWgSCPQr8F1tbr9+N8nWahbgMsCaa7eb3C7TarkvQDe2rBWBhQTetdCbvIdAUwFGAJqKMb8FdlNcoKD90B4Q6EfgR9rM7gpfAsiEQCsCjAC0wphuJRcq48+ny5qEERhO4O+0aXb+w/lXuWV+wVVZrb0ktbe2cnYvW2IjCOQWWKr0d1b46X9MCLQmwAhAa5TpVnSOMuYhQemqnYQHEHintsnOfwD42jfJCEDtNdxtfttp9T42uVa3m2HtCKQVOFOZ++ZbDP+nbQLdJc59ALqzzbDmm1ck+eQMyZIjAj0L3KftPUfxs563y+aSCHAIIElFd5jme7TuizpcP6tGIKvAsUr83KzJk3f3AhwC6N44wxYOVZJfz5AoOSLQk4B/9e+quKWn7bGZhAIcAkhY6R2k7LOU/WXl65SZEEBgeoE/0ip85z8mBDoTYASgM9p0K95CGftQAI8LTlf1JNyywKla38Etr5PVIbCSACMAK5HwwoQCt2q5OxSHT7g8iyGAwJIl9wjhWYrrwECgawFOAuxaONf6/0Xp/iBXymSLQKsC79PafGktEwKdC3AIoHPidBvYXxmfpqBtpat6Ep5S4Eot7+dseDSNCYHOBTgE0Dlxug1coYx9PsA+6TInYQSmEzhai/9wulWwNALjC/ArbXwr5hxfYG3NepaCqwLGN2PO3AK+5v9VuQnIvm8BOgB9i+fZnocyfRnTOnlSJlMEJhLwczV86OzuiZZmIQQmFOAQwIRwLLaowPWaw8c0j1x0TmZAIK+Ab6f9FMUNeQnIfCgBOgBDyefYrq8I2FaxV450yRKBxgIv1BLfbrwUCyDQggCHAFpAZBULCnA+wII8vJlY4B+V+2sS50/qAwvQARi4ApJsnvMBklQ0aY4t4F/9Byp84x8mBAYR4BDAIOzpNsr5AOmqnIQXELhR7/m4/00LzMNbCHQuQAegc2I2sEKA8wFoCggsWXK/EH5XcTYYCAwtwK2Ah66BXNv3dc7n50qZbBF4kMB79L8vY4JACQKcA1BCLeQqw85K9wzFxrnSJlsElpwggyMU92KBQAkCdABKqIV8ZdhPKZ+s4CZB+eo+a8bfUeJPVtyWFYC8yxPgEEB5dZKhRP4yfJ6CM6Az1DY5XiSCZyrY+dMWihLgJMCiqiNVYX6qbH+icEeAkahUVZ8q2auU7SGKa1JlTbIhBOgAhKimagt5gTLzLVCfUW2GJJZZwJf5Haq4ODMCuZcrQAeg3LrJUjI/MMiHog7KkjB5phC4Q1k+XeEH/TAhUKQAHYAiqyVdoU5Rxpsr9k2XOQnXKHCfkjpK8fUakyOnegToANRTl9Ez+aoSeJTi0dETofzpBY6RwKfSKwCAAAIINBBYQ/OeqPDd0ggMIraBNzVo78yKAAIIIDBLYF39fboi4pc/Zc5db+/mk4wAAgggMJ2AHyHs26WyQ8UgShvgl/90n3mWRgABBH4tsJr++nc6AXSCCm8Dvq3vy/ncIhBRgJMAI9ZajjIvV5pfUPiQwP45UibLYAJ3qry/o/hksHJTXAQeEKADQEMoXeBrKqCvqT6s9IJSvlQCNytb38DKJ60yIRBSgA5AyGpLV2ifFHiZwk9S4/kV6aq/uIR9W9+nKHwTKyYEwgpwD/awVZey4M9S1r6+eq2U2ZN0CQK+re/TFEtLKAxlQGAaAToA0+ix7BACv6WNfkmxwRAbZ5upBb6n7H1735+nViD5agQYTq2mKtMkcpoyPVBxdZqMSbQEgZNViIMV7PxLqA3K0IoAHYBWGFlJzwLnaXv7KE7pebtsLp+A70PwD4rDFb/Mlz4ZI4AAAmUK+CTWdyr88JUoN4yhnHHqyo+q9nknTAgggAAChQo8VeXy0Cw7VwzaagNnqD1tU2h7p1gIIIAAArMEttTfpyra2gGwnpyWvgHVexWr8+lCAAEEEIgj4EMCf6Pwlzg7cAyatgGG/ON81ikpAgggMK+AT9i6jk4AnaAGbYAh/3k/SryIAAIIxBPYSkX+VoMdQNNfi8xfxwgDQ/7xPtuUGAEEEFhUwE8U/EvF7Qp22BjMbQM/VbvwXf2YEEAAAQQqFdhOeX1RMXcHwP9zmvgpfu9QrFlpeyctBBBAAIE5Ar6me6mCHX9eg+NV/zvyyUAAAQQQyCfgBwn5SoG7FHQE8hhcofo+Kl9zJ2MEEEAAgbkCu+iFryvoBNRtcI/q2Nf1rzu3AfB/BBBAAIHcAi9Q+n6wEB2B+gy+qXrdPXfzJnsEEEAAgYUEHqY3363ww17oCMQ3uFj1+BIFjztfqNXzHgIIIIDArwU21F9vU/iOcHQE4hn8QPXmER3fEZIJAQQQQACBxgLraInXKq5S0BEo38B38TtCwS/+xk2dBRBAAAEE5hN4qF58pcI3jKEjUJ7BiaqXQ+arOF5DAAEEEECgDQEPKb9YcZ6CjsCwBr517+cV+7ZRsawDAQQQQACBcQQ8xPwcxdcU9yroDPRncIu8P6R41DgVxTwIIIAAAgh0JfBwrfh/Kb6roCPQjYFv1uRf+76BD7ft7aols14EEEAAgYkFfFOhv1ZcoqAzMJ2Bh/hPURyj8FUZTAgggAACCIQQeIJK+S+KnyvoDIxv4Ev43qDYOkQtU0gEKhDgspkKKpEUihTwo4gPUxypOEixc5GlHK5QvkXv2YqTFZ9UnD9cUdgyAjkF6ADkrHey7l9gc23ywFnhW9Q+pP9iDLZFH88/S+Hb856q8LX7tw9WGjaMAALcOIM2gMBAAj6+fYBiplOwt/72qEEtk3fu31Z4Z+/wzv/OWpIjDwRqEGAEoIZaJIcaBHz3wScq9lD4efU7rfh3G/1b8q1tPZS/VOGbJfkkSIeH9n11hN9jQgCBQgXoABRaMRQLgRUCa+jf7RWzOwUznYNt9XofnYM7tJ1LFd65z97R+/+XK+5TMCGAQDABOgDBKoziIjBLYHX9vZHCowd+3v3cf+d7zR0KD8/fprh1jH89z40KX9HAhAACFQnQAaioMgdIZRNt079ON1bM3vnM3RH5/76Ry3WKKxVXKDxs7GPEvqMeEwIZBfz9+ziFrxB5hMKXQPoGUz50MtM5G9VR850R/Rn6mYLOmRCYmgvQAWhulmkJPwzHO3jHDnPCr603JYYfu+s7vX1GcZKCzsCUoCxevIC/c/dX+O6Gv62Y9r4HPjyzTOFDNHPDHQR3IJgQQACBRQV8wtkLFe9XfF/hY7v+ddFHuDPwTgV3fxMCU3UCaymj1yg8AtbH58nbWK64UPEhxcsUPneECQEEEHjg5LG9FK9W+EYsHpbv64tpoe14aNO31d2AOkKgAgEf+vpzxTWFfL58h0qPur1O4atOfE4IEwIIJBDwkL6fZvcJxS8UC+2Ih37vZpXv7YqHJagXUqxPwCdovkpxlWLoz9JC2/chhC8qfk/BZ62+dkhGyQX8RfR0xccU3qku9GVQ4ntXq8zPT16HpB9L4GAV90cBP2u+UdMXFC9STHt+T6wao7QIVCTg4f2nKP6fwsfWS9yxNy3TCcrD18IzIVCqwGYq2McVTdt2ifN7ZOBzihcofDkpEwIIFC7gE+jepOjzRKM+v7z8pfRWhQ9lMCFQioCf6fDHipsUfX4e+trWL5XX+xS+8ocJAQQKE/AvY5+572uH+/pSGHI7FynPQwurA4qTU8DX8X8nyefOl+l+WuFHXjMhgMDAAgdp+z5m1+flekPu+Odu+yPK3XfCY0KgbwFf1vf3Cu8U57bLDP8/XXn7PgaZnmjZdxtjewisJOAbifi43DmKDF80i+XoO6H9zkpKvIBAdwKHaNV+DsJibTPD+342hK924HLC7toba0bgAQE/PjbLcGPTL0+PhGxFO0GgQwHfm8In1jZtmxnmv1guR3Zoz6oRSCuwnTL/FF88i37x+jLHVyo8SsKEQJsCz9XKfElqhp35NDmeIiPfYIwJAQSmFPC1uO9S+PrcaT6U2ZY9RV7c9nTKxsfiDwj44Tw+8S3bZ2iafH1O0ocVW9CGEECguYBPrHmF4lrFNB/EzMv6kkFfErlac36WQOABAd8/f+ZRyJk/S5Pm7quS3qLwCZNMCCAwhoCvtT1NMemHjuUebOeHGvlSLSYExhXwZ/BEBZ+ldgx82e6+4+IzHwJZBfyLo/R79Ef8UvSlWu9W8Esk6ydrvLw98vYXCj9CN2I7L7nM98j0rxS+SykTAgjMEthEf/u2myV/gGsom89UPpiWh8A8AnvotbP4DHb+HXSmjLml9zwNkJdyCjxDaZfyqNAadvKL5eBnpH9+uboaAAAaw0lEQVRQsX7O5kbWcwR8/bofP323YrG2w/vtGPncgGNoiQhkFvBzwv8vXzqDfen6Ma2+tIspr8D+Sj3iU/tq6Yj4McQe/WRCIJXApsrWQ2G1fJAj5+FLvHypF1MeAT/d7p8VWW+hXdLn1XcS3DVP0yPT7AJu7JcqSvoQZi+LL/V6efaGmST/w5XnZXz+ivr+8efv4CTtjzQTC/ge4lxXXG7n52TVz+6J22fNqT9CyX1Ckb2zW2r+d6lufr/mBkhuuQWOVvqcaFT+F7AvGTxWsXHu5lpN9r70860KLu0r/7Pnzsk7qml5JILACgGfZVxqz5tyzV83Hql5tYI7Ccb9GP+uis5w//ztu+TP/cdVbzxdMO7njpKvEFhF//L0sHhfQLO/HC9QHT5P4bpkiiFwkIr5TUXJOznKtnD9+E6MvlKKCYGwAu/nS6iaL2FfLuZjlIwIlPtxfKaKdjqfuWo+c19WXTISUO7njZItIPBevoiq+SKa/Wttqer1jxX8Olmg8ff4lm/f66F+P/OBX9X1GXxW9Uqnu8cPFJuaXuD/8GVU/Zex7974l4qtpm8urGECgQ21zJ8o/KAZdvx1G/yn6tgdPSYEihfw4y/5Qspj4JvJHK94voJRgW4/nn6QjK/j/5TiTj5nqb5nPqT65jycbj9frH1KgdfxpZTqS2luR+8m1b9v77zflO2IxR8ssIv++y6Fb98815z/5zHxOVVMCBQp8EK+nPhyntUGfPXA6xVbFNlayy+UH9b0CgW3zM6zgx+nM/em8psuJcwmsK8Svl0xTgNmnlxOvrHQcYqjFJzRvPA3g4/zHqbwMV8+T7k+J+N+L/qQ27MXbka8O64Ax1TGlRo935Z667sK/8uEwEICvrmQb0f7UcU5C82Y7L2dlO/RCl9muXWy3Em3uYAfJ/xExfnNF2WJ2QJ0AKZrDz7pyzcc8QgAEwJNBHxfAV/n7BMIT1P4NtFZJv/S92fGJ/Q9XfH4LImTZ2sCS7Umn2tzfWtrTLgiOgDTVbp/zfnYPxMC0wjcpoW/oXBnwOFHpNY2+VyIpym80/cw/0a1JUg+vQv4x9dTFPf0vuVKNkgHYPKK9DXgfzP54iyJwEiBS/TOCYozFGcrLlb4GGmkaRsVdh/FExRPVewZqfCUNYyAb7Xuk0WZJhCgAzABmhbxr5ivKPCbzI+lmgncotl9zoDPNXGHwLGs2So6ndu/7r2znx2bdbpFVo7AbwReqT8/CEhzAXZgzc021SLnKTZvvihLINCagI99+jyCy+aJy/Wab5TT1uSrF3xynn/VbzsndtX/OQG2LWnWM4mArxjZW/HjSRbOvAwdgOa1/yUtckTzxVgCgV4Ffq6t+cY5Pr/A4S/JuX/fodd8IuvainVm/Tvz97p67eErgluxCoKpWAE/C8KHmzKdTDt1ZdABaEboe48f22wR5kYAAQQQ6EHgPdrGG3rYTjWboAMwflU+SrP62Ota4y/CnAgggAACPQn4RFlfYXJST9sLvxk6AONV4UM121kKzmQez4u5EEAAgSEEfNjrMQrfdItpEQGO6y0CtOJtP4iEnf94VsyFAAIIDCXgx3P70kCmMQT8eE2mhQUO0Nu+xITRkoWdeBcBBBAoQWA3FcL3zvDVWkwLCLBTWwBHb62m+J5ij4Vn410EEEAAgYIErlVZ/Bhp30ODaYQAhwBGwKx4+c/0Lzv/hY14FwEEEChNwPdp+dvSClVaeRgBGF0jPpbkG0v4WmgmBBBAAIFYAstVXN8bwHfQZJpHgBGAeVBWvPQ+/cvOf7QP7yCAAAIlC3j/9gEF57qNqCVg5ofxU8sYPprfhlcRQACBKAJ+ToVvm/2dKAXus5wcAlhZ29f8n6/YceW3eAUBBBBAIJjAL1ReP7PimmDl7ry4HAJYmfj1eomd/8ouvIIAAghEFHiYCu3bBDPNEWAE4MEgG+i/yxTr01IQQAABBKoR8AmBvkPgBdVk1EIijAA8GPE1+i87/xYaFqtAAAEEChLwvu5tBZWniKIwAvCbathQfy5TeLiICQEEEECgLgE/LMijAD7Hi0kCjAD8phm8Vn+y8+djgQACCNQp4B+8b68ztcmyYgTgV24b6Z9livUmY2QpBBBAAIEAAh4FeKzihwHK2nkRGQH4FfHr9A87/86bGxtAAAEEBhVgFGAWPyMAS5ZsIo+lCu76N+jnko0jgAACvQh4FOBxinN72VrBG2EEYMkS//pn519wI6VoCCCAQIsCjAKswMw+ArCpHPzrf50WGxerQgABBBAoX2BvFdGPe087ZR8B8F3/2Pmnbf4kjgACiQXenjj3B1LPPAKwmfL3r/+1szcC8kcAAQSSCuyrvM9Omnvq+wC8QZXOzj9ryydvBBBAIPl9AbKOAGyulu9f/2vxCUAAAQQQSC3weGWf8nHBWc8BeCM7/9QfeJJHAAEEZgTenpUi4wiAr/u/XMGv/6ytnrwRQACBBwvso/+ekw0l4wjAi1XJ7PyztXTyRQABBEYL/OHot+p9J+MIgO/+tGe9VUpmCCCAAAINBW7W/Fso7my4XOjZs40A7KXaYucfuslSeAQQQKB1gQ20xiNbX2vhK8zWAXhZ4fVB8RBAAAEEhhF4+TCbHW6rmQ4BrCHmqxUbD8fNlhFAAAEEChVYrnJtr/BJ4immTCMAz1aNsvNP0axJEgEEEGgs4P3h0Y2XCrxApg4Aw/+BGypFRwABBHoQeKm2kWZkPEuiW6pSPayzag8NiE0ggAACCMQVOERFPyVu8ccveZYRgN8XCTv/8dsFcyKAAAJZBdKMFmcZAfixWvIuWVszeSOAAAIIjC1wu+Z8uOKXYy8RdMYMIwD7q27Y+QdtoBQbAQQQ6FnAT4l9fs/bHGRzGToAaYZzBmlBbBQBBBCoTyDFfqP2QwDuyf1MsV597ZOMEEAAAQQ6FNhV676ow/UPvuraRwB+W8Ls/AdvZhQAAQQQCCdQ/ShA7SMAJ6vJ+ZIOJgQQQAABBJoIXKOZt1bc12ShSPPW3AHYSBVxnaL2UY5I7Y2yIoAAApEEfBL5mZEK3KSsNe8cDxNEzfk1qWfmRQABBBBoLnB480XiLFHzDrLqiovTxCgpAgggEFag6v1IzYcA/OS/LcI2OwqOAAIIIDC0gJ8QuJnihqEL0sX2ax0B2FNY7Py7aDGsEwEEEMgj4H3kU2tNt9YOQNXDNrU2RvJCAAEEChR4WoFlaqVIdABaYWQlCCCAAAKVCrgDUOXh8hqT8o1/fLxm9UobI2khgAACCPQrsJc2d26/m+x+azWOADxZbOz8u287bAEBBBDIIlDlYeUaOwBVVlSWTxl5IoAAAgUKVLlfqfEQwFI1nu0KbEAUCQEEEEAgpsA9KvbGil/GLP78pa5tBGAXpbnd/KnyKgIIIIAAAhMJ+LDyoRMtWfBCtXUAqhymKbj9UDQEEEAgi0B1+xc6AFmaLnkigAACCEwjUF0HoKZzANZUzd6oWGuaGmZZBBBAAAEERgjsptd/POK9cC/XNALwJOmz8w/XBCkwAgggEEbAT5mtZqqpA/CEamqFRBBAAAEEShSoaj9TUwdgvxJbC2VCAAEEEKhGoKr9TE3nAPxMTWzzapoZiSCAAAIIlCiwkQp1U4kFa1qmWkYAtlHi7Pyb1j7zI4AAAgg0Fdi36QKlzl9LB6CqYZlSGwvlQgABBBBYUs3+hg4ArRkBBBBAAIHxBegAjG/Vy5zVDMn0osVGEEAAAQQmFahmf1PDSYAexbhZsd6ktclyCCCAAAIINBDweWdXNJi/yFlrOATgOzOx8y+yeVEoBBBAoEqBKg4D1NABqGY4psqPCUkhgAAC9QlUsd+poQNQRU+svs8HGSGAAALVClSx36EDUG37JDEEEEAAgY4E9tZ6w+8/oyfwUFXCYzqqYFaLAAIIIIDAfAIP04u7zPdGpNeidwAeK+zVI4FTVgQQQACBKgTCHwaI3gEIXwFVfAxIAgEEEMgnEH7/E70DUMWZmPk+N2SMAAIIhBcIv/+J3gHwiRhMCCCAAAII9C2wpza4Wt8bbXN7kTsAqwpixzYxWBcCCCCAAAJjCqyh+bYfc94iZ4vcAdhBoq4AJgQQQAABBIYQ2HWIjba1zcgdgNDwbVUg60EAAQQQGEwg9H4ocgcg/DWYgzVZNowAAggg0IZA6P1Q5A5A6J5XGy2PdSCAAAIIDCoQej9EB2DQtsPGEUAAAQQCC9ABGKjyQg+9DGTGZhFAAAEE2hPYWKtyhJyijgAYfJOQ4hQaAQQQQKAmgbCjAFE7APz6r+njQy4IIIBAXIGw+6OoHYCwPa64bZySI4AAAgjMIxB2f0QHYJ7a5CUEEEAAAQTGFKADMCZUW7OFHXJpC4D1IIAAAggUIRB2f8QIQBHth0IggAACCAQV2EHlXj1i2SN2AAxtcCYEEEAAAQSGFvATAUM+mC5iB+CRwg79CMahWyvbRwABBBBoVSDkYYCIHYCwJ1y02txYGQIIIIBAKQIh90sROwAM/5fS5CkHAggggIAFQu6XInYAtqC9IYAAAgggUJDAlgWVZeyiROwAhIQeu0aYEQEEEEAgmkDIH6Z0AKI1M8qLAAIIIFCaQMgfphE7ACF7WqW1VsqDAAIIINCawGZa06qtra2nFUXsAITsafVUn2wGAQQQQKB/Ae9LN+9/s9NtMVoHYF2lu950KbM0AggggAACrQuE+3EarQPA8H/rbZYVIoAAAgi0IBBu/xStAxCuh9VCo2IVCCCAAALlC4TbP0XrAITrYZXfZikhAggggEALAuH2T9E6AOF6WC00KlaBAAIIIFC+QLj9U7QOQLgeVvltlhIigAACCLQgQAegBcSFVhEOeKFkeA8BBBBAoBqBcD9Qo40A0AGo5rNCIggggEBVAuH2T9E6AOF6WFU1b5JBAAEEEBglEO5ugHQARlUlryOAAAIIIDC+gPen7gSEmSJ1AHyf5YeFkaWgCCCAAALZBDaMlHCkDoBvA8yEAAIIIIBAqQKhblUfqQPAr/9SmzzlQgABBBCwQKj9VKQOQKieFZ8FBBBAAIF0AqH2U5E6AKF6VumaPQkjgAACCITaT0XqAITqWfE5QAABBBBIJxBqP0UHIF37JGEEEEAAgY4E6AB0BBtqaKUjA1aLAAIIIFCuQKj9FCMA5TYkSoYAAgggEEuAEYCO6isUbEcGrBYBBBBAoFwBRgA6qptQsB0ZsFoEEEAAgXIFQv1Q5RBAuQ2JkiGAAAIIxBII9UM1UgcgFGysNktpEUAAAQRaEGAEoAXE+VYRCna+BHgNAQQQQKBqgVD7qUgjAKFgq27iJIcAAgggMJ9AqP1UpA7AGvNp8xoCCCCAAAKFCITaT0XqAKxWSAVTDAQQQAABBOYTCLWfogMwXxXyGgIIIIAAAs0FVm++yHBLROoAhIIdrkrZMgIIIIDAQAKMAHQEHwq2IwNWiwACCCBQrkCo/VSkEYBQsOW2T0qGAAIIINCRwKodrbeT1dIB6ISVlSKAAAIIJBUI82OVDkDSFkraCCCAAAKdCNAB6ICVkwA7QGWVCCCAAAKtCoTZVzEC0Gq9szIEEEAAgeQCjAB00ADCoHaQO6tEAAEEEIghEGZfxQhAjAZFKRFAAAEEYgjQAeignsKgdpA7q0QAAQQQiCEQZl/FCECMBkUpEUAAAQRiCNAB6KCewpxZ2UHurBIBBBBAIIZAmH1VpBGAe2PUPaVEAAEEEEgsEGZfFakDcFviBkXqCCCAAAIxBG6PUcwlS+gARKkpyokAAgggEEGADkAHtRQGtYPcWSUCCCCAQAyBO2IUkxGAKPVEORFAAAEEyhfw8f97yi/mr0rIIYAoNUU5EUAAAQRKFwg1Uh2pAxAKtvRWSvkQQAABBFoXCLWfitQB4CqA1tsqK0QAAQQQaFGADkCLmLNXRQegI1hWiwACCCDQigAdgFYYV14JHYCVTXgFAQQQQKAcAToAHdXFVR2tl9UigAACCCDQhsCVbaykr3VEOgdgaV8obAcBBBBAAIEJBELtpyJ1AJZNUBksggACCCCAQF8Cl/a1oTa2E6kDEKpn1UblsA4EEEAAgVACofZTkToAV6sZ3B2qKVBYBBBAAIFMAowAdFTby7XeyztaN6tFAAEEEEBgGoH7tfCyaVbQ97KRRgBsE2p4pe/KZHsIIIAAAoMJeJT6rsG2PsGG6QBMgMYiCCCAAAIIzBEI9wM1WgdgGU0OAQQQQACBAgVCHf+3X7QOwPkFVjpFQgABBBBAINz+KVoH4EzaGAIIIIAAAgUKhNs/rVIg4mJF+olm2GmxmXgfAQQQQACBngTu0XYeprizp+21sploIwBOOlwvq5WaYiUIIIAAAqUKfF8FC7XzNyQdgFKbE+VCAAEEEIgiEPKHKR2AKM2LciKAAAIIlCoQsgMQ8RyAVdUCblasW2pLoFwIIIAAAqkEtlW2l0fLOOIIwH1CPisaNOVFAAEEEKhS4CplFW7n75qI2AFwuUMOt1TZ9EkKAQQQyC0Qdn8UtQNwXO72RvYIIIAAAoUIhN0fRTwHYKbOL9Mf2xTSACgGAggggEA+AT+ifnOFz0sLN0UdATD0p8NpU2AEEEAAgZoETlQyIXf+roTIHYD/rqkVkQsCCCCAQDiB0PuhyIcA3FKWKXz5BRMCCCCAAAJ9Cnj4fzPFLX1utM1tRR4BsAOHAdpsDawLAQQQQGBcga9pxrA7fycZvQMQevhl3FbGfAgggAACxQmE3/9EPwTgFrFUsV1xTYMCIYAAAgjUKhB++N8VE30EwDl8tNYWRl4IIIAAAkUKfE6lCj38b9UaRgA2UR6+DeNaRTYTCoUAAgggUJvAPkronOhJ1TACcL0q4SPRK4LyI4AAAgiEEPiGShl+52/pGkYAnMcjFT9R1NChCfEJoJAIIIBAUoFnKO+v1pB7LTvMn6oyPltDhZADAggggECxAuerZMcXW7qGBaulA+C039Mwd2ZHAAEEEECgicA/aOb7myxQ8ry1HAKYMT5FfxxUMjhlQwABBBAIKXC1Sr29wpcAVjHVNALgCmEUoIpmSRIIIIBAcQL/pBJVs/O3bm0jAM7pVMWBxTUdCoQAAgggEFXgShV8V8VtUROYr9y1jQA4x1cr7psvWV5DAAEEEEBgAoHXaZmqdv42WHUCiNIXuVYF9M2BHl96QSkfAggggEDxAqeohK8vvpQTFLDGQwBm2EDh+wJsOoEJiyCAAAIIIGCBexV7KXz5X3VTjYcAXEk3K95UXW2REAIIIIBAnwLHamNV7vyNWOsIwExuZ+oPDgX0+XFhWwgggEAdAj9XGjsrwj/0Z1R11DoC4Hx9s4ZXKZaPSp7XEUAAAQQQGCHgUeRqd/7OucaTAGfXpW/c4PMBnjiignkZAQQQQACBuQIn6YXXzn2xtv/XfAhgpq5W1x+nKfarrfLIBwEEEECgdYFrtEaf+Ocryqqeaj4EMFNx9+iP5yt8YiATAggggAACowR8D5kXKarf+RsgQwfAeS5TvNR/MCGAAAIIIDBC4G16/ZQR71X3cu3nAMyusIv0n/UVnA9QXTMmIQQQQGBqAT/m94+mXkugFWQ4B2B2dfh8gG8puDQwUCOlqAgggEDHAr7Xv4/7X9/xdopafZZDADPoM+cD3FRULVAYBBBAAIGhBHy3vxcoUu38jZ2tA+CcL1McqbjD/2FCAAEEEEgr4PvFHKM4PaNAxg6A69mPDD5K4REBJgQQQACBnAJ/prQ/mjP1nCMAM3X9Ff3xYgWPDs7a+skbAQQyC7xZyb8/M0CmqwDmq+cf6UWf/PFsRbYTIufz4DUEEEAgg8C7laQv+Us9Ze8AuPK/r/BNgg5P3RJIHgEEEMgh8K9K8y9ypLpwlnQAfuVzlv7xQ4MOWZiLdxFAAAEEAgv8h8ruk/6YJEAH4DfN4Jv6k04AHwsEEECgToGPKa0/WPE9X2eGDbOiA/BgMHcCLlYcoVitoSWzI4AAAgiUKfBWFes1Ch4PP6t+OPFt/sZ6gF7+gmKT+d/mVQQQQACBAAJ3qYwvV3wiQFl7LyIdgNHkj9RbX1bsMnoW3kEAAQQQKFTgBpXruQo/Dp5pHoGsNwKah2Kll36qV/zgoFNWeocXEEAAAQRKFvCh3Cco2PkvUEucA7AAjt66U+Gho0co/KAIJgQQQACBsgV8p9fDFFeVXczhS8cIwOJ14NsF+xiS7xro+wUwIYAAAgiUJ+Dv6rcoDlXcWF7xyisR5wA0qxOPBHx0RQNrtiRzI4AAAgh0JXCBVvwShW/sxjSmAIcAxoRaMdsv9O/HFX6c8MEKLhVs5sfcCCCAQJsCfprfPyr8OF/f1p2pgQAjAA2w5sy6m/7vu0o9bvJVsCQCCCCAwIQCl2m5lypOmXD59IsxAjB5E7hei35kxeKP17+MBkxuyZIIIIDAuAK+mc+/KY5UXDTuQsy3sgAjACubTPLKNlronYrfU3Bi5SSCLIMAAggsLnC8Znmj4oeLz8ociwnQAVhMqNn7e2r2v1c8tdlizI0AAgggsIDA9/TeGxQnLTAPbzUU4NdqQ7BFZv+B3n+awh2AcxeZl7cRQAABBBYWWKa3PbK6j4Kd/8JWjd9lBKAx2dgL2Nb3DvBDKHYaeylmRAABBBD4mQjeozhW4fv5M3UgQAegA9Q5q7SxRwVepXi6glGX7s3ZAgIIxBQ4Q8V+v+IzCt/Yh6lDAToAHeLOs+od9NqfKl6m2HCe93kJAQQQyCYwc8t17/i5kU+PtU8HoEfsWZtaW3/78IBHBR4zTBHYKgIIIDCowDJt/V8VvqTPT+5j6lmADkDP4PNszlcO+JGVjsfO8z4vIYAAArUI+CmrX1gRHu73Nf1MAwnQARgIfsRmt9Prz1G4M/AkBTdqGgHFywggEEbAl/DN7PTPC1PqBAWlA1BuJW+soh2heKbCz7XeutyiUjIEEEDg1wK+S+p3Fb5pj3f8l2NTpgAdgDLrZb5Sba4X91PsOyvcSWBCAAEEhhK4VRs+R+Ed/kwsHaowbLeZAB2AZl6lze2rCtwh8LkD286KLfQ3lxuWVluUB4G4Aj9X0S+bFefrb+/wL1RwHD9ovdIBCFpxixR7db3vQwazOwX+/3oKX4Gw1op//ffs8OtrKpgQQKA+gbuV0u0r4o5Zf8+85n9vU/ixuh62n9nh+2/Pz1SZwP8HnBwV0jOGZBIAAAAASUVORK5CYII=;" vertex="1" parent="1">
          <mxGeometry x="530" y="160" width="62" height="62" as="geometry" />
        </mxCell>
        <mxCell id="9kofIlFbRkQfjmpeaeeo-4" value="" style="shape=image;verticalLabelPosition=bottom;labelBackgroundColor=default;verticalAlign=top;aspect=fixed;imageAspect=0;image=data:image/png,iVBORw0KGgoAAAANSUhEUgAAAgAAAAIACAYAAAD0eNT6AAAABHNCSVQICAgIfAhkiAAAIABJREFUeF7t3Qe0bVV97/GLFKnSQUCqVAURKSpEioiiYsGQ2GJQEzRFkxf7i8YSX2KMZsQk8uLwGUtMjMYaRQURBKWIgqKAiCD30kW60svl/X54jx7OPfucvfZeZf7n/7vG+I977t6rzP9nzr3X3HO1VZYwIYBANIEtVeAdFTspNlGsq1hnzH/X0Hy3K25T3DrGv57nKsXFiksUtyiYEECgAoFVKsiBFBCoUWD2Tn5mZ+8d/iMV3tkPNV2nDbsjMNMhmP0vnYOhaoXtIjCBAB2ACdBYBIGWBXbV+g5cEXvo36F38pOmd70WdIfgHMU3V8S1k66M5RBAoFsBOgDd+rJ2BOYKPEQv7Kl4kmJmp7/p3Jkq+v9FymWmM+B/L68oN1JBILQAHYDQ1UfhAwisrjLuo5jZ2R+gv9cPUO6uiniZVjy7Q/CTrjbEehFAAAEEEOhbwDv9Zys+pfDJdvcTIw2ukM17FXv1XUlsDwEEEEAAgTYEPJrmYf0PKG5QsNNvbvAjub1ZsX0bFcI6EEAAAQQQ6FLg0Vr53yqWKdjpt2dwujz/ROHLHJkQQAABBBAoQuARKsXrFecq2Ol3a3CPjI9TvFCxdhG1TyEQQAABBNIJ7KuMP69YrmDH37+B7zPwbsXm6VoeCSOAAAIIDCJwiLZ6ooKdfhkGd6gujlVsO0hrYKMIIIAAAlUL+KS+ZynOVLDjL9PAhwc+pvCNlJgQQAABBBCYSmBVLe3jzT9UsOOPYeBDMp9R7D1VzbMwAggggEBKAT8k5xiFb2XLjj+uwfGqP990iQkBBBBAAIFFBY7SHL5FLTv+egxOUn3utmjNMwMCCCCAQEoBP2XPvxjZ8ddpcLfq9u8UXD6Y8uNN0ggggMDKAmvqpXco7lSw86/fwM8feO7KzYBXEEAAAQQyCTxdyfp59uz48xn4hkLcZjjTp51cEUAAAQlsrfisgh1/boPb1Qb+SvFQPhUIIIAAAnUL+Ml8b1DcqmDnj8FMG/BjiA+ru+mTHQIIIJBXYE+lfr6CHT8Go9rAJ9Q+1s/7ESFzBBBAoD6BVygl3zJ21Bc/r2Mz0wZ8Tgg3EarvO4CMEEAgmcC6yte/6tjBY9CkDfiKkD9N9lkhXQQQQKAagccok4sUTb74mRev2W3g02o/HBKo5iuBRBBAIIPAHypJn+HNDh2DadsAhwQyfGOQIwIIhBdYRxl8nB0/HZ+W2wCHBMJ/NZAAAgjULLC7kruw5S/+aX89snxdIxAcEqj5G4TcEEAgpMDRKjVD/nXtbEvtPPmQwGNDfkooNAIIIFCZwFuUT6k7C8pVZ93cojZ3SGWfI9JBAAEEwgisopL+s4KdLAZDtAGfF/C8MJ8WCooAAghUIuBb+v6XYogvfraJ+0wbuFdt8JhKPlOkkVxg1eT5k34MAd/c538Uz4lRXEpZscBDlNuzFPcovlVxnqSWQIAOQIJKDp7iJir/1xQHBs+D4tclcKjS2VBxQl1pkU0mAToAmWo7Xq7bqMjfUPgOf0wIlCbwBBVoR8WXFMtLKxzlQWAxAZ9UxYRAiQKPVqH862qrEgtHmRCYJfBV/X2UwpelMiEQRoAOQJiqSlXQ/ZXtcQoPsTIhEEHgTBXyCMWNEQpLGRGwAB0A2kFpAk9Ugb6uWLu0glEeBBYROFfvH6zwPQOYEChewGe0MiFQioCH/b+sYOdfSo1QjiYCvlugr1ZZs8lCzIvAUAJ0AIaSZ7tzBXzCn4/5M+w/V4b/RxI4SIX1/So4wTpSrSUtK400acUXlrYv9fPZ/tsXVi6Kg8AkArtqoS0VvjqACYFiBegAFFs1aQrmx/n6Ov8902RMohkEHqck11CcnCFZcowpQAcgZr3VUmrf3tfHTLnJTy01Sh6zBZ6k/9ysOAsWBEoUoANQYq3kKJOvQPm44rk50iXLpAJPU94XK85Lmj9pFyzASYAFV07lRfsn5ffCynMkPQTc0f2owh0BJgSKEqADUFR1pCnMm5Xpq9NkS6LZBXyo67OKx2eHIP+yBLgRUFn1kaE0L1GS/54hUXJEYI7ADfr/PoplyCBQggAdgBJqIU8ZfKOf7yi40U+eOifTBwucrf8eoLgbGASGFuAkwKFrIM/2fbnfiQpfH82EQFYBt3/f7MoPEGJCYFABOgCD8qfa+IeU7VNSZUyyCMwvsJ9evkDxo/nf5lUE+hHgEEA/ztm38nIB/Ft2BPJHYJbAL/T33opLUEFgKAE6AEPJ59nu7krVx/3XypMymSIwloCfHuinX9451tzMhEDLAhwCaBmU1T1IYF39z8f9t8AFAQRWEni4XtlUcdxK7/ACAj0I0AHoATnxJj6s3J+cOH9SR2AxAV8WyJ0CF1Pi/U4EOATQCSsrlcAxig8igQACiwrcqjn2Vfx40TmZAYEWBegAtIjJqn4t8Bj95QegrIkJAgiMJXC+5vLVAXeMNTczIdCCAIcAWkBkFQ8SWE3/O0GxFS4IIDC2wGaa0zfI8meHCYFeBHgWQC/MqTby58p2j1QZkywC7Qj4+RgePWNCoBcBDgH0wpxmI/7V7+OYPvufCQEEmgucpkUOVNzffFGWQKCZAIcAmnkx98ICvtnPXgvPwrsIILCAwDZ6b6niBwvMw1sItCLACEArjKxEAk9VcPySpoDA9ALXaRU7K26eflWsAYHRAowAjLbhnfEFHqpZfTOTjcdfhDkRQGCEgB+ctb7iyyPe52UEWhHgJMBWGNOv5I0S2Cm9AgAItCfwSq3KzwpgQqAzAQ4BdEabZsU7KFM/2Yxr/tNUOYn2JOBnaPhZAct72h6bSSbAIYBkFd5Buv+hde7WwXpZJQLZBXxVzTWKc7JDkH83AowAdOOaZa1HKtHPZUmWPBEYQOBGbXMXxfUDbJtNVi7ACEDlFdxheqtr3T7xb4MOt8GqEcgu4Mdo+74aX8kOQf7tC3ASYPumWdb4YiW6XZZkyROBAQX+QNv2o4OZEGhVgBGAVjnTrMwdx/9SbJImYxJFYDgBP1/DdwY8cbgisOUaBTgHoMZa7T6no7SJT3e/GbaAAAIrBPzIYN8l8CZEEGhLgBGAtiRzrcdn/m+RK2WyRWBQgTW09dsVpw5aCjZelQAjAFVVZy/JHK6tfLWXLbERBBCYLeArAjwKcBssCLQhwAhAG4q51vFhpbttrpTJFoEiBHxFwA2KM4soDYUIL8AIQPgq7DWB39LWvtXrFtkYAgjMFrha//HdN++CBYFpBRgBmFYw1/IfULrc8z9XnZNtWQLrqThXKLg7YFn1ErI0jACErLZBCr2Xtvq9QbbMRhFAYLbApfqPHxd8HywITCPAjYCm0cu17P/OlS7ZIlCsgA8BPL/Y0lGwMAKMAISpqkEL6ruQXangkNGg1cDGEfi1wBn66wA8EJhGgBGAafTyLOtfG+z889Q3mZYvsL+KuH35xaSEJQvQASi5dsop24vKKQolQQCBFQJ8LmkKUwlwCGAqvhQL76gsL06RKUkiEEvgQhX3UbGKTGlLEmAEoKTaKLMs/Moos14oFQK7icBX5zAhMJEAHYCJ2FItRAcgVXWTbDABP5abCYGJBDgEMBFbmoX2VqZnp8mWRBGIJ+A7A26tWB6v6JR4aAFGAIaugbK3z6//suuH0iGwpQgOgQGBSQToAEyilmMZt40X5EiVLBEILcBhgNDVN1zhOQQwnH3pW36yCnhS6YWkfAggsOQWGfhmXXdigUATAUYAmmjlmpfh/1z1TbZxBdZX0Y+IW3xKPpQAHYCh5MverkeGnlN2ESkdAgjMEjgSDQSaCtABaCqWY/5HK81NcqRKlghUIXBQFVmQRK8CdAB65Q6zsQPDlJSCIoCABbZS7AAFAk0E6AA00cozL78m8tQ1mdYjwOe2nrrsJRM6AL0wh9sIIwDhqowCI7CEDgCNoJEAHYBGXClm3llZ+pIiJgQQiCVAxz1WfQ1eWjoAg1dBcQXgV0RxVUKBEBhLYHvN5dsCMyEwlgAdgLGYUs3Er4hU1U2ylQnw+a2sQrtMhw5Al7ox180IQMx6o9QIWIDPL+1gbAE6AGNTpZiRIcQU1UySFQvQAai4cttOjQ5A26Kx18fwYez6o/QIcBIvbWBsAToAY1OlmJEOQIpqJsnKBZ5UeX6k15IAHYCWICtZzR6V5EEaCGQW2D1z8uQ+vgAdgPGtMsy5Y4YkyRGBygX4HFdewW2lRwegLcn469lYKWwYPw0yQCC9AB2A9E1gPAA6AOM5ZZiLL40MtUyOGQT4LGeo5RZypAPQAmIlq9ipkjxIA4HsAhsJgNG87K1gjPzpAIyBlGQWOgBJKpo0UwgwCpCimqdLkg7AdH41Lc0XRk21SS7ZBfg8Z28BY+RPB2AMpCSzMAKQpKJJM4UAHYAU1TxdknQApvOraWm+MGqqTXLJLsDnOXsLGCN/OgBjICWYhUsAE1QyKaYSeGSqbEl2IgE6ABOxVbcQvxaqq1ISSi7AZzp5AxgnfToA4yjVPw/H/+uvYzLMJbC50l03V8pk21SADkBTsTrn9yEAJgQQqEtgk7rSIZu2BegAtC0ac338UohZb5QagYUE+FwvpMN7S+gA0AgssA4MCCBQnQAdgOqqtN2E6AC06xl1bXxRRK05yo3AaAE+16NteEcCdABoBhbgi4J2gEB9AuvVlxIZtSlAB6BNzbjr4hBA3Lqj5AiMEqBjP0qG1x8QoANAQ7AAXxS0AwTqE+BzXV+dtpoRHYBWOcOujBGAsFVHwREYKUAHYCQNb1iADgDtwAJ8UdAOEKhPgM91fXXaakZ0AFrlDLsyRgDCVh0FR2CkAB2AkTS8YQE6ALQDC/BFQTtAoD4BPtf11WmrGdEBaJUz7MoYAQhbdRQcgZECXAY4koY3LEAHgHZggTVgQACB6gT4XFdXpe0mRAegXc+oa7s9asEpNwIIjBS4beQ7vIGABOgA0AwscCsMCCBQnQCf6+qqtN2E6AC06xl1bfxSiFpzlBuB0QJ0AEbb8I4E6ADQDCzAFwXtAIH6BPhc11enrWZEB6BVzrArYwQgbNVRcARGCvxy5Du8gYAE6ADQDCzALwXaAQL1CfC5rq9OW82IDkCrnGFXxghA2Kqj4AiMFKADMJKGNyxAB4B2YAG+KGgHCNQnwOe6vjptNSM6AK1yhl0ZIwBhq46CIzBSgA7ASBresAAdANqBBfiioB0gUJ8An+v66rTVjOgAtMoZdmWMAIStOgqOwEgBrgIYScMbFqADQDuwAL8UaAcI1CfA57q+Om01IzoArXKGXdkVYUtOwRFAYD6Be/XitfO9wWsIzAjQAaAtWOASGBBAoCqBZcrGnQAmBEYK0AEYSZPqjUuV7fJUGZMsAnUL0Kmvu35byY4OQCuM4VdypzK4MnwWJIAAAjMCdABoC4sK0AFYlCjNDHxhpKlqEk0g8NMEOZLilAJ0AKYErGjxiyvKhVQQyC5Ahz57CxgjfzoAYyAlmYUvjCQVTZopBPg8p6jm6ZKkAzCdX01LMwJQU22SS2YBn9C7NDMAuY8nQAdgPKcMc/GLIUMtk2MGAd/X464MiZLjdAJ0AKbzq2lpnzR0f00JkQsCSQU4ATBpxTdNmw5AU7F65+dSwHrrlsxyCTCal6u+J86WDsDEdFUuyHkAVVYrSSUToAOQrMInTZcOwKRydS733TrTIisEUgnwOU5V3ZMnSwdgcrsalzy1xqTICYFEAncr128nypdUpxCgAzAFXoWLnq6c7qswL1JCIIvAd5Soz+dhQmBRAToAixKlmuEXyvbcVBmTLAJ1CTCKV1d9dpoNHYBOeUOunC+QkNVGoRF4QIDPLw1hbAE6AGNTpZmRL5A0VU2ilQncq3zOqCwn0ulQgA5Ah7hBV/0tlZsbAgWtPIqdWuBsZX9bagGSbyRAB6ARV4qZb1KW56XIlCQRqEvgm3WlQzZdC9AB6Fo45vo5DBCz3ih1bgE+t7nrv3H2dAAak6VYgC+SFNVMkhUJ+PLd0yrKh1R6EKAD0ANywE0wlBiw0ihyagFfvuvLeJkQGFuADsDYVKlmvE7Zch5Aqion2eACJwcvP8UfQIAOwADoQTb5ySDlpJgIILBkCZ9XWkFjgVUaL8ECWQS2V6KXZkmWPBEILHChyv6owOWn6AMJMAIwEHyAzS5VGc8MUE6KiEB2gf/MDkD+kwnQAZjMLctSfLFkqWnyjCzwiciFp+zDCXAIYDj7CFveVIW8WrFahMJSRgQSCvjWvwckzJuUWxBgBKAFxIpX4asBvl5xfqSGQHQBRumi1+CA5acDMCB+kE3zBROkoihmOgE//Oe/02VNwq0J0AFojbLaFX1Bmd1ebXYkhkBcgRNU9OvjFp+SDy1AB2DoGih/+7eqiF8sv5iUEIF0AozOpavydhOmA9CuZ61r4yzjWmuWvKIKuGP+P1ELT7nLEKADUEY9lF6K41VAhhpLryXKl0ngc0qWQ3OZaryDXFftYJ2ssj6B5UppTcUh9aVGRgiEE7hfJT5acW24klPgogS4D0BR1VF0YTZQ6S5XrFd0KSkcAvULHKcUn1V/mmTYtQAjAF0L17P+O5WKOwHcdKSeOiWTmAIvVbGvjFl0Sl2SACMAJdVG+WXZXEVcpvDhACYEEOhf4BRtkkNx/btXuUVGAKqs1s6Suk1r3lKxb2dbYMUIILCQwCv0Jk/pXEiI98YWYARgbCpmXCGwrf69RMHzAWgSCPQr8F1tbr9+N8nWahbgMsCaa7eb3C7TarkvQDe2rBWBhQTetdCbvIdAUwFGAJqKMb8FdlNcoKD90B4Q6EfgR9rM7gpfAsiEQCsCjAC0wphuJRcq48+ny5qEERhO4O+0aXb+w/lXuWV+wVVZrb0ktbe2cnYvW2IjCOQWWKr0d1b46X9MCLQmwAhAa5TpVnSOMuYhQemqnYQHEHintsnOfwD42jfJCEDtNdxtfttp9T42uVa3m2HtCKQVOFOZ++ZbDP+nbQLdJc59ALqzzbDmm1ck+eQMyZIjAj0L3KftPUfxs563y+aSCHAIIElFd5jme7TuizpcP6tGIKvAsUr83KzJk3f3AhwC6N44wxYOVZJfz5AoOSLQk4B/9e+quKWn7bGZhAIcAkhY6R2k7LOU/WXl65SZEEBgeoE/0ip85z8mBDoTYASgM9p0K95CGftQAI8LTlf1JNyywKla38Etr5PVIbCSACMAK5HwwoQCt2q5OxSHT7g8iyGAwJIl9wjhWYrrwECgawFOAuxaONf6/0Xp/iBXymSLQKsC79PafGktEwKdC3AIoHPidBvYXxmfpqBtpat6Ep5S4Eot7+dseDSNCYHOBTgE0Dlxug1coYx9PsA+6TInYQSmEzhai/9wulWwNALjC/ArbXwr5hxfYG3NepaCqwLGN2PO3AK+5v9VuQnIvm8BOgB9i+fZnocyfRnTOnlSJlMEJhLwczV86OzuiZZmIQQmFOAQwIRwLLaowPWaw8c0j1x0TmZAIK+Ab6f9FMUNeQnIfCgBOgBDyefYrq8I2FaxV450yRKBxgIv1BLfbrwUCyDQggCHAFpAZBULCnA+wII8vJlY4B+V+2sS50/qAwvQARi4ApJsnvMBklQ0aY4t4F/9Byp84x8mBAYR4BDAIOzpNsr5AOmqnIQXELhR7/m4/00LzMNbCHQuQAegc2I2sEKA8wFoCggsWXK/EH5XcTYYCAwtwK2Ah66BXNv3dc7n50qZbBF4kMB79L8vY4JACQKcA1BCLeQqw85K9wzFxrnSJlsElpwggyMU92KBQAkCdABKqIV8ZdhPKZ+s4CZB+eo+a8bfUeJPVtyWFYC8yxPgEEB5dZKhRP4yfJ6CM6Az1DY5XiSCZyrY+dMWihLgJMCiqiNVYX6qbH+icEeAkahUVZ8q2auU7SGKa1JlTbIhBOgAhKimagt5gTLzLVCfUW2GJJZZwJf5Haq4ODMCuZcrQAeg3LrJUjI/MMiHog7KkjB5phC4Q1k+XeEH/TAhUKQAHYAiqyVdoU5Rxpsr9k2XOQnXKHCfkjpK8fUakyOnegToANRTl9Ez+aoSeJTi0dETofzpBY6RwKfSKwCAAAIINBBYQ/OeqPDd0ggMIraBNzVo78yKAAIIIDBLYF39fboi4pc/Zc5db+/mk4wAAgggMJ2AHyHs26WyQ8UgShvgl/90n3mWRgABBH4tsJr++nc6AXSCCm8Dvq3vy/ncIhBRgJMAI9ZajjIvV5pfUPiQwP45UibLYAJ3qry/o/hksHJTXAQeEKADQEMoXeBrKqCvqT6s9IJSvlQCNytb38DKJ60yIRBSgA5AyGpLV2ifFHiZwk9S4/kV6aq/uIR9W9+nKHwTKyYEwgpwD/awVZey4M9S1r6+eq2U2ZN0CQK+re/TFEtLKAxlQGAaAToA0+ix7BACv6WNfkmxwRAbZ5upBb6n7H1735+nViD5agQYTq2mKtMkcpoyPVBxdZqMSbQEgZNViIMV7PxLqA3K0IoAHYBWGFlJzwLnaXv7KE7pebtsLp+A70PwD4rDFb/Mlz4ZI4AAAmUK+CTWdyr88JUoN4yhnHHqyo+q9nknTAgggAAChQo8VeXy0Cw7VwzaagNnqD1tU2h7p1gIIIAAArMEttTfpyra2gGwnpyWvgHVexWr8+lCAAEEEIgj4EMCf6Pwlzg7cAyatgGG/ON81ikpAgggMK+AT9i6jk4AnaAGbYAh/3k/SryIAAIIxBPYSkX+VoMdQNNfi8xfxwgDQ/7xPtuUGAEEEFhUwE8U/EvF7Qp22BjMbQM/VbvwXf2YEEAAAQQqFdhOeX1RMXcHwP9zmvgpfu9QrFlpeyctBBBAAIE5Ar6me6mCHX9eg+NV/zvyyUAAAQQQyCfgBwn5SoG7FHQE8hhcofo+Kl9zJ2MEEEAAgbkCu+iFryvoBNRtcI/q2Nf1rzu3AfB/BBBAAIHcAi9Q+n6wEB2B+gy+qXrdPXfzJnsEEEAAgYUEHqY3363ww17oCMQ3uFj1+BIFjztfqNXzHgIIIIDArwU21F9vU/iOcHQE4hn8QPXmER3fEZIJAQQQQACBxgLraInXKq5S0BEo38B38TtCwS/+xk2dBRBAAAEE5hN4qF58pcI3jKEjUJ7BiaqXQ+arOF5DAAEEEECgDQEPKb9YcZ6CjsCwBr517+cV+7ZRsawDAQQQQACBcQQ8xPwcxdcU9yroDPRncIu8P6R41DgVxTwIIIAAAgh0JfBwrfh/Kb6roCPQjYFv1uRf+76BD7ft7aols14EEEAAgYkFfFOhv1ZcoqAzMJ2Bh/hPURyj8FUZTAgggAACCIQQeIJK+S+KnyvoDIxv4Ev43qDYOkQtU0gEKhDgspkKKpEUihTwo4gPUxypOEixc5GlHK5QvkXv2YqTFZ9UnD9cUdgyAjkF6ADkrHey7l9gc23ywFnhW9Q+pP9iDLZFH88/S+Hb856q8LX7tw9WGjaMAALcOIM2gMBAAj6+fYBiplOwt/72qEEtk3fu31Z4Z+/wzv/OWpIjDwRqEGAEoIZaJIcaBHz3wScq9lD4efU7rfh3G/1b8q1tPZS/VOGbJfkkSIeH9n11hN9jQgCBQgXoABRaMRQLgRUCa+jf7RWzOwUznYNt9XofnYM7tJ1LFd65z97R+/+XK+5TMCGAQDABOgDBKoziIjBLYHX9vZHCowd+3v3cf+d7zR0KD8/fprh1jH89z40KX9HAhAACFQnQAaioMgdIZRNt079ON1bM3vnM3RH5/76Ry3WKKxVXKDxs7GPEvqMeEwIZBfz9+ziFrxB5hMKXQPoGUz50MtM5G9VR850R/Rn6mYLOmRCYmgvQAWhulmkJPwzHO3jHDnPCr603JYYfu+s7vX1GcZKCzsCUoCxevIC/c/dX+O6Gv62Y9r4HPjyzTOFDNHPDHQR3IJgQQACBRQV8wtkLFe9XfF/hY7v+ddFHuDPwTgV3fxMCU3UCaymj1yg8AtbH58nbWK64UPEhxcsUPneECQEEEHjg5LG9FK9W+EYsHpbv64tpoe14aNO31d2AOkKgAgEf+vpzxTWFfL58h0qPur1O4atOfE4IEwIIJBDwkL6fZvcJxS8UC+2Ih37vZpXv7YqHJagXUqxPwCdovkpxlWLoz9JC2/chhC8qfk/BZ62+dkhGyQX8RfR0xccU3qku9GVQ4ntXq8zPT16HpB9L4GAV90cBP2u+UdMXFC9STHt+T6wao7QIVCTg4f2nKP6fwsfWS9yxNy3TCcrD18IzIVCqwGYq2McVTdt2ifN7ZOBzihcofDkpEwIIFC7gE+jepOjzRKM+v7z8pfRWhQ9lMCFQioCf6fDHipsUfX4e+trWL5XX+xS+8ocJAQQKE/AvY5+572uH+/pSGHI7FynPQwurA4qTU8DX8X8nyefOl+l+WuFHXjMhgMDAAgdp+z5m1+flekPu+Odu+yPK3XfCY0KgbwFf1vf3Cu8U57bLDP8/XXn7PgaZnmjZdxtjewisJOAbifi43DmKDF80i+XoO6H9zkpKvIBAdwKHaNV+DsJibTPD+342hK924HLC7toba0bgAQE/PjbLcGPTL0+PhGxFO0GgQwHfm8In1jZtmxnmv1guR3Zoz6oRSCuwnTL/FF88i37x+jLHVyo8SsKEQJsCz9XKfElqhp35NDmeIiPfYIwJAQSmFPC1uO9S+PrcaT6U2ZY9RV7c9nTKxsfiDwj44Tw+8S3bZ2iafH1O0ocVW9CGEECguYBPrHmF4lrFNB/EzMv6kkFfErlac36WQOABAd8/f+ZRyJk/S5Pm7quS3qLwCZNMCCAwhoCvtT1NMemHjuUebOeHGvlSLSYExhXwZ/BEBZ+ldgx82e6+4+IzHwJZBfyLo/R79Ef8UvSlWu9W8Esk6ydrvLw98vYXCj9CN2I7L7nM98j0rxS+SykTAgjMEthEf/u2myV/gGsom89UPpiWh8A8AnvotbP4DHb+HXSmjLml9zwNkJdyCjxDaZfyqNAadvKL5eBnpH9+uboaAAAaw0lEQVRQsX7O5kbWcwR8/bofP323YrG2w/vtGPncgGNoiQhkFvBzwv8vXzqDfen6Ma2+tIspr8D+Sj3iU/tq6Yj4McQe/WRCIJXApsrWQ2G1fJAj5+FLvHypF1MeAT/d7p8VWW+hXdLn1XcS3DVP0yPT7AJu7JcqSvoQZi+LL/V6efaGmST/w5XnZXz+ivr+8efv4CTtjzQTC/ge4lxXXG7n52TVz+6J22fNqT9CyX1Ckb2zW2r+d6lufr/mBkhuuQWOVvqcaFT+F7AvGTxWsXHu5lpN9r70860KLu0r/7Pnzsk7qml5JILACgGfZVxqz5tyzV83Hql5tYI7Ccb9GP+uis5w//ztu+TP/cdVbzxdMO7njpKvEFhF//L0sHhfQLO/HC9QHT5P4bpkiiFwkIr5TUXJOznKtnD9+E6MvlKKCYGwAu/nS6iaL2FfLuZjlIwIlPtxfKaKdjqfuWo+c19WXTISUO7njZItIPBevoiq+SKa/Wttqer1jxX8Olmg8ff4lm/f66F+P/OBX9X1GXxW9Uqnu8cPFJuaXuD/8GVU/Zex7974l4qtpm8urGECgQ21zJ8o/KAZdvx1G/yn6tgdPSYEihfw4y/5Qspj4JvJHK94voJRgW4/nn6QjK/j/5TiTj5nqb5nPqT65jycbj9frH1KgdfxpZTqS2luR+8m1b9v77zflO2IxR8ssIv++y6Fb98815z/5zHxOVVMCBQp8EK+nPhyntUGfPXA6xVbFNlayy+UH9b0CgW3zM6zgx+nM/em8psuJcwmsK8Svl0xTgNmnlxOvrHQcYqjFJzRvPA3g4/zHqbwMV8+T7k+J+N+L/qQ27MXbka8O64Ax1TGlRo935Z667sK/8uEwEICvrmQb0f7UcU5C82Y7L2dlO/RCl9muXWy3Em3uYAfJ/xExfnNF2WJ2QJ0AKZrDz7pyzcc8QgAEwJNBHxfAV/n7BMIT1P4NtFZJv/S92fGJ/Q9XfH4LImTZ2sCS7Umn2tzfWtrTLgiOgDTVbp/zfnYPxMC0wjcpoW/oXBnwOFHpNY2+VyIpym80/cw/0a1JUg+vQv4x9dTFPf0vuVKNkgHYPKK9DXgfzP54iyJwEiBS/TOCYozFGcrLlb4GGmkaRsVdh/FExRPVewZqfCUNYyAb7Xuk0WZJhCgAzABmhbxr5ivKPCbzI+lmgncotl9zoDPNXGHwLGs2So6ndu/7r2znx2bdbpFVo7AbwReqT8/CEhzAXZgzc021SLnKTZvvihLINCagI99+jyCy+aJy/Wab5TT1uSrF3xynn/VbzsndtX/OQG2LWnWM4mArxjZW/HjSRbOvAwdgOa1/yUtckTzxVgCgV4Ffq6t+cY5Pr/A4S/JuX/fodd8IuvainVm/Tvz97p67eErgluxCoKpWAE/C8KHmzKdTDt1ZdABaEboe48f22wR5kYAAQQQ6EHgPdrGG3rYTjWboAMwflU+SrP62Ota4y/CnAgggAACPQn4RFlfYXJST9sLvxk6AONV4UM121kKzmQez4u5EEAAgSEEfNjrMQrfdItpEQGO6y0CtOJtP4iEnf94VsyFAAIIDCXgx3P70kCmMQT8eE2mhQUO0Nu+xITRkoWdeBcBBBAoQWA3FcL3zvDVWkwLCLBTWwBHb62m+J5ij4Vn410EEEAAgYIErlVZ/Bhp30ODaYQAhwBGwKx4+c/0Lzv/hY14FwEEEChNwPdp+dvSClVaeRgBGF0jPpbkG0v4WmgmBBBAAIFYAstVXN8bwHfQZJpHgBGAeVBWvPQ+/cvOf7QP7yCAAAIlC3j/9gEF57qNqCVg5ofxU8sYPprfhlcRQACBKAJ+ToVvm/2dKAXus5wcAlhZ29f8n6/YceW3eAUBBBBAIJjAL1ReP7PimmDl7ry4HAJYmfj1eomd/8ouvIIAAghEFHiYCu3bBDPNEWAE4MEgG+i/yxTr01IQQAABBKoR8AmBvkPgBdVk1EIijAA8GPE1+i87/xYaFqtAAAEEChLwvu5tBZWniKIwAvCbathQfy5TeLiICQEEEECgLgE/LMijAD7Hi0kCjAD8phm8Vn+y8+djgQACCNQp4B+8b68ztcmyYgTgV24b6Z9livUmY2QpBBBAAIEAAh4FeKzihwHK2nkRGQH4FfHr9A87/86bGxtAAAEEBhVgFGAWPyMAS5ZsIo+lCu76N+jnko0jgAACvQh4FOBxinN72VrBG2EEYMkS//pn519wI6VoCCCAQIsCjAKswMw+ArCpHPzrf50WGxerQgABBBAoX2BvFdGPe087ZR8B8F3/2Pmnbf4kjgACiQXenjj3B1LPPAKwmfL3r/+1szcC8kcAAQSSCuyrvM9Omnvq+wC8QZXOzj9ryydvBBBAIPl9AbKOAGyulu9f/2vxCUAAAQQQSC3weGWf8nHBWc8BeCM7/9QfeJJHAAEEZgTenpUi4wiAr/u/XMGv/6ytnrwRQACBBwvso/+ekw0l4wjAi1XJ7PyztXTyRQABBEYL/OHot+p9J+MIgO/+tGe9VUpmCCCAAAINBW7W/Fso7my4XOjZs40A7KXaYucfuslSeAQQQKB1gQ20xiNbX2vhK8zWAXhZ4fVB8RBAAAEEhhF4+TCbHW6rmQ4BrCHmqxUbD8fNlhFAAAEEChVYrnJtr/BJ4immTCMAz1aNsvNP0axJEgEEEGgs4P3h0Y2XCrxApg4Aw/+BGypFRwABBHoQeKm2kWZkPEuiW6pSPayzag8NiE0ggAACCMQVOERFPyVu8ccveZYRgN8XCTv/8dsFcyKAAAJZBdKMFmcZAfixWvIuWVszeSOAAAIIjC1wu+Z8uOKXYy8RdMYMIwD7q27Y+QdtoBQbAQQQ6FnAT4l9fs/bHGRzGToAaYZzBmlBbBQBBBCoTyDFfqP2QwDuyf1MsV597ZOMEEAAAQQ6FNhV676ow/UPvuraRwB+W8Ls/AdvZhQAAQQQCCdQ/ShA7SMAJ6vJ+ZIOJgQQQAABBJoIXKOZt1bc12ShSPPW3AHYSBVxnaL2UY5I7Y2yIoAAApEEfBL5mZEK3KSsNe8cDxNEzfk1qWfmRQABBBBoLnB480XiLFHzDrLqiovTxCgpAgggEFag6v1IzYcA/OS/LcI2OwqOAAIIIDC0gJ8QuJnihqEL0sX2ax0B2FNY7Py7aDGsEwEEEMgj4H3kU2tNt9YOQNXDNrU2RvJCAAEEChR4WoFlaqVIdABaYWQlCCCAAAKVCrgDUOXh8hqT8o1/fLxm9UobI2khgAACCPQrsJc2d26/m+x+azWOADxZbOz8u287bAEBBBDIIlDlYeUaOwBVVlSWTxl5IoAAAgUKVLlfqfEQwFI1nu0KbEAUCQEEEEAgpsA9KvbGil/GLP78pa5tBGAXpbnd/KnyKgIIIIAAAhMJ+LDyoRMtWfBCtXUAqhymKbj9UDQEEEAgi0B1+xc6AFmaLnkigAACCEwjUF0HoKZzANZUzd6oWGuaGmZZBBBAAAEERgjsptd/POK9cC/XNALwJOmz8w/XBCkwAgggEEbAT5mtZqqpA/CEamqFRBBAAAEEShSoaj9TUwdgvxJbC2VCAAEEEKhGoKr9TE3nAPxMTWzzapoZiSCAAAIIlCiwkQp1U4kFa1qmWkYAtlHi7Pyb1j7zI4AAAgg0Fdi36QKlzl9LB6CqYZlSGwvlQgABBBBYUs3+hg4ArRkBBBBAAIHxBegAjG/Vy5zVDMn0osVGEEAAAQQmFahmf1PDSYAexbhZsd6ktclyCCCAAAIINBDweWdXNJi/yFlrOATgOzOx8y+yeVEoBBBAoEqBKg4D1NABqGY4psqPCUkhgAAC9QlUsd+poQNQRU+svs8HGSGAAALVClSx36EDUG37JDEEEEAAgY4E9tZ6w+8/oyfwUFXCYzqqYFaLAAIIIIDAfAIP04u7zPdGpNeidwAeK+zVI4FTVgQQQACBKgTCHwaI3gEIXwFVfAxIAgEEEMgnEH7/E70DUMWZmPk+N2SMAAIIhBcIv/+J3gHwiRhMCCCAAAII9C2wpza4Wt8bbXN7kTsAqwpixzYxWBcCCCCAAAJjCqyh+bYfc94iZ4vcAdhBoq4AJgQQQAABBIYQ2HWIjba1zcgdgNDwbVUg60EAAQQQGEwg9H4ocgcg/DWYgzVZNowAAggg0IZA6P1Q5A5A6J5XGy2PdSCAAAIIDCoQej9EB2DQtsPGEUAAAQQCC9ABGKjyQg+9DGTGZhFAAAEE2hPYWKtyhJyijgAYfJOQ4hQaAQQQQKAmgbCjAFE7APz6r+njQy4IIIBAXIGw+6OoHYCwPa64bZySI4AAAgjMIxB2f0QHYJ7a5CUEEEAAAQTGFKADMCZUW7OFHXJpC4D1IIAAAggUIRB2f8QIQBHth0IggAACCAQV2EHlXj1i2SN2AAxtcCYEEEAAAQSGFvATAUM+mC5iB+CRwg79CMahWyvbRwABBBBoVSDkYYCIHYCwJ1y02txYGQIIIIBAKQIh90sROwAM/5fS5CkHAggggIAFQu6XInYAtqC9IYAAAgggUJDAlgWVZeyiROwAhIQeu0aYEQEEEEAgmkDIH6Z0AKI1M8qLAAIIIFCaQMgfphE7ACF7WqW1VsqDAAIIINCawGZa06qtra2nFUXsAITsafVUn2wGAQQQQKB/Ae9LN+9/s9NtMVoHYF2lu950KbM0AggggAACrQuE+3EarQPA8H/rbZYVIoAAAgi0IBBu/xStAxCuh9VCo2IVCCCAAALlC4TbP0XrAITrYZXfZikhAggggEALAuH2T9E6AOF6WC00KlaBAAIIIFC+QLj9U7QOQLgeVvltlhIigAACCLQgQAegBcSFVhEOeKFkeA8BBBBAoBqBcD9Qo40A0AGo5rNCIggggEBVAuH2T9E6AOF6WFU1b5JBAAEEEBglEO5ugHQARlUlryOAAAIIIDC+gPen7gSEmSJ1AHyf5YeFkaWgCCCAAALZBDaMlHCkDoBvA8yEAAIIIIBAqQKhblUfqQPAr/9SmzzlQgABBBCwQKj9VKQOQKieFZ8FBBBAAIF0AqH2U5E6AKF6VumaPQkjgAACCITaT0XqAITqWfE5QAABBBBIJxBqP0UHIF37JGEEEEAAgY4E6AB0BBtqaKUjA1aLAAIIIFCuQKj9FCMA5TYkSoYAAgggEEuAEYCO6isUbEcGrBYBBBBAoFwBRgA6qptQsB0ZsFoEEEAAgXIFQv1Q5RBAuQ2JkiGAAAIIxBII9UM1UgcgFGysNktpEUAAAQRaEGAEoAXE+VYRCna+BHgNAQQQQKBqgVD7qUgjAKFgq27iJIcAAgggMJ9AqP1UpA7AGvNp8xoCCCCAAAKFCITaT0XqAKxWSAVTDAQQQAABBOYTCLWfogMwXxXyGgIIIIAAAs0FVm++yHBLROoAhIIdrkrZMgIIIIDAQAKMAHQEHwq2IwNWiwACCCBQrkCo/VSkEYBQsOW2T0qGAAIIINCRwKodrbeT1dIB6ISVlSKAAAIIJBUI82OVDkDSFkraCCCAAAKdCNAB6ICVkwA7QGWVCCCAAAKtCoTZVzEC0Gq9szIEEEAAgeQCjAB00ADCoHaQO6tEAAEEEIghEGZfxQhAjAZFKRFAAAEEYgjQAeignsKgdpA7q0QAAQQQiCEQZl/FCECMBkUpEUAAAQRiCNAB6KCewpxZ2UHurBIBBBBAIIZAmH1VpBGAe2PUPaVEAAEEEEgsEGZfFakDcFviBkXqCCCAAAIxBG6PUcwlS+gARKkpyokAAgggEEGADkAHtRQGtYPcWSUCCCCAQAyBO2IUkxGAKPVEORFAAAEEyhfw8f97yi/mr0rIIYAoNUU5EUAAAQRKFwg1Uh2pAxAKtvRWSvkQQAABBFoXCLWfitQB4CqA1tsqK0QAAQQQaFGADkCLmLNXRQegI1hWiwACCCDQigAdgFYYV14JHYCVTXgFAQQQQKAcAToAHdXFVR2tl9UigAACCCDQhsCVbaykr3VEOgdgaV8obAcBBBBAAIEJBELtpyJ1AJZNUBksggACCCCAQF8Cl/a1oTa2E6kDEKpn1UblsA4EEEAAgVACofZTkToAV6sZ3B2qKVBYBBBAAIFMAowAdFTby7XeyztaN6tFAAEEEEBgGoH7tfCyaVbQ97KRRgBsE2p4pe/KZHsIIIAAAoMJeJT6rsG2PsGG6QBMgMYiCCCAAAIIzBEI9wM1WgdgGU0OAQQQQACBAgVCHf+3X7QOwPkFVjpFQgABBBBAINz+KVoH4EzaGAIIIIAAAgUKhNs/rVIg4mJF+olm2GmxmXgfAQQQQACBngTu0XYeprizp+21sploIwBOOlwvq5WaYiUIIIAAAqUKfF8FC7XzNyQdgFKbE+VCAAEEEIgiEPKHKR2AKM2LciKAAAIIlCoQsgMQ8RyAVdUCblasW2pLoFwIIIAAAqkEtlW2l0fLOOIIwH1CPisaNOVFAAEEEKhS4CplFW7n75qI2AFwuUMOt1TZ9EkKAQQQyC0Qdn8UtQNwXO72RvYIIIAAAoUIhN0fRTwHYKbOL9Mf2xTSACgGAggggEA+AT+ifnOFz0sLN0UdATD0p8NpU2AEEEAAgZoETlQyIXf+roTIHYD/rqkVkQsCCCCAQDiB0PuhyIcA3FKWKXz5BRMCCCCAAAJ9Cnj4fzPFLX1utM1tRR4BsAOHAdpsDawLAQQQQGBcga9pxrA7fycZvQMQevhl3FbGfAgggAACxQmE3/9EPwTgFrFUsV1xTYMCIYAAAgjUKhB++N8VE30EwDl8tNYWRl4IIIAAAkUKfE6lCj38b9UaRgA2UR6+DeNaRTYTCoUAAgggUJvAPkronOhJ1TACcL0q4SPRK4LyI4AAAgiEEPiGShl+52/pGkYAnMcjFT9R1NChCfEJoJAIIIBAUoFnKO+v1pB7LTvMn6oyPltDhZADAggggECxAuerZMcXW7qGBaulA+C039Mwd2ZHAAEEEECgicA/aOb7myxQ8ry1HAKYMT5FfxxUMjhlQwABBBAIKXC1Sr29wpcAVjHVNALgCmEUoIpmSRIIIIBAcQL/pBJVs/O3bm0jAM7pVMWBxTUdCoQAAgggEFXgShV8V8VtUROYr9y1jQA4x1cr7psvWV5DAAEEEEBgAoHXaZmqdv42WHUCiNIXuVYF9M2BHl96QSkfAggggEDxAqeohK8vvpQTFLDGQwBm2EDh+wJsOoEJiyCAAAIIIGCBexV7KXz5X3VTjYcAXEk3K95UXW2REAIIIIBAnwLHamNV7vyNWOsIwExuZ+oPDgX0+XFhWwgggEAdAj9XGjsrwj/0Z1R11DoC4Hx9s4ZXKZaPSp7XEUAAAQQQGCHgUeRqd/7OucaTAGfXpW/c4PMBnjiignkZAQQQQACBuQIn6YXXzn2xtv/XfAhgpq5W1x+nKfarrfLIBwEEEECgdYFrtEaf+Ocryqqeaj4EMFNx9+iP5yt8YiATAggggAACowR8D5kXKarf+RsgQwfAeS5TvNR/MCGAAAIIIDBC4G16/ZQR71X3cu3nAMyusIv0n/UVnA9QXTMmIQQQQGBqAT/m94+mXkugFWQ4B2B2dfh8gG8puDQwUCOlqAgggEDHAr7Xv4/7X9/xdopafZZDADPoM+cD3FRULVAYBBBAAIGhBHy3vxcoUu38jZ2tA+CcL1McqbjD/2FCAAEEEEgr4PvFHKM4PaNAxg6A69mPDD5K4REBJgQQQACBnAJ/prQ/mjP1nCMAM3X9Ff3xYgWPDs7a+skbAQQyC7xZyb8/M0CmqwDmq+cf6UWf/PFsRbYTIufz4DUEEEAgg8C7laQv+Us9Ze8AuPK/r/BNgg5P3RJIHgEEEMgh8K9K8y9ypLpwlnQAfuVzlv7xQ4MOWZiLdxFAAAEEAgv8h8ruk/6YJEAH4DfN4Jv6k04AHwsEEECgToGPKa0/WPE9X2eGDbOiA/BgMHcCLlYcoVitoSWzI4AAAgiUKfBWFes1Ch4PP6t+OPFt/sZ6gF7+gmKT+d/mVQQQQACBAAJ3qYwvV3wiQFl7LyIdgNHkj9RbX1bsMnoW3kEAAQQQKFTgBpXruQo/Dp5pHoGsNwKah2Kll36qV/zgoFNWeocXEEAAAQRKFvCh3Cco2PkvUEucA7AAjt66U+Gho0co/KAIJgQQQACBsgV8p9fDFFeVXczhS8cIwOJ14NsF+xiS7xro+wUwIYAAAgiUJ+Dv6rcoDlXcWF7xyisR5wA0qxOPBHx0RQNrtiRzI4AAAgh0JXCBVvwShW/sxjSmAIcAxoRaMdsv9O/HFX6c8MEKLhVs5sfcCCCAQJsCfprfPyr8OF/f1p2pgQAjAA2w5sy6m/7vu0o9bvJVsCQCCCCAwIQCl2m5lypOmXD59IsxAjB5E7hei35kxeKP17+MBkxuyZIIIIDAuAK+mc+/KY5UXDTuQsy3sgAjACubTPLKNlronYrfU3Bi5SSCLIMAAggsLnC8Znmj4oeLz8ociwnQAVhMqNn7e2r2v1c8tdlizI0AAgggsIDA9/TeGxQnLTAPbzUU4NdqQ7BFZv+B3n+awh2AcxeZl7cRQAABBBYWWKa3PbK6j4Kd/8JWjd9lBKAx2dgL2Nb3DvBDKHYaeylmRAABBBD4mQjeozhW4fv5M3UgQAegA9Q5q7SxRwVepXi6glGX7s3ZAgIIxBQ4Q8V+v+IzCt/Yh6lDAToAHeLOs+od9NqfKl6m2HCe93kJAQQQyCYwc8t17/i5kU+PtU8HoEfsWZtaW3/78IBHBR4zTBHYKgIIIDCowDJt/V8VvqTPT+5j6lmADkDP4PNszlcO+JGVjsfO8z4vIYAAArUI+CmrX1gRHu73Nf1MAwnQARgIfsRmt9Prz1G4M/AkBTdqGgHFywggEEbAl/DN7PTPC1PqBAWlA1BuJW+soh2heKbCz7XeutyiUjIEEEDg1wK+S+p3Fb5pj3f8l2NTpgAdgDLrZb5Sba4X91PsOyvcSWBCAAEEhhK4VRs+R+Ed/kwsHaowbLeZAB2AZl6lze2rCtwh8LkD286KLfQ3lxuWVluUB4G4Aj9X0S+bFefrb+/wL1RwHD9ovdIBCFpxixR7db3vQwazOwX+/3oKX4Gw1op//ffs8OtrKpgQQKA+gbuV0u0r4o5Zf8+85n9vU/ixuh62n9nh+2/Pz1SZwP8HnBwV0jOGZBIAAAAASUVORK5CYII=;" vertex="1" parent="1">
          <mxGeometry x="487" y="130" width="62" height="62" as="geometry" />
        </mxCell>
        <mxCell id="9kofIlFbRkQfjmpeaeeo-5" value="" style="shape=image;verticalLabelPosition=bottom;labelBackgroundColor=default;verticalAlign=top;aspect=fixed;imageAspect=0;image=data:image/png,iVBORw0KGgoAAAANSUhEUgAAAgAAAAIACAYAAAD0eNT6AAAABHNCSVQICAgIfAhkiAAAIABJREFUeF7t3Qe0bVV97/GLFKnSQUCqVAURKSpEioiiYsGQ2GJQEzRFkxf7i8YSX2KMZsQk8uLwGUtMjMYaRQURBKWIgqKAiCD30kW60svl/X54jx7OPfucvfZeZf7n/7vG+I977t6rzP9nzr3X3HO1VZYwIYBANIEtVeAdFTspNlGsq1hnzH/X0Hy3K25T3DrGv57nKsXFiksUtyiYEECgAoFVKsiBFBCoUWD2Tn5mZ+8d/iMV3tkPNV2nDbsjMNMhmP0vnYOhaoXtIjCBAB2ACdBYBIGWBXbV+g5cEXvo36F38pOmd70WdIfgHMU3V8S1k66M5RBAoFsBOgDd+rJ2BOYKPEQv7Kl4kmJmp7/p3Jkq+v9FymWmM+B/L68oN1JBILQAHYDQ1UfhAwisrjLuo5jZ2R+gv9cPUO6uiniZVjy7Q/CTrjbEehFAAAEEEOhbwDv9Zys+pfDJdvcTIw2ukM17FXv1XUlsDwEEEEAAgTYEPJrmYf0PKG5QsNNvbvAjub1ZsX0bFcI6EEAAAQQQ6FLg0Vr53yqWKdjpt2dwujz/ROHLHJkQQAABBBAoQuARKsXrFecq2Ol3a3CPjI9TvFCxdhG1TyEQQAABBNIJ7KuMP69YrmDH37+B7zPwbsXm6VoeCSOAAAIIDCJwiLZ6ooKdfhkGd6gujlVsO0hrYKMIIIAAAlUL+KS+ZynOVLDjL9PAhwc+pvCNlJgQQAABBBCYSmBVLe3jzT9UsOOPYeBDMp9R7D1VzbMwAggggEBKAT8k5xiFb2XLjj+uwfGqP990iQkBBBBAAIFFBY7SHL5FLTv+egxOUn3utmjNMwMCCCCAQEoBP2XPvxjZ8ddpcLfq9u8UXD6Y8uNN0ggggMDKAmvqpXco7lSw86/fwM8feO7KzYBXEEAAAQQyCTxdyfp59uz48xn4hkLcZjjTp51cEUAAAQlsrfisgh1/boPb1Qb+SvFQPhUIIIAAAnUL+Ml8b1DcqmDnj8FMG/BjiA+ru+mTHQIIIJBXYE+lfr6CHT8Go9rAJ9Q+1s/7ESFzBBBAoD6BVygl3zJ21Bc/r2Mz0wZ8Tgg3EarvO4CMEEAgmcC6yte/6tjBY9CkDfiKkD9N9lkhXQQQQKAagccok4sUTb74mRev2W3g02o/HBKo5iuBRBBAIIPAHypJn+HNDh2DadsAhwQyfGOQIwIIhBdYRxl8nB0/HZ+W2wCHBMJ/NZAAAgjULLC7kruw5S/+aX89snxdIxAcEqj5G4TcEEAgpMDRKjVD/nXtbEvtPPmQwGNDfkooNAIIIFCZwFuUT6k7C8pVZ93cojZ3SGWfI9JBAAEEwgisopL+s4KdLAZDtAGfF/C8MJ8WCooAAghUIuBb+v6XYogvfraJ+0wbuFdt8JhKPlOkkVxg1eT5k34MAd/c538Uz4lRXEpZscBDlNuzFPcovlVxnqSWQIAOQIJKDp7iJir/1xQHBs+D4tclcKjS2VBxQl1pkU0mAToAmWo7Xq7bqMjfUPgOf0wIlCbwBBVoR8WXFMtLKxzlQWAxAZ9UxYRAiQKPVqH862qrEgtHmRCYJfBV/X2UwpelMiEQRoAOQJiqSlXQ/ZXtcQoPsTIhEEHgTBXyCMWNEQpLGRGwAB0A2kFpAk9Ugb6uWLu0glEeBBYROFfvH6zwPQOYEChewGe0MiFQioCH/b+sYOdfSo1QjiYCvlugr1ZZs8lCzIvAUAJ0AIaSZ7tzBXzCn4/5M+w/V4b/RxI4SIX1/So4wTpSrSUtK400acUXlrYv9fPZ/tsXVi6Kg8AkArtqoS0VvjqACYFiBegAFFs1aQrmx/n6Ov8902RMohkEHqck11CcnCFZcowpQAcgZr3VUmrf3tfHTLnJTy01Sh6zBZ6k/9ysOAsWBEoUoANQYq3kKJOvQPm44rk50iXLpAJPU94XK85Lmj9pFyzASYAFV07lRfsn5ffCynMkPQTc0f2owh0BJgSKEqADUFR1pCnMm5Xpq9NkS6LZBXyo67OKx2eHIP+yBLgRUFn1kaE0L1GS/54hUXJEYI7ADfr/PoplyCBQggAdgBJqIU8ZfKOf7yi40U+eOifTBwucrf8eoLgbGASGFuAkwKFrIM/2fbnfiQpfH82EQFYBt3/f7MoPEGJCYFABOgCD8qfa+IeU7VNSZUyyCMwvsJ9evkDxo/nf5lUE+hHgEEA/ztm38nIB/Ft2BPJHYJbAL/T33opLUEFgKAE6AEPJ59nu7krVx/3XypMymSIwloCfHuinX9451tzMhEDLAhwCaBmU1T1IYF39z8f9t8AFAQRWEni4XtlUcdxK7/ACAj0I0AHoATnxJj6s3J+cOH9SR2AxAV8WyJ0CF1Pi/U4EOATQCSsrlcAxig8igQACiwrcqjn2Vfx40TmZAYEWBegAtIjJqn4t8Bj95QegrIkJAgiMJXC+5vLVAXeMNTczIdCCAIcAWkBkFQ8SWE3/O0GxFS4IIDC2wGaa0zfI8meHCYFeBHgWQC/MqTby58p2j1QZkywC7Qj4+RgePWNCoBcBDgH0wpxmI/7V7+OYPvufCQEEmgucpkUOVNzffFGWQKCZAIcAmnkx98ICvtnPXgvPwrsIILCAwDZ6b6niBwvMw1sItCLACEArjKxEAk9VcPySpoDA9ALXaRU7K26eflWsAYHRAowAjLbhnfEFHqpZfTOTjcdfhDkRQGCEgB+ctb7iyyPe52UEWhHgJMBWGNOv5I0S2Cm9AgAItCfwSq3KzwpgQqAzAQ4BdEabZsU7KFM/2Yxr/tNUOYn2JOBnaPhZAct72h6bSSbAIYBkFd5Buv+hde7WwXpZJQLZBXxVzTWKc7JDkH83AowAdOOaZa1HKtHPZUmWPBEYQOBGbXMXxfUDbJtNVi7ACEDlFdxheqtr3T7xb4MOt8GqEcgu4Mdo+74aX8kOQf7tC3ASYPumWdb4YiW6XZZkyROBAQX+QNv2o4OZEGhVgBGAVjnTrMwdx/9SbJImYxJFYDgBP1/DdwY8cbgisOUaBTgHoMZa7T6no7SJT3e/GbaAAAIrBPzIYN8l8CZEEGhLgBGAtiRzrcdn/m+RK2WyRWBQgTW09dsVpw5aCjZelQAjAFVVZy/JHK6tfLWXLbERBBCYLeArAjwKcBssCLQhwAhAG4q51vFhpbttrpTJFoEiBHxFwA2KM4soDYUIL8AIQPgq7DWB39LWvtXrFtkYAgjMFrha//HdN++CBYFpBRgBmFYw1/IfULrc8z9XnZNtWQLrqThXKLg7YFn1ErI0jACErLZBCr2Xtvq9QbbMRhFAYLbApfqPHxd8HywITCPAjYCm0cu17P/OlS7ZIlCsgA8BPL/Y0lGwMAKMAISpqkEL6ruQXangkNGg1cDGEfi1wBn66wA8EJhGgBGAafTyLOtfG+z889Q3mZYvsL+KuH35xaSEJQvQASi5dsop24vKKQolQQCBFQJ8LmkKUwlwCGAqvhQL76gsL06RKUkiEEvgQhX3UbGKTGlLEmAEoKTaKLMs/Moos14oFQK7icBX5zAhMJEAHYCJ2FItRAcgVXWTbDABP5abCYGJBDgEMBFbmoX2VqZnp8mWRBGIJ+A7A26tWB6v6JR4aAFGAIaugbK3z6//suuH0iGwpQgOgQGBSQToAEyilmMZt40X5EiVLBEILcBhgNDVN1zhOQQwnH3pW36yCnhS6YWkfAggsOQWGfhmXXdigUATAUYAmmjlmpfh/1z1TbZxBdZX0Y+IW3xKPpQAHYCh5MverkeGnlN2ESkdAgjMEjgSDQSaCtABaCqWY/5HK81NcqRKlghUIXBQFVmQRK8CdAB65Q6zsQPDlJSCIoCABbZS7AAFAk0E6AA00cozL78m8tQ1mdYjwOe2nrrsJRM6AL0wh9sIIwDhqowCI7CEDgCNoJEAHYBGXClm3llZ+pIiJgQQiCVAxz1WfQ1eWjoAg1dBcQXgV0RxVUKBEBhLYHvN5dsCMyEwlgAdgLGYUs3Er4hU1U2ylQnw+a2sQrtMhw5Al7ox180IQMx6o9QIWIDPL+1gbAE6AGNTpZiRIcQU1UySFQvQAai4cttOjQ5A26Kx18fwYez6o/QIcBIvbWBsAToAY1OlmJEOQIpqJsnKBZ5UeX6k15IAHYCWICtZzR6V5EEaCGQW2D1z8uQ+vgAdgPGtMsy5Y4YkyRGBygX4HFdewW2lRwegLcn469lYKWwYPw0yQCC9AB2A9E1gPAA6AOM5ZZiLL40MtUyOGQT4LGeo5RZypAPQAmIlq9ipkjxIA4HsAhsJgNG87K1gjPzpAIyBlGQWOgBJKpo0UwgwCpCimqdLkg7AdH41Lc0XRk21SS7ZBfg8Z28BY+RPB2AMpCSzMAKQpKJJM4UAHYAU1TxdknQApvOraWm+MGqqTXLJLsDnOXsLGCN/OgBjICWYhUsAE1QyKaYSeGSqbEl2IgE6ABOxVbcQvxaqq1ISSi7AZzp5AxgnfToA4yjVPw/H/+uvYzLMJbC50l03V8pk21SADkBTsTrn9yEAJgQQqEtgk7rSIZu2BegAtC0ac338UohZb5QagYUE+FwvpMN7S+gA0AgssA4MCCBQnQAdgOqqtN2E6AC06xl1bXxRRK05yo3AaAE+16NteEcCdABoBhbgi4J2gEB9AuvVlxIZtSlAB6BNzbjr4hBA3Lqj5AiMEqBjP0qG1x8QoANAQ7AAXxS0AwTqE+BzXV+dtpoRHYBWOcOujBGAsFVHwREYKUAHYCQNb1iADgDtwAJ8UdAOEKhPgM91fXXaakZ0AFrlDLsyRgDCVh0FR2CkAB2AkTS8YQE6ALQDC/BFQTtAoD4BPtf11WmrGdEBaJUz7MoYAQhbdRQcgZECXAY4koY3LEAHgHZggTVgQACB6gT4XFdXpe0mRAegXc+oa7s9asEpNwIIjBS4beQ7vIGABOgA0AwscCsMCCBQnQCf6+qqtN2E6AC06xl1bfxSiFpzlBuB0QJ0AEbb8I4E6ADQDCzAFwXtAIH6BPhc11enrWZEB6BVzrArYwQgbNVRcARGCvxy5Du8gYAE6ADQDCzALwXaAQL1CfC5rq9OW82IDkCrnGFXxghA2Kqj4AiMFKADMJKGNyxAB4B2YAG+KGgHCNQnwOe6vjptNSM6AK1yhl0ZIwBhq46CIzBSgA7ASBresAAdANqBBfiioB0gUJ8An+v66rTVjOgAtMoZdmWMAIStOgqOwEgBrgIYScMbFqADQDuwAL8UaAcI1CfA57q+Om01IzoArXKGXdkVYUtOwRFAYD6Be/XitfO9wWsIzAjQAaAtWOASGBBAoCqBZcrGnQAmBEYK0AEYSZPqjUuV7fJUGZMsAnUL0Kmvu35byY4OQCuM4VdypzK4MnwWJIAAAjMCdABoC4sK0AFYlCjNDHxhpKlqEk0g8NMEOZLilAJ0AKYErGjxiyvKhVQQyC5Ahz57CxgjfzoAYyAlmYUvjCQVTZopBPg8p6jm6ZKkAzCdX01LMwJQU22SS2YBn9C7NDMAuY8nQAdgPKcMc/GLIUMtk2MGAd/X464MiZLjdAJ0AKbzq2lpnzR0f00JkQsCSQU4ATBpxTdNmw5AU7F65+dSwHrrlsxyCTCal6u+J86WDsDEdFUuyHkAVVYrSSUToAOQrMInTZcOwKRydS733TrTIisEUgnwOU5V3ZMnSwdgcrsalzy1xqTICYFEAncr128nypdUpxCgAzAFXoWLnq6c7qswL1JCIIvAd5Soz+dhQmBRAToAixKlmuEXyvbcVBmTLAJ1CTCKV1d9dpoNHYBOeUOunC+QkNVGoRF4QIDPLw1hbAE6AGNTpZmRL5A0VU2ilQncq3zOqCwn0ulQgA5Ah7hBV/0tlZsbAgWtPIqdWuBsZX9bagGSbyRAB6ARV4qZb1KW56XIlCQRqEvgm3WlQzZdC9AB6Fo45vo5DBCz3ih1bgE+t7nrv3H2dAAak6VYgC+SFNVMkhUJ+PLd0yrKh1R6EKAD0ANywE0wlBiw0ihyagFfvuvLeJkQGFuADsDYVKlmvE7Zch5Aqion2eACJwcvP8UfQIAOwADoQTb5ySDlpJgIILBkCZ9XWkFjgVUaL8ECWQS2V6KXZkmWPBEILHChyv6owOWn6AMJMAIwEHyAzS5VGc8MUE6KiEB2gf/MDkD+kwnQAZjMLctSfLFkqWnyjCzwiciFp+zDCXAIYDj7CFveVIW8WrFahMJSRgQSCvjWvwckzJuUWxBgBKAFxIpX4asBvl5xfqSGQHQBRumi1+CA5acDMCB+kE3zBROkoihmOgE//Oe/02VNwq0J0AFojbLaFX1Bmd1ebXYkhkBcgRNU9OvjFp+SDy1AB2DoGih/+7eqiF8sv5iUEIF0AozOpavydhOmA9CuZ61r4yzjWmuWvKIKuGP+P1ELT7nLEKADUEY9lF6K41VAhhpLryXKl0ngc0qWQ3OZaryDXFftYJ2ssj6B5UppTcUh9aVGRgiEE7hfJT5acW24klPgogS4D0BR1VF0YTZQ6S5XrFd0KSkcAvULHKcUn1V/mmTYtQAjAF0L17P+O5WKOwHcdKSeOiWTmAIvVbGvjFl0Sl2SACMAJdVG+WXZXEVcpvDhACYEEOhf4BRtkkNx/btXuUVGAKqs1s6Suk1r3lKxb2dbYMUIILCQwCv0Jk/pXEiI98YWYARgbCpmXCGwrf69RMHzAWgSCPQr8F1tbr9+N8nWahbgMsCaa7eb3C7TarkvQDe2rBWBhQTetdCbvIdAUwFGAJqKMb8FdlNcoKD90B4Q6EfgR9rM7gpfAsiEQCsCjAC0wphuJRcq48+ny5qEERhO4O+0aXb+w/lXuWV+wVVZrb0ktbe2cnYvW2IjCOQWWKr0d1b46X9MCLQmwAhAa5TpVnSOMuYhQemqnYQHEHintsnOfwD42jfJCEDtNdxtfttp9T42uVa3m2HtCKQVOFOZ++ZbDP+nbQLdJc59ALqzzbDmm1ck+eQMyZIjAj0L3KftPUfxs563y+aSCHAIIElFd5jme7TuizpcP6tGIKvAsUr83KzJk3f3AhwC6N44wxYOVZJfz5AoOSLQk4B/9e+quKWn7bGZhAIcAkhY6R2k7LOU/WXl65SZEEBgeoE/0ip85z8mBDoTYASgM9p0K95CGftQAI8LTlf1JNyywKla38Etr5PVIbCSACMAK5HwwoQCt2q5OxSHT7g8iyGAwJIl9wjhWYrrwECgawFOAuxaONf6/0Xp/iBXymSLQKsC79PafGktEwKdC3AIoHPidBvYXxmfpqBtpat6Ep5S4Eot7+dseDSNCYHOBTgE0Dlxug1coYx9PsA+6TInYQSmEzhai/9wulWwNALjC/ArbXwr5hxfYG3NepaCqwLGN2PO3AK+5v9VuQnIvm8BOgB9i+fZnocyfRnTOnlSJlMEJhLwczV86OzuiZZmIQQmFOAQwIRwLLaowPWaw8c0j1x0TmZAIK+Ab6f9FMUNeQnIfCgBOgBDyefYrq8I2FaxV450yRKBxgIv1BLfbrwUCyDQggCHAFpAZBULCnA+wII8vJlY4B+V+2sS50/qAwvQARi4ApJsnvMBklQ0aY4t4F/9Byp84x8mBAYR4BDAIOzpNsr5AOmqnIQXELhR7/m4/00LzMNbCHQuQAegc2I2sEKA8wFoCggsWXK/EH5XcTYYCAwtwK2Ah66BXNv3dc7n50qZbBF4kMB79L8vY4JACQKcA1BCLeQqw85K9wzFxrnSJlsElpwggyMU92KBQAkCdABKqIV8ZdhPKZ+s4CZB+eo+a8bfUeJPVtyWFYC8yxPgEEB5dZKhRP4yfJ6CM6Az1DY5XiSCZyrY+dMWihLgJMCiqiNVYX6qbH+icEeAkahUVZ8q2auU7SGKa1JlTbIhBOgAhKimagt5gTLzLVCfUW2GJJZZwJf5Haq4ODMCuZcrQAeg3LrJUjI/MMiHog7KkjB5phC4Q1k+XeEH/TAhUKQAHYAiqyVdoU5Rxpsr9k2XOQnXKHCfkjpK8fUakyOnegToANRTl9Ez+aoSeJTi0dETofzpBY6RwKfSKwCAAAIINBBYQ/OeqPDd0ggMIraBNzVo78yKAAIIIDBLYF39fboi4pc/Zc5db+/mk4wAAgggMJ2AHyHs26WyQ8UgShvgl/90n3mWRgABBH4tsJr++nc6AXSCCm8Dvq3vy/ncIhBRgJMAI9ZajjIvV5pfUPiQwP45UibLYAJ3qry/o/hksHJTXAQeEKADQEMoXeBrKqCvqT6s9IJSvlQCNytb38DKJ60yIRBSgA5AyGpLV2ifFHiZwk9S4/kV6aq/uIR9W9+nKHwTKyYEwgpwD/awVZey4M9S1r6+eq2U2ZN0CQK+re/TFEtLKAxlQGAaAToA0+ix7BACv6WNfkmxwRAbZ5upBb6n7H1735+nViD5agQYTq2mKtMkcpoyPVBxdZqMSbQEgZNViIMV7PxLqA3K0IoAHYBWGFlJzwLnaXv7KE7pebtsLp+A70PwD4rDFb/Mlz4ZI4AAAmUK+CTWdyr88JUoN4yhnHHqyo+q9nknTAgggAAChQo8VeXy0Cw7VwzaagNnqD1tU2h7p1gIIIAAArMEttTfpyra2gGwnpyWvgHVexWr8+lCAAEEEIgj4EMCf6Pwlzg7cAyatgGG/ON81ikpAgggMK+AT9i6jk4AnaAGbYAh/3k/SryIAAIIxBPYSkX+VoMdQNNfi8xfxwgDQ/7xPtuUGAEEEFhUwE8U/EvF7Qp22BjMbQM/VbvwXf2YEEAAAQQqFdhOeX1RMXcHwP9zmvgpfu9QrFlpeyctBBBAAIE5Ar6me6mCHX9eg+NV/zvyyUAAAQQQyCfgBwn5SoG7FHQE8hhcofo+Kl9zJ2MEEEAAgbkCu+iFryvoBNRtcI/q2Nf1rzu3AfB/BBBAAIHcAi9Q+n6wEB2B+gy+qXrdPXfzJnsEEEAAgYUEHqY3363ww17oCMQ3uFj1+BIFjztfqNXzHgIIIIDArwU21F9vU/iOcHQE4hn8QPXmER3fEZIJAQQQQACBxgLraInXKq5S0BEo38B38TtCwS/+xk2dBRBAAAEE5hN4qF58pcI3jKEjUJ7BiaqXQ+arOF5DAAEEEECgDQEPKb9YcZ6CjsCwBr517+cV+7ZRsawDAQQQQACBcQQ8xPwcxdcU9yroDPRncIu8P6R41DgVxTwIIIAAAgh0JfBwrfh/Kb6roCPQjYFv1uRf+76BD7ft7aols14EEEAAgYkFfFOhv1ZcoqAzMJ2Bh/hPURyj8FUZTAgggAACCIQQeIJK+S+KnyvoDIxv4Ev43qDYOkQtU0gEKhDgspkKKpEUihTwo4gPUxypOEixc5GlHK5QvkXv2YqTFZ9UnD9cUdgyAjkF6ADkrHey7l9gc23ywFnhW9Q+pP9iDLZFH88/S+Hb856q8LX7tw9WGjaMAALcOIM2gMBAAj6+fYBiplOwt/72qEEtk3fu31Z4Z+/wzv/OWpIjDwRqEGAEoIZaJIcaBHz3wScq9lD4efU7rfh3G/1b8q1tPZS/VOGbJfkkSIeH9n11hN9jQgCBQgXoABRaMRQLgRUCa+jf7RWzOwUznYNt9XofnYM7tJ1LFd65z97R+/+XK+5TMCGAQDABOgDBKoziIjBLYHX9vZHCowd+3v3cf+d7zR0KD8/fprh1jH89z40KX9HAhAACFQnQAaioMgdIZRNt079ON1bM3vnM3RH5/76Ry3WKKxVXKDxs7GPEvqMeEwIZBfz9+ziFrxB5hMKXQPoGUz50MtM5G9VR850R/Rn6mYLOmRCYmgvQAWhulmkJPwzHO3jHDnPCr603JYYfu+s7vX1GcZKCzsCUoCxevIC/c/dX+O6Gv62Y9r4HPjyzTOFDNHPDHQR3IJgQQACBRQV8wtkLFe9XfF/hY7v+ddFHuDPwTgV3fxMCU3UCaymj1yg8AtbH58nbWK64UPEhxcsUPneECQEEEHjg5LG9FK9W+EYsHpbv64tpoe14aNO31d2AOkKgAgEf+vpzxTWFfL58h0qPur1O4atOfE4IEwIIJBDwkL6fZvcJxS8UC+2Ih37vZpXv7YqHJagXUqxPwCdovkpxlWLoz9JC2/chhC8qfk/BZ62+dkhGyQX8RfR0xccU3qku9GVQ4ntXq8zPT16HpB9L4GAV90cBP2u+UdMXFC9STHt+T6wao7QIVCTg4f2nKP6fwsfWS9yxNy3TCcrD18IzIVCqwGYq2McVTdt2ifN7ZOBzihcofDkpEwIIFC7gE+jepOjzRKM+v7z8pfRWhQ9lMCFQioCf6fDHipsUfX4e+trWL5XX+xS+8ocJAQQKE/AvY5+572uH+/pSGHI7FynPQwurA4qTU8DX8X8nyefOl+l+WuFHXjMhgMDAAgdp+z5m1+flekPu+Odu+yPK3XfCY0KgbwFf1vf3Cu8U57bLDP8/XXn7PgaZnmjZdxtjewisJOAbifi43DmKDF80i+XoO6H9zkpKvIBAdwKHaNV+DsJibTPD+342hK924HLC7toba0bgAQE/PjbLcGPTL0+PhGxFO0GgQwHfm8In1jZtmxnmv1guR3Zoz6oRSCuwnTL/FF88i37x+jLHVyo8SsKEQJsCz9XKfElqhp35NDmeIiPfYIwJAQSmFPC1uO9S+PrcaT6U2ZY9RV7c9nTKxsfiDwj44Tw+8S3bZ2iafH1O0ocVW9CGEECguYBPrHmF4lrFNB/EzMv6kkFfErlac36WQOABAd8/f+ZRyJk/S5Pm7quS3qLwCZNMCCAwhoCvtT1NMemHjuUebOeHGvlSLSYExhXwZ/BEBZ+ldgx82e6+4+IzHwJZBfyLo/R79Ef8UvSlWu9W8Esk6ydrvLw98vYXCj9CN2I7L7nM98j0rxS+SykTAgjMEthEf/u2myV/gGsom89UPpiWh8A8AnvotbP4DHb+HXSmjLml9zwNkJdyCjxDaZfyqNAadvKL5eBnpH9+uboaAAAaw0lEQVRQsX7O5kbWcwR8/bofP323YrG2w/vtGPncgGNoiQhkFvBzwv8vXzqDfen6Ma2+tIspr8D+Sj3iU/tq6Yj4McQe/WRCIJXApsrWQ2G1fJAj5+FLvHypF1MeAT/d7p8VWW+hXdLn1XcS3DVP0yPT7AJu7JcqSvoQZi+LL/V6efaGmST/w5XnZXz+ivr+8efv4CTtjzQTC/ge4lxXXG7n52TVz+6J22fNqT9CyX1Ckb2zW2r+d6lufr/mBkhuuQWOVvqcaFT+F7AvGTxWsXHu5lpN9r70860KLu0r/7Pnzsk7qml5JILACgGfZVxqz5tyzV83Hql5tYI7Ccb9GP+uis5w//ztu+TP/cdVbzxdMO7njpKvEFhF//L0sHhfQLO/HC9QHT5P4bpkiiFwkIr5TUXJOznKtnD9+E6MvlKKCYGwAu/nS6iaL2FfLuZjlIwIlPtxfKaKdjqfuWo+c19WXTISUO7njZItIPBevoiq+SKa/Wttqer1jxX8Olmg8ff4lm/f66F+P/OBX9X1GXxW9Uqnu8cPFJuaXuD/8GVU/Zex7974l4qtpm8urGECgQ21zJ8o/KAZdvx1G/yn6tgdPSYEihfw4y/5Qspj4JvJHK94voJRgW4/nn6QjK/j/5TiTj5nqb5nPqT65jycbj9frH1KgdfxpZTqS2luR+8m1b9v77zflO2IxR8ssIv++y6Fb98815z/5zHxOVVMCBQp8EK+nPhyntUGfPXA6xVbFNlayy+UH9b0CgW3zM6zgx+nM/em8psuJcwmsK8Svl0xTgNmnlxOvrHQcYqjFJzRvPA3g4/zHqbwMV8+T7k+J+N+L/qQ27MXbka8O64Ax1TGlRo935Z667sK/8uEwEICvrmQb0f7UcU5C82Y7L2dlO/RCl9muXWy3Em3uYAfJ/xExfnNF2WJ2QJ0AKZrDz7pyzcc8QgAEwJNBHxfAV/n7BMIT1P4NtFZJv/S92fGJ/Q9XfH4LImTZ2sCS7Umn2tzfWtrTLgiOgDTVbp/zfnYPxMC0wjcpoW/oXBnwOFHpNY2+VyIpym80/cw/0a1JUg+vQv4x9dTFPf0vuVKNkgHYPKK9DXgfzP54iyJwEiBS/TOCYozFGcrLlb4GGmkaRsVdh/FExRPVewZqfCUNYyAb7Xuk0WZJhCgAzABmhbxr5ivKPCbzI+lmgncotl9zoDPNXGHwLGs2So6ndu/7r2znx2bdbpFVo7AbwReqT8/CEhzAXZgzc021SLnKTZvvihLINCagI99+jyCy+aJy/Wab5TT1uSrF3xynn/VbzsndtX/OQG2LWnWM4mArxjZW/HjSRbOvAwdgOa1/yUtckTzxVgCgV4Ffq6t+cY5Pr/A4S/JuX/fodd8IuvainVm/Tvz97p67eErgluxCoKpWAE/C8KHmzKdTDt1ZdABaEboe48f22wR5kYAAQQQ6EHgPdrGG3rYTjWboAMwflU+SrP62Ota4y/CnAgggAACPQn4RFlfYXJST9sLvxk6AONV4UM121kKzmQez4u5EEAAgSEEfNjrMQrfdItpEQGO6y0CtOJtP4iEnf94VsyFAAIIDCXgx3P70kCmMQT8eE2mhQUO0Nu+xITRkoWdeBcBBBAoQWA3FcL3zvDVWkwLCLBTWwBHb62m+J5ij4Vn410EEEAAgYIErlVZ/Bhp30ODaYQAhwBGwKx4+c/0Lzv/hY14FwEEEChNwPdp+dvSClVaeRgBGF0jPpbkG0v4WmgmBBBAAIFYAstVXN8bwHfQZJpHgBGAeVBWvPQ+/cvOf7QP7yCAAAIlC3j/9gEF57qNqCVg5ofxU8sYPprfhlcRQACBKAJ+ToVvm/2dKAXus5wcAlhZ29f8n6/YceW3eAUBBBBAIJjAL1ReP7PimmDl7ry4HAJYmfj1eomd/8ouvIIAAghEFHiYCu3bBDPNEWAE4MEgG+i/yxTr01IQQAABBKoR8AmBvkPgBdVk1EIijAA8GPE1+i87/xYaFqtAAAEEChLwvu5tBZWniKIwAvCbathQfy5TeLiICQEEEECgLgE/LMijAD7Hi0kCjAD8phm8Vn+y8+djgQACCNQp4B+8b68ztcmyYgTgV24b6Z9livUmY2QpBBBAAIEAAh4FeKzihwHK2nkRGQH4FfHr9A87/86bGxtAAAEEBhVgFGAWPyMAS5ZsIo+lCu76N+jnko0jgAACvQh4FOBxinN72VrBG2EEYMkS//pn519wI6VoCCCAQIsCjAKswMw+ArCpHPzrf50WGxerQgABBBAoX2BvFdGPe087ZR8B8F3/2Pmnbf4kjgACiQXenjj3B1LPPAKwmfL3r/+1szcC8kcAAQSSCuyrvM9Omnvq+wC8QZXOzj9ryydvBBBAIPl9AbKOAGyulu9f/2vxCUAAAQQQSC3weGWf8nHBWc8BeCM7/9QfeJJHAAEEZgTenpUi4wiAr/u/XMGv/6ytnrwRQACBBwvso/+ekw0l4wjAi1XJ7PyztXTyRQABBEYL/OHot+p9J+MIgO/+tGe9VUpmCCCAAAINBW7W/Fso7my4XOjZs40A7KXaYucfuslSeAQQQKB1gQ20xiNbX2vhK8zWAXhZ4fVB8RBAAAEEhhF4+TCbHW6rmQ4BrCHmqxUbD8fNlhFAAAEEChVYrnJtr/BJ4immTCMAz1aNsvNP0axJEgEEEGgs4P3h0Y2XCrxApg4Aw/+BGypFRwABBHoQeKm2kWZkPEuiW6pSPayzag8NiE0ggAACCMQVOERFPyVu8ccveZYRgN8XCTv/8dsFcyKAAAJZBdKMFmcZAfixWvIuWVszeSOAAAIIjC1wu+Z8uOKXYy8RdMYMIwD7q27Y+QdtoBQbAQQQ6FnAT4l9fs/bHGRzGToAaYZzBmlBbBQBBBCoTyDFfqP2QwDuyf1MsV597ZOMEEAAAQQ6FNhV676ow/UPvuraRwB+W8Ls/AdvZhQAAQQQCCdQ/ShA7SMAJ6vJ+ZIOJgQQQAABBJoIXKOZt1bc12ShSPPW3AHYSBVxnaL2UY5I7Y2yIoAAApEEfBL5mZEK3KSsNe8cDxNEzfk1qWfmRQABBBBoLnB480XiLFHzDrLqiovTxCgpAgggEFag6v1IzYcA/OS/LcI2OwqOAAIIIDC0gJ8QuJnihqEL0sX2ax0B2FNY7Py7aDGsEwEEEMgj4H3kU2tNt9YOQNXDNrU2RvJCAAEEChR4WoFlaqVIdABaYWQlCCCAAAKVCrgDUOXh8hqT8o1/fLxm9UobI2khgAACCPQrsJc2d26/m+x+azWOADxZbOz8u287bAEBBBDIIlDlYeUaOwBVVlSWTxl5IoAAAgUKVLlfqfEQwFI1nu0KbEAUCQEEEEAgpsA9KvbGil/GLP78pa5tBGAXpbnd/KnyKgIIIIAAAhMJ+LDyoRMtWfBCtXUAqhymKbj9UDQEEEAgi0B1+xc6AFmaLnkigAACCEwjUF0HoKZzANZUzd6oWGuaGmZZBBBAAAEERgjsptd/POK9cC/XNALwJOmz8w/XBCkwAgggEEbAT5mtZqqpA/CEamqFRBBAAAEEShSoaj9TUwdgvxJbC2VCAAEEEKhGoKr9TE3nAPxMTWzzapoZiSCAAAIIlCiwkQp1U4kFa1qmWkYAtlHi7Pyb1j7zI4AAAgg0Fdi36QKlzl9LB6CqYZlSGwvlQgABBBBYUs3+hg4ArRkBBBBAAIHxBegAjG/Vy5zVDMn0osVGEEAAAQQmFahmf1PDSYAexbhZsd6ktclyCCCAAAIINBDweWdXNJi/yFlrOATgOzOx8y+yeVEoBBBAoEqBKg4D1NABqGY4psqPCUkhgAAC9QlUsd+poQNQRU+svs8HGSGAAALVClSx36EDUG37JDEEEEAAgY4E9tZ6w+8/oyfwUFXCYzqqYFaLAAIIIIDAfAIP04u7zPdGpNeidwAeK+zVI4FTVgQQQACBKgTCHwaI3gEIXwFVfAxIAgEEEMgnEH7/E70DUMWZmPk+N2SMAAIIhBcIv/+J3gHwiRhMCCCAAAII9C2wpza4Wt8bbXN7kTsAqwpixzYxWBcCCCCAAAJjCqyh+bYfc94iZ4vcAdhBoq4AJgQQQAABBIYQ2HWIjba1zcgdgNDwbVUg60EAAQQQGEwg9H4ocgcg/DWYgzVZNowAAggg0IZA6P1Q5A5A6J5XGy2PdSCAAAIIDCoQej9EB2DQtsPGEUAAAQQCC9ABGKjyQg+9DGTGZhFAAAEE2hPYWKtyhJyijgAYfJOQ4hQaAQQQQKAmgbCjAFE7APz6r+njQy4IIIBAXIGw+6OoHYCwPa64bZySI4AAAgjMIxB2f0QHYJ7a5CUEEEAAAQTGFKADMCZUW7OFHXJpC4D1IIAAAggUIRB2f8QIQBHth0IggAACCAQV2EHlXj1i2SN2AAxtcCYEEEAAAQSGFvATAUM+mC5iB+CRwg79CMahWyvbRwABBBBoVSDkYYCIHYCwJ1y02txYGQIIIIBAKQIh90sROwAM/5fS5CkHAggggIAFQu6XInYAtqC9IYAAAgggUJDAlgWVZeyiROwAhIQeu0aYEQEEEEAgmkDIH6Z0AKI1M8qLAAIIIFCaQMgfphE7ACF7WqW1VsqDAAIIINCawGZa06qtra2nFUXsAITsafVUn2wGAQQQQKB/Ae9LN+9/s9NtMVoHYF2lu950KbM0AggggAACrQuE+3EarQPA8H/rbZYVIoAAAgi0IBBu/xStAxCuh9VCo2IVCCCAAALlC4TbP0XrAITrYZXfZikhAggggEALAuH2T9E6AOF6WC00KlaBAAIIIFC+QLj9U7QOQLgeVvltlhIigAACCLQgQAegBcSFVhEOeKFkeA8BBBBAoBqBcD9Qo40A0AGo5rNCIggggEBVAuH2T9E6AOF6WFU1b5JBAAEEEBglEO5ugHQARlUlryOAAAIIIDC+gPen7gSEmSJ1AHyf5YeFkaWgCCCAAALZBDaMlHCkDoBvA8yEAAIIIIBAqQKhblUfqQPAr/9SmzzlQgABBBCwQKj9VKQOQKieFZ8FBBBAAIF0AqH2U5E6AKF6VumaPQkjgAACCITaT0XqAITqWfE5QAABBBBIJxBqP0UHIF37JGEEEEAAgY4E6AB0BBtqaKUjA1aLAAIIIFCuQKj9FCMA5TYkSoYAAgggEEuAEYCO6isUbEcGrBYBBBBAoFwBRgA6qptQsB0ZsFoEEEAAgXIFQv1Q5RBAuQ2JkiGAAAIIxBII9UM1UgcgFGysNktpEUAAAQRaEGAEoAXE+VYRCna+BHgNAQQQQKBqgVD7qUgjAKFgq27iJIcAAgggMJ9AqP1UpA7AGvNp8xoCCCCAAAKFCITaT0XqAKxWSAVTDAQQQAABBOYTCLWfogMwXxXyGgIIIIAAAs0FVm++yHBLROoAhIIdrkrZMgIIIIDAQAKMAHQEHwq2IwNWiwACCCBQrkCo/VSkEYBQsOW2T0qGAAIIINCRwKodrbeT1dIB6ISVlSKAAAIIJBUI82OVDkDSFkraCCCAAAKdCNAB6ICVkwA7QGWVCCCAAAKtCoTZVzEC0Gq9szIEEEAAgeQCjAB00ADCoHaQO6tEAAEEEIghEGZfxQhAjAZFKRFAAAEEYgjQAeignsKgdpA7q0QAAQQQiCEQZl/FCECMBkUpEUAAAQRiCNAB6KCewpxZ2UHurBIBBBBAIIZAmH1VpBGAe2PUPaVEAAEEEEgsEGZfFakDcFviBkXqCCCAAAIxBG6PUcwlS+gARKkpyokAAgggEEGADkAHtRQGtYPcWSUCCCCAQAyBO2IUkxGAKPVEORFAAAEEyhfw8f97yi/mr0rIIYAoNUU5EUAAAQRKFwg1Uh2pAxAKtvRWSvkQQAABBFoXCLWfitQB4CqA1tsqK0QAAQQQaFGADkCLmLNXRQegI1hWiwACCCDQigAdgFYYV14JHYCVTXgFAQQQQKAcAToAHdXFVR2tl9UigAACCCDQhsCVbaykr3VEOgdgaV8obAcBBBBAAIEJBELtpyJ1AJZNUBksggACCCCAQF8Cl/a1oTa2E6kDEKpn1UblsA4EEEAAgVACofZTkToAV6sZ3B2qKVBYBBBAAIFMAowAdFTby7XeyztaN6tFAAEEEEBgGoH7tfCyaVbQ97KRRgBsE2p4pe/KZHsIIIAAAoMJeJT6rsG2PsGG6QBMgMYiCCCAAAIIzBEI9wM1WgdgGU0OAQQQQACBAgVCHf+3X7QOwPkFVjpFQgABBBBAINz+KVoH4EzaGAIIIIAAAgUKhNs/rVIg4mJF+olm2GmxmXgfAQQQQACBngTu0XYeprizp+21sploIwBOOlwvq5WaYiUIIIAAAqUKfF8FC7XzNyQdgFKbE+VCAAEEEIgiEPKHKR2AKM2LciKAAAIIlCoQsgMQ8RyAVdUCblasW2pLoFwIIIAAAqkEtlW2l0fLOOIIwH1CPisaNOVFAAEEEKhS4CplFW7n75qI2AFwuUMOt1TZ9EkKAQQQyC0Qdn8UtQNwXO72RvYIIIAAAoUIhN0fRTwHYKbOL9Mf2xTSACgGAggggEA+AT+ifnOFz0sLN0UdATD0p8NpU2AEEEAAgZoETlQyIXf+roTIHYD/rqkVkQsCCCCAQDiB0PuhyIcA3FKWKXz5BRMCCCCAAAJ9Cnj4fzPFLX1utM1tRR4BsAOHAdpsDawLAQQQQGBcga9pxrA7fycZvQMQevhl3FbGfAgggAACxQmE3/9EPwTgFrFUsV1xTYMCIYAAAgjUKhB++N8VE30EwDl8tNYWRl4IIIAAAkUKfE6lCj38b9UaRgA2UR6+DeNaRTYTCoUAAgggUJvAPkronOhJ1TACcL0q4SPRK4LyI4AAAgiEEPiGShl+52/pGkYAnMcjFT9R1NChCfEJoJAIIIBAUoFnKO+v1pB7LTvMn6oyPltDhZADAggggECxAuerZMcXW7qGBaulA+C039Mwd2ZHAAEEEECgicA/aOb7myxQ8ry1HAKYMT5FfxxUMjhlQwABBBAIKXC1Sr29wpcAVjHVNALgCmEUoIpmSRIIIIBAcQL/pBJVs/O3bm0jAM7pVMWBxTUdCoQAAgggEFXgShV8V8VtUROYr9y1jQA4x1cr7psvWV5DAAEEEEBgAoHXaZmqdv42WHUCiNIXuVYF9M2BHl96QSkfAggggEDxAqeohK8vvpQTFLDGQwBm2EDh+wJsOoEJiyCAAAIIIGCBexV7KXz5X3VTjYcAXEk3K95UXW2REAIIIIBAnwLHamNV7vyNWOsIwExuZ+oPDgX0+XFhWwgggEAdAj9XGjsrwj/0Z1R11DoC4Hx9s4ZXKZaPSp7XEUAAAQQQGCHgUeRqd/7OucaTAGfXpW/c4PMBnjiignkZAQQQQACBuQIn6YXXzn2xtv/XfAhgpq5W1x+nKfarrfLIBwEEEECgdYFrtEaf+Ocryqqeaj4EMFNx9+iP5yt8YiATAggggAACowR8D5kXKarf+RsgQwfAeS5TvNR/MCGAAAIIIDBC4G16/ZQR71X3cu3nAMyusIv0n/UVnA9QXTMmIQQQQGBqAT/m94+mXkugFWQ4B2B2dfh8gG8puDQwUCOlqAgggEDHAr7Xv4/7X9/xdopafZZDADPoM+cD3FRULVAYBBBAAIGhBHy3vxcoUu38jZ2tA+CcL1McqbjD/2FCAAEEEEgr4PvFHKM4PaNAxg6A69mPDD5K4REBJgQQQACBnAJ/prQ/mjP1nCMAM3X9Ff3xYgWPDs7a+skbAQQyC7xZyb8/M0CmqwDmq+cf6UWf/PFsRbYTIufz4DUEEEAgg8C7laQv+Us9Ze8AuPK/r/BNgg5P3RJIHgEEEMgh8K9K8y9ypLpwlnQAfuVzlv7xQ4MOWZiLdxFAAAEEAgv8h8ruk/6YJEAH4DfN4Jv6k04AHwsEEECgToGPKa0/WPE9X2eGDbOiA/BgMHcCLlYcoVitoSWzI4AAAgiUKfBWFes1Ch4PP6t+OPFt/sZ6gF7+gmKT+d/mVQQQQACBAAJ3qYwvV3wiQFl7LyIdgNHkj9RbX1bsMnoW3kEAAQQQKFTgBpXruQo/Dp5pHoGsNwKah2Kll36qV/zgoFNWeocXEEAAAQRKFvCh3Cco2PkvUEucA7AAjt66U+Gho0co/KAIJgQQQACBsgV8p9fDFFeVXczhS8cIwOJ14NsF+xiS7xro+wUwIYAAAgiUJ+Dv6rcoDlXcWF7xyisR5wA0qxOPBHx0RQNrtiRzI4AAAgh0JXCBVvwShW/sxjSmAIcAxoRaMdsv9O/HFX6c8MEKLhVs5sfcCCCAQJsCfprfPyr8OF/f1p2pgQAjAA2w5sy6m/7vu0o9bvJVsCQCCCCAwIQCl2m5lypOmXD59IsxAjB5E7hei35kxeKP17+MBkxuyZIIIIDAuAK+mc+/KY5UXDTuQsy3sgAjACubTPLKNlronYrfU3Bi5SSCLIMAAggsLnC8Znmj4oeLz8ociwnQAVhMqNn7e2r2v1c8tdlizI0AAgggsIDA9/TeGxQnLTAPbzUU4NdqQ7BFZv+B3n+awh2AcxeZl7cRQAABBBYWWKa3PbK6j4Kd/8JWjd9lBKAx2dgL2Nb3DvBDKHYaeylmRAABBBD4mQjeozhW4fv5M3UgQAegA9Q5q7SxRwVepXi6glGX7s3ZAgIIxBQ4Q8V+v+IzCt/Yh6lDAToAHeLOs+od9NqfKl6m2HCe93kJAQQQyCYwc8t17/i5kU+PtU8HoEfsWZtaW3/78IBHBR4zTBHYKgIIIDCowDJt/V8VvqTPT+5j6lmADkDP4PNszlcO+JGVjsfO8z4vIYAAArUI+CmrX1gRHu73Nf1MAwnQARgIfsRmt9Prz1G4M/AkBTdqGgHFywggEEbAl/DN7PTPC1PqBAWlA1BuJW+soh2heKbCz7XeutyiUjIEEEDg1wK+S+p3Fb5pj3f8l2NTpgAdgDLrZb5Sba4X91PsOyvcSWBCAAEEhhK4VRs+R+Ed/kwsHaowbLeZAB2AZl6lze2rCtwh8LkD286KLfQ3lxuWVluUB4G4Aj9X0S+bFefrb+/wL1RwHD9ovdIBCFpxixR7db3vQwazOwX+/3oKX4Gw1op//ffs8OtrKpgQQKA+gbuV0u0r4o5Zf8+85n9vU/ixuh62n9nh+2/Pz1SZwP8HnBwV0jOGZBIAAAAASUVORK5CYII=;" vertex="1" parent="1">
          <mxGeometry x="560" y="340" width="82" height="82" as="geometry" />
        </mxCell>
      </root>
    </mxGraphModel>
  </diagram>
</mxfile>
